<?xml version="1.0" standalone="no"?>
<!DOCTYPE svg PUBLIC "-//W3C//DTD SVG 1.1//EN" "http://www.w3.org/Graphics/SVG/1.1/DTD/svg11.dtd" >
<svg xmlns="http://www.w3.org/2000/svg" xmlns:xlink="http://www.w3.org/1999/xlink" version="1.1">
<metadata>
Created by FontForge 20170731 at Sat Jun 13 16:55:10 2015
 By Aleksey,,,
(c) 2014 Apple Inc. All rights reserved.
</metadata>
<defs>
<font id="SFUIDisplay-Regular" horiz-adv-x="0" >
  <font-face 
    font-family="SF UI Display"
    font-weight="400"
    font-stretch="normal"
    units-per-em="2048"
    panose-1="0 0 5 0 0 0 0 0 0 0"
    ascent="1638"
    descent="-410"
    x-height="1078"
    cap-height="1443"
    bbox="-545 -908 2563 2125"
    underline-thickness="50"
    underline-position="-175"
    unicode-range="U+0020-FB02"
  />
<missing-glyph horiz-adv-x="1293" 
d="M119 1365h1053v-1365h-1053v1365zM533 236q34 -30 87 -30q55 0 89 30q33 29 33 77q0 49 -33 78q-34 30 -89 30q-54 0 -87 -30t-33 -78q0 -47 33 -77zM507 888q1 59 34 95q34 35 91 35q54 0 87 -30t33 -80q0 -38 -20 -66q-21 -27 -83 -72q-128 -90 -118 -221l1 -18h166v15
q0 48 19 76t88 77q133 96 133 218q0 113 -81 182q-81 68 -215 68q-143 0 -225 -76q-83 -76 -79 -203h169z" />
    <glyph glyph-name=".notdef" horiz-adv-x="1293" 
d="M119 1365h1053v-1365h-1053v1365zM533 236q34 -30 87 -30q55 0 89 30q33 29 33 77q0 49 -33 78q-34 30 -89 30q-54 0 -87 -30t-33 -78q0 -47 33 -77zM507 888q1 59 34 95q34 35 91 35q54 0 87 -30t33 -80q0 -38 -20 -66q-21 -27 -83 -72q-128 -90 -118 -221l1 -18h166v15
q0 48 19 76t88 77q133 96 133 218q0 113 -81 182q-81 68 -215 68q-143 0 -225 -76q-83 -76 -79 -203h169z" />
    <glyph glyph-name="glyph1" 
 />
    <glyph glyph-name="glyph2" 
 />
    <glyph glyph-name="space" unicode=" " horiz-adv-x="490" 
 />
    <glyph glyph-name="exclam" unicode="!" horiz-adv-x="546" 
d="M362 1443l-12 -964h-156l-12 964h180zM191 23q-33 33 -33 81q0 49 33 81q33 33 81 33q49 0 81 -33q33 -32 33 -81q0 -48 -33 -81q-32 -33 -81 -33q-48 0 -81 33z" />
    <glyph glyph-name="quotedbl" unicode="&#x22;" horiz-adv-x="807" 
d="M134 934v509h160v-509h-160zM511 934v509h160v-509h-160z" />
    <glyph glyph-name="numbersign" unicode="#" horiz-adv-x="1206" 
d="M945 901l-71 -344h219l-28 -144h-220l-84 -413h-143l84 413h-308l-84 -413h-142l83 413h-216l28 144h219l69 344h-205l29 143h205l83 399h142l-80 -399h306l83 399h143l-82 -399h231l-28 -143h-233zM422 554h310l71 349h-310z" />
    <glyph glyph-name="dollar" unicode="$" horiz-adv-x="1239" 
d="M553 -137v134q-203 15 -325 123q-123 108 -124 275h171q8 -100 81 -164t197 -79v520l-80 22q-161 42 -247 138q-87 96 -87 235q0 164 111 269t303 124v140h134v-139q187 -16 302 -123q114 -107 119 -269h-170q-3 93 -71 158q-69 66 -180 79v-489l85 -21q361 -96 361 -388
q0 -177 -118 -285q-117 -108 -328 -125v-135h-134zM687 645v-496q130 7 202 71q71 64 71 174q0 193 -273 251zM553 846v460q-105 -6 -173 -70q-69 -65 -69 -159q0 -180 242 -231z" />
    <glyph glyph-name="percent" unicode="%" horiz-adv-x="1508" 
d="M136 0l1056 1443h172l-1054 -1443h-174zM1375 82q-83 -98 -220 -98t-220 98q-83 99 -83 262t83 261t220 98t220 -98q82 -98 82 -261q0 -164 -82 -262zM1259 170q38 64 38 174q0 111 -37 174q-38 62 -105 62q-66 0 -104 -64q-39 -63 -39 -172q0 -110 39 -174
q38 -64 104 -64t104 64zM572 840q-83 -98 -220 -98t-220 98q-83 99 -83 262t83 261t220 98t220 -98q82 -98 82 -261q0 -164 -82 -262zM456 928q38 64 38 174q0 111 -37 174q-38 62 -105 62q-66 0 -104 -64q-39 -63 -39 -172q0 -110 39 -174q38 -64 104 -64t104 64z" />
    <glyph glyph-name="ampersand" unicode="&#x26;" horiz-adv-x="1370" 
d="M1026 145q-191 -169 -461 -169q-214 0 -349 114t-135 294q0 250 283 400q52 27 55 28q-179 190 -179 335q0 137 104 229q104 91 260 91q159 0 262 -91t103 -231q0 -110 -72 -197q-72 -86 -237 -173l357 -385q69 129 69 384v43h166v-44q0 -317 -119 -504l253 -269h-226z
M259 396q0 -121 89 -195q89 -75 233 -75q214 0 340 134l-406 445q-29 -13 -48 -26q-208 -127 -208 -283zM747 1002q54 60 54 137q0 83 -54 135q-55 52 -142 52q-85 0 -140 -53t-55 -136q0 -107 154 -261q129 66 183 126z" />
    <glyph glyph-name="quotesingle" unicode="'" horiz-adv-x="430" 
d="M134 934v509h160v-509h-160z" />
    <glyph glyph-name="parenleft" unicode="(" horiz-adv-x="636" 
d="M444 -277q-270 338 -270 876q0 308 92 534q59 145 188 309h146q-90 -105 -156 -286q-93 -252 -93 -555q0 -453 246 -878h-153z" />
    <glyph glyph-name="parenright" unicode=")" horiz-adv-x="636" 
d="M36 -277q109 188 158 327q88 252 88 551q0 303 -92 555q-66 183 -156 286h146q129 -164 188 -309q92 -226 92 -534q0 -537 -271 -876h-153z" />
    <glyph glyph-name="asterisk" unicode="*" horiz-adv-x="988" 
d="M544 1045l16 -291h-134l16 292l-245 -161l-65 116l259 132l-259 131l65 118l245 -163l-16 294h134l-16 -294l245 163l65 -118l-258 -131l258 -132l-65 -116z" />
    <glyph glyph-name="plus" unicode="+" horiz-adv-x="1238" 
d="M699 30h-162v458h-427v162h427v447h162v-447h427v-162h-427v-458z" />
    <glyph glyph-name="comma" unicode="," horiz-adv-x="538" 
d="M98 -257l100 459h185l-150 -459h-135z" />
    <glyph glyph-name="hyphen" unicode="-" horiz-adv-x="878" 
d="M110 488v162h656v-162h-656z" />
    <glyph glyph-name="period" unicode="." horiz-adv-x="520" 
d="M178 23q-33 33 -33 81q0 49 33 81q33 33 81 33q49 0 81 -33q33 -32 33 -81q0 -48 -33 -81q-32 -33 -81 -33q-48 0 -81 33z" />
    <glyph glyph-name="slash" unicode="/" horiz-adv-x="590" 
d="M0 -329l441 1773h149l-444 -1773h-146z" />
    <glyph glyph-name="zero" unicode="0" horiz-adv-x="1242" 
d="M229 178q-140 199 -140 544q0 342 140 542q143 203 392 203t391 -202q139 -199 139 -542q0 -345 -139 -544q-141 -203 -391 -203q-251 0 -392 202zM880 293q90 155 90 429q0 270 -91 427q-93 160 -258 160t-259 -161q-92 -157 -92 -425q0 -274 91 -430q93 -160 260 -160
t259 160z" />
    <glyph glyph-name="one" unicode="1" horiz-adv-x="908" 
d="M484 1252h-4l-382 -275v190l384 276h176v-1443h-174v1252z" />
    <glyph glyph-name="two" unicode="2" horiz-adv-x="1159" 
d="M107 1027q0 189 136 315q136 125 340 125q193 0 327 -115t134 -281q0 -120 -67 -232q-65 -110 -247 -298l-365 -377v-4h703v-160h-952v124l508 535q145 153 193 232q47 79 47 169q0 104 -83 177q-84 73 -203 73q-127 0 -212 -81t-85 -202v-1h-174v1z" />
    <glyph glyph-name="three" unicode="3" horiz-adv-x="1212" 
d="M410 818h173q124 0 203 72q79 71 79 181t-71 174q-75 66 -209 66q-124 0 -202 -66t-90 -180h-173q15 184 142 293q128 109 331 109q195 0 323 -105q130 -105 130 -267q0 -135 -80 -227t-216 -116v-4q164 -10 261 -104q97 -95 97 -247q0 -184 -148 -303
q-146 -118 -361 -118q-224 0 -362 113q-136 111 -146 293h173q12 -113 100 -180q90 -70 233 -70t236 73q92 73 92 186q0 127 -90 201q-89 74 -244 74h-181v152z" />
    <glyph glyph-name="four" unicode="4" horiz-adv-x="1239" 
d="M802 300h-725v163q172 319 633 980h266v-985h204v-158h-204v-300h-174v300zM255 458h547v835h-3q-379 -541 -544 -831v-4z" />
    <glyph glyph-name="five" unicode="5" horiz-adv-x="1198" 
d="M267 93q-139 117 -150 301h177q12 -115 101 -188q89 -72 219 -72q147 0 240 92q92 92 92 238t-92 239q-93 94 -237 94q-214 0 -309 -162h-169l79 808h826v-160h-678l-44 -470h4q104 139 323 139q208 0 342 -136q135 -137 135 -347q0 -217 -144 -355t-370 -138
q-207 0 -345 117z" />
    <glyph glyph-name="six" unicode="6" horiz-adv-x="1226" 
d="M352 60q-124 84 -191 240q-71 164 -71 397q0 365 148 568q147 203 412 203q184 0 314 -102t165 -272h-183q-29 98 -110 157q-81 58 -188 58q-181 0 -280 -155t-104 -443h3q49 106 159 170t244 64q206 0 343 -136q136 -136 136 -341q0 -214 -144 -353q-145 -140 -367 -140
q-162 0 -286 85zM870 230q96 95 96 232q0 142 -92 233q-92 92 -235 92t-238 -91q-94 -91 -94 -229q0 -139 95 -235q96 -97 234 -97t234 95z" />
    <glyph glyph-name="seven" unicode="7" horiz-adv-x="1120" 
d="M852 1279v4h-777v160h955v-167l-642 -1276h-189z" />
    <glyph glyph-name="eight" unicode="8" horiz-adv-x="1227" 
d="M236 93q-147 116 -147 297q0 135 85 237t225 134v4q-117 36 -185 123q-68 86 -68 200q0 163 133 271q132 108 333 108q202 0 334 -107q131 -108 131 -273q0 -113 -67 -198q-67 -87 -185 -124v-4q140 -33 226 -135q85 -102 85 -236q0 -181 -147 -298q-147 -116 -377 -116
q-229 0 -376 117zM857 209q95 76 95 194q0 119 -95 195q-96 76 -245 76t-244 -76q-96 -77 -96 -195t96 -194t244 -76q149 0 245 76zM819 899q80 67 80 172q0 106 -80 174q-80 67 -207 67t-207 -68q-80 -67 -80 -173q0 -105 80 -172t207 -67q126 0 207 67z" />
    <glyph glyph-name="nine" unicode="9" horiz-adv-x="1226" 
d="M260 78q-131 102 -164 272h183q29 -98 110 -158q81 -59 188 -59q180 0 280 157q99 156 103 444h-3q-46 -107 -155 -172q-110 -64 -248 -64q-206 0 -343 136q-136 136 -136 341q0 214 145 353q144 140 366 140q163 0 287 -84q124 -85 190 -240q71 -164 71 -398
q0 -365 -147 -567q-147 -203 -412 -203q-184 0 -315 102zM823 747q95 91 95 229q0 139 -95 234q-96 96 -235 96t-235 -95q-96 -94 -96 -230q0 -141 93 -233t235 -92q143 0 238 91z" />
    <glyph glyph-name="colon" unicode=":" horiz-adv-x="520" 
d="M178 23q-33 33 -33 81q0 49 33 81q33 33 81 33q49 0 81 -33q33 -32 33 -81q0 -48 -33 -81q-32 -33 -81 -33q-48 0 -81 33zM178 759q-33 33 -33 81q0 49 33 81q33 33 81 33q49 0 81 -33q33 -32 33 -81q0 -48 -33 -81q-32 -33 -81 -33q-48 0 -81 33z" />
    <glyph glyph-name="semicolon" unicode=";" horiz-adv-x="520" 
d="M178 759q-33 33 -33 81q0 49 33 81q33 33 81 33q49 0 81 -33q33 -32 33 -81q0 -48 -33 -81q-32 -33 -81 -33q-48 0 -81 33zM61 -257l98 459h187l-150 -459h-135z" />
    <glyph glyph-name="less" unicode="&#x3c;" horiz-adv-x="1239" 
d="M351 580v-9l707 -378v-186l-879 491v142l879 526v-186z" />
    <glyph glyph-name="equal" unicode="=" horiz-adv-x="1239" 
d="M130 301v154h977v-154h-977zM130 684v154h977v-154h-977z" />
    <glyph glyph-name="greater" unicode="&#x3e;" horiz-adv-x="1239" 
d="M179 1167l879 -526v-142l-879 -491v186l707 378v9l-707 400v186z" />
    <glyph glyph-name="question" unicode="?" horiz-adv-x="1002" 
d="M55 1066q9 171 117 275q117 113 319 113q187 0 307 -104q117 -102 117 -258q0 -219 -209 -345q-94 -56 -129 -107q-34 -49 -34 -129v-65h-175v92q-1 183 200 304q88 54 124 107q37 55 37 134q0 94 -67 154q-68 61 -178 61q-113 0 -181 -62q-69 -62 -77 -170h-171zM375 23
q-33 33 -33 81q0 49 33 81q33 33 81 33q49 0 81 -33q33 -32 33 -81q0 -48 -33 -81q-32 -33 -81 -33q-48 0 -81 33z" />
    <glyph glyph-name="at" unicode="@" horiz-adv-x="1791" 
d="M731 801q-56 -74 -56 -205q0 -130 56 -205q57 -75 155 -75q103 0 164 76t61 204t-60 204q-61 75 -163 75q-100 0 -157 -74zM1498 1232q227 -205 227 -533q0 -242 -100 -386q-102 -147 -276 -147q-87 0 -150 47q-65 47 -74 121h-8q-68 -159 -254 -159q-156 0 -252 117
t-96 308q0 182 97 298q97 115 251 115q80 0 147 -39q67 -38 95 -102h8v122h151v-587q0 -111 113 -111q92 0 148 105q59 110 59 300q0 272 -188 440q-187 168 -486 168q-293 0 -482 -200q-190 -201 -190 -514q0 -331 201 -521q192 -181 503 -181q227 0 335 48v-126
q-139 -49 -337 -49q-376 0 -604 216q-239 225 -239 619q0 373 231 604q229 230 595 230q352 0 575 -203z" />
    <glyph glyph-name="A" unicode="A" horiz-adv-x="1292" 
d="M932 413h-574l-145 -413h-189l532 1443h178l532 -1443h-189zM411 566h468l-231 658h-6z" />
    <glyph glyph-name="B" unicode="B" horiz-adv-x="1256" 
d="M139 0v1443h565q186 0 300 -99t114 -261q0 -113 -72 -204q-73 -92 -177 -111v-8q147 -19 235 -115q87 -96 87 -240q0 -191 -129 -298q-130 -107 -360 -107h-563zM319 821h288q160 0 244 62q85 62 85 179q0 107 -71 165q-71 57 -202 57h-344v-463zM675 159q331 0 331 255
q0 252 -348 252h-339v-507h356z" />
    <glyph glyph-name="C" unicode="C" horiz-adv-x="1405" 
d="M259 178q-176 201 -176 544q0 340 177 542q177 203 473 203q236 0 400 -131q165 -132 199 -348h-182q-35 142 -148 227q-115 86 -269 86q-211 0 -338 -158t-127 -421q0 -266 126 -423t340 -157q159 0 268 73t148 205h182q-50 -214 -205 -329t-394 -115q-299 0 -474 202z
" />
    <glyph glyph-name="D" unicode="D" horiz-adv-x="1399" 
d="M634 1443q321 0 501 -190q180 -191 180 -531q0 -341 -180 -532q-179 -190 -501 -190h-495v1443h495zM319 162h303q245 0 377 145q132 144 132 413q0 271 -131 416q-132 145 -378 145h-303v-1119z" />
    <glyph glyph-name="E" unicode="E" horiz-adv-x="1131" 
d="M1033 0h-894v1443h894v-162h-714v-463h677v-160h-677v-496h714v-162z" />
    <glyph glyph-name="F" unicode="F" horiz-adv-x="1081" 
d="M139 0v1443h876v-162h-696v-496h639v-160h-639v-625h-180z" />
    <glyph glyph-name="G" unicode="G" horiz-adv-x="1447" 
d="M1356 597q0 -293 -162 -457q-161 -164 -450 -164q-302 0 -482 204q-179 205 -179 549q0 338 179 538t482 200q234 0 398 -128q165 -129 205 -344h-189q-45 146 -153 226q-109 80 -261 80q-223 0 -349 -152q-127 -151 -127 -419q0 -272 128 -430t348 -158q192 0 312 113
q120 114 120 295v26h-407v158h587v-137z" />
    <glyph glyph-name="H" unicode="H" horiz-adv-x="1432" 
d="M1111 0v657h-792v-657h-180v1443h180v-624h792v624h180v-1443h-180z" />
    <glyph glyph-name="I" unicode="I" horiz-adv-x="460" 
d="M139 0v1443h180v-1443h-180z" />
    <glyph glyph-name="J" unicode="J" horiz-adv-x="1014" 
d="M220 339q3 -92 66 -149q64 -58 162 -58q119 0 182 70q63 69 63 201v1040h180v-1041q0 -205 -112 -321q-112 -115 -312 -115q-180 0 -294 104q-114 105 -114 269h179z" />
    <glyph glyph-name="K" unicode="K" horiz-adv-x="1260" 
d="M139 0v1443h180v-704h10l637 704h227l-593 -639l646 -804h-230l-541 676l-156 -172v-504h-180z" />
    <glyph glyph-name="L" unicode="L" horiz-adv-x="1074" 
d="M1015 0h-876v1443h180v-1281h696v-162z" />
    <glyph glyph-name="M" unicode="M" horiz-adv-x="1702" 
d="M1561 0h-168v1112h-7l-460 -1102h-152l-460 1102h-7v-1112h-168v1443h209l498 -1204h8l498 1204h209v-1443z" />
    <glyph glyph-name="N" unicode="N" horiz-adv-x="1432" 
d="M139 0v1443h175l790 -1133h9v1133h178v-1443h-175l-790 1129h-9v-1129h-178z" />
    <glyph glyph-name="O" unicode="O" horiz-adv-x="1498" 
d="M1234 1266q179 -201 179 -545t-179 -544q-179 -201 -486 -201t-486 201q-179 200 -179 544t179 545t486 201t486 -201zM397 1145q-129 -157 -129 -424q0 -266 129 -423q130 -156 351 -156t351 156q129 157 129 423q0 267 -129 424q-130 156 -351 156t-351 -156z" />
    <glyph glyph-name="P" unicode="P" horiz-adv-x="1213" 
d="M684 1443q204 0 333 -129t129 -334t-130 -335t-334 -130h-363v-515h-180v1443h545zM319 675h318q154 0 239 81q85 80 85 224t-84 223q-85 80 -240 80h-318v-608z" />
    <glyph glyph-name="Q" unicode="Q" horiz-adv-x="1498" 
d="M1140 -163l-134 184q-115 -45 -258 -45q-307 0 -486 201q-179 200 -179 544t179 545t486 201t486 -201t179 -545q0 -423 -262 -621l191 -263h-202zM901 165l-180 248h202l123 -168q182 154 182 476q0 267 -129 424q-130 156 -351 156t-351 -156q-129 -157 -129 -424
q0 -266 129 -423q130 -156 351 -156q81 0 153 23z" />
    <glyph glyph-name="R" unicode="R" horiz-adv-x="1237" 
d="M319 730h355q139 0 214 72q76 72 76 205q0 130 -79 203t-219 73h-347v-553zM319 0h-180v1443h551q209 0 334 -117q126 -118 126 -313q0 -151 -77 -261t-213 -153l334 -599h-211l-309 571h-355v-571z" />
    <glyph glyph-name="S" unicode="S" horiz-adv-x="1216" 
d="M251 397q13 -117 115 -188q101 -71 256 -71q146 0 242 69q95 70 95 176q0 91 -67 151q-66 58 -212 96l-185 48q-200 51 -292 143q-92 91 -92 238q0 180 143 294q142 114 367 114q215 0 356 -115q141 -116 147 -297h-180q-12 116 -100 183t-229 67q-140 0 -229 -66
q-88 -66 -88 -172q0 -82 65 -134q64 -53 211 -91l151 -40q224 -56 322 -149t98 -248q0 -198 -145 -313q-146 -116 -395 -116q-230 0 -376 115t-159 306h181z" />
    <glyph glyph-name="T" unicode="T" horiz-adv-x="1210" 
d="M514 0v1281h-465v162h1110v-162h-465v-1281h-180z" />
    <glyph glyph-name="U" unicode="U" horiz-adv-x="1426" 
d="M319 518q0 -167 103 -270q106 -106 290 -106t290 106q103 103 103 270v925h180v-937q0 -235 -152 -380q-157 -150 -421 -150t-421 150q-152 145 -152 380v937h180v-925z" />
    <glyph glyph-name="V" unicode="V" horiz-adv-x="1292" 
d="M556 0l-532 1443h189l429 -1224h6l429 1224h189l-532 -1443h-178z" />
    <glyph glyph-name="W" unicode="W" horiz-adv-x="1892" 
d="M607 0h-170l-393 1443h188l289 -1178h8l325 1178h182l325 -1178h8l289 1178h188l-393 -1443h-170l-333 1145h-10z" />
    <glyph glyph-name="X" unicode="X" horiz-adv-x="1300" 
d="M535 723v7l-485 713h217l385 -580h7l390 580h205l-498 -722v-6l487 -715h-216l-383 575h-7l-389 -575h-204z" />
    <glyph glyph-name="Y" unicode="Y" horiz-adv-x="1254" 
d="M536 0v621l-512 822h205l394 -648h6l394 648h205l-512 -822v-621h-180z" />
    <glyph glyph-name="Z" unicode="Z" horiz-adv-x="1263" 
d="M97 128l823 1146v7h-795v162h1022v-128l-819 -1146v-7h836v-162h-1067v128z" />
    <glyph glyph-name="bracketleft" unicode="[" horiz-adv-x="664" 
d="M656 1444v-136h-284v-1413h296v-135h-464v1684h452z" />
    <glyph glyph-name="backslash" unicode="\" horiz-adv-x="590" 
d="M0 1444h149l441 -1773h-146z" />
    <glyph glyph-name="bracketright" unicode="]" horiz-adv-x="664" 
d="M459 -240h-464v135h297v1413h-284v136h451v-1684z" />
    <glyph glyph-name="asciicircum" unicode="^" horiz-adv-x="896" 
d="M221 816h-167l298 627h190l298 -627h-167l-218 475h-16z" />
    <glyph glyph-name="underscore" unicode="_" horiz-adv-x="828" 
d="M-54 -235v128h936v-128h-936z" />
    <glyph glyph-name="grave" unicode="`" horiz-adv-x="1005" 
d="M556 1250l-261 300h198l211 -300h-148z" />
    <glyph glyph-name="a" unicode="a" horiz-adv-x="1062" 
d="M688 217q86 77 86 193v87l-282 -18q-246 -15 -246 -173q0 -75 61 -120q60 -45 162 -45q132 0 219 76zM168 77q-100 87 -100 230q0 139 104 218q104 80 300 92l302 18v90q0 100 -64 154t-183 54q-94 0 -158 -45q-65 -45 -81 -121h-167q4 136 121 229q117 92 287 92
q191 0 305 -94q114 -95 114 -254v-740h-165v187h-4q-46 -90 -140 -143q-94 -54 -207 -54q-164 0 -264 87z" />
    <glyph glyph-name="b" unicode="b" horiz-adv-x="1173" 
d="M296 182h-4v-182h-165v1506h174v-603h4q107 185 346 185q204 0 330 -151q126 -152 126 -398q0 -247 -127 -398q-126 -151 -333 -151q-243 0 -351 192zM388 823q-88 -109 -88 -284q0 -176 88 -285q87 -109 228 -109q142 0 227 107q86 107 86 287q0 179 -86 287
q-85 107 -227 107q-141 0 -228 -110z" />
    <glyph glyph-name="c" unicode="c" horiz-adv-x="1060" 
d="M837 727q-17 91 -87 146q-76 60 -193 60q-142 0 -228 -108q-88 -108 -88 -286q0 -182 89 -289q86 -105 229 -105q234 0 280 200h171q-22 -159 -145 -256q-124 -99 -307 -99q-224 0 -358 147q-136 150 -136 402q0 248 135 399q135 150 357 150q191 0 318 -110
q117 -101 134 -251h-171z" />
    <glyph glyph-name="d" unicode="d" horiz-adv-x="1173" 
d="M193 141q-129 152 -129 398q0 245 129 398q127 151 329 151q241 0 344 -185h4v603h174v-1506h-166v182h-3q-108 -192 -349 -192q-204 0 -333 151zM329 825q-87 -108 -87 -286q0 -179 87 -287q86 -107 228 -107q140 0 227 109t87 285t-87 285t-227 109q-142 0 -228 -108z
" />
    <glyph glyph-name="e" unicode="e" horiz-adv-x="1084" 
d="M337 851q-84 -84 -93 -221h593q-3 137 -83 221q-79 84 -207 84q-127 0 -210 -84zM1005 308q-22 -139 -148 -228q-126 -90 -299 -90q-227 0 -361 147q-133 147 -133 398t133 402t353 151q216 0 342 -142q126 -143 126 -387v-68h-774v-10q0 -154 87 -246t231 -92
q101 0 175 45q73 44 96 120h172z" />
    <glyph glyph-name="f" unicode="f" horiz-adv-x="629" 
d="M174 934h-150v144h150v100q0 150 69 219q68 69 218 69q48 0 97 -9v-144q-37 8 -81 8q-68 0 -98 -34q-30 -33 -31 -109v-100h210v-144h-210v-934h-174v934z" />
    <glyph glyph-name="g" unicode="g" horiz-adv-x="1163" 
d="M782 262q88 108 88 281q0 174 -88 282q-87 108 -229 108q-141 0 -226 -106q-85 -107 -85 -284q0 -176 85 -282t226 -106q142 0 229 107zM251 -304q-122 82 -141 216h181q19 -67 94 -107q74 -39 181 -39q140 0 222 68q82 67 82 182v169h-4q-108 -185 -346 -185
q-205 0 -330 149q-126 150 -126 394q0 247 126 396t334 149q238 0 351 -185h3v175h166v-1048q0 -193 -130 -304q-131 -111 -358 -111q-183 0 -305 81z" />
    <glyph glyph-name="h" unicode="h" horiz-adv-x="1166" 
d="M127 1506h174v-603h4q102 185 352 185q177 0 286 -110t109 -290v-688h-174v657q0 129 -72 203q-73 73 -201 73q-137 0 -220 -86q-84 -86 -84 -227v-620h-174v1506z" />
    <glyph glyph-name="i" unicode="i" horiz-adv-x="430" 
d="M127 1078h174v-1078h-174v1078zM137 1285q-33 32 -33 77q0 46 33 78q32 32 77 32q46 0 78 -32t32 -78q0 -45 -32 -77q-32 -33 -78 -33q-45 0 -77 33z" />
    <glyph glyph-name="j" unicode="j" horiz-adv-x="430" 
d="M302 -81q0 -164 -80 -241q-79 -76 -251 -76h-31v147h27q88 0 125 38q36 37 36 129v1162h174v-1159zM138 1285q-33 32 -33 77q0 46 33 78q32 32 77 32q46 0 78 -32t32 -78q0 -45 -32 -77q-32 -33 -78 -33q-45 0 -77 33z" />
    <glyph glyph-name="k" unicode="k" horiz-adv-x="1026" 
d="M784 1078h212l-471 -466l485 -612h-202l-405 505l-102 -96v-409h-174v1506h174v-910z" />
    <glyph glyph-name="l" unicode="l" horiz-adv-x="430" 
d="M127 1506h174v-1506h-174v1506z" />
    <glyph glyph-name="m" unicode="m" horiz-adv-x="1701" 
d="M117 1078h164v-175h4q38 86 120 136q81 49 186 49q228 0 302 -204h4q46 96 136 150t203 54q160 0 255 -96q96 -96 96 -256v-736h-174v696q0 112 -59 174q-60 63 -168 63t-177 -72q-70 -72 -70 -183v-678h-174v717q0 98 -61 157q-62 59 -163 59q-108 0 -179 -75
q-71 -76 -71 -189v-669h-174v1078z" />
    <glyph glyph-name="n" unicode="n" horiz-adv-x="1135" 
d="M117 1078h164v-175h4q103 185 352 185q178 0 281 -107q103 -106 103 -290v-691h-174v661q0 132 -67 202q-68 70 -195 70q-133 0 -213 -84q-81 -84 -81 -223v-626h-174v1078z" />
    <glyph glyph-name="o" unicode="o" horiz-adv-x="1124" 
d="M199 139q-135 149 -135 400t135 400t362 149t362 -149t135 -400t-135 -400t-362 -149t-362 149zM796 249q85 105 85 290q0 186 -85 290q-84 104 -235 104t-235 -104q-85 -105 -85 -290t85 -290q85 -104 235 -104q151 0 235 104z" />
    <glyph glyph-name="p" unicode="p" horiz-adv-x="1163" 
d="M969 937q128 -152 128 -398t-127 -398q-127 -151 -331 -151q-237 0 -344 185h-4v-535h-174v1438h165v-175h4q47 84 142 135q95 50 207 50q207 0 334 -151zM832 252q87 108 87 287q0 178 -87 286q-86 108 -229 108q-139 0 -226 -109t-87 -285t87 -285q86 -109 226 -109
q143 0 229 107z" />
    <glyph glyph-name="q" unicode="q" horiz-adv-x="1163" 
d="M875 903h3v175h166v-1438h-174v535h-4q-107 -185 -346 -185q-204 0 -330 151q-126 152 -126 398q0 247 127 398q126 151 333 151q244 0 351 -185zM782 254q88 110 88 285t-88 284q-88 110 -229 110t-226 -107q-85 -108 -85 -287q0 -180 85 -287t226 -107t229 109z" />
    <glyph glyph-name="r" unicode="r" horiz-adv-x="649" 
d="M117 1078h164v-175h4q24 85 95 135t166 50q41 0 67 -7v-172q-28 12 -90 12q-105 0 -168 -70q-64 -70 -64 -184v-667h-174v1078z" />
    <glyph glyph-name="s" unicode="s" horiz-adv-x="984" 
d="M211 1000q111 87 287 87q164 0 276 -88q111 -87 116 -220h-167q-8 76 -70 120t-161 44q-100 0 -161 -43t-61 -114q0 -107 182 -153l164 -41q163 -41 230 -106q66 -64 66 -182q0 -138 -120 -226q-119 -88 -306 -88q-174 0 -289 86q-115 87 -128 227h175q28 -169 254 -169
q110 0 175 43q64 42 64 115q0 57 -38 91q-38 33 -130 57l-189 49q-281 73 -281 288q0 136 112 223z" />
    <glyph glyph-name="t" unicode="t" horiz-adv-x="634" 
d="M348 1321v-243h210v-144h-210v-647q0 -144 134 -144q45 0 75 5v-147q-38 -9 -112 -9q-146 0 -209 66q-62 67 -62 222v654h-150v144h150v243h174z" />
    <glyph glyph-name="u" unicode="u" horiz-adv-x="1135" 
d="M1016 0h-164v178h-4q-102 -188 -353 -188q-177 0 -280 107q-103 106 -103 290v691h174v-661q0 -132 68 -202q67 -70 194 -70q133 0 213 84q81 84 81 223v626h174v-1078z" />
    <glyph glyph-name="v" unicode="v" horiz-adv-x="1022" 
d="M598 0h-176l-398 1078h182l302 -890h4l303 890h181z" />
    <glyph glyph-name="w" unicode="w" horiz-adv-x="1512" 
d="M1179 0h-176l-246 838h-4l-246 -838h-176l-302 1078h172l219 -881h4l247 881h168l247 -881h4l219 881h172z" />
    <glyph glyph-name="x" unicode="x" horiz-adv-x="991" 
d="M491 413l-263 -413h-194l369 539l-363 539h194l263 -407h4l260 407h194l-365 -532l360 -546h-194l-261 413h-4z" />
    <glyph glyph-name="y" unicode="y" horiz-adv-x="1026" 
d="M133 -384v147q30 -6 71 -6q75 0 120 40q45 41 78 138l21 64l-399 1079h185l302 -901h4l302 901h183l-422 -1144q-69 -187 -147 -256q-79 -69 -222 -69q-39 0 -76 7z" />
    <glyph glyph-name="z" unicode="z" horiz-adv-x="990" 
d="M94 126l601 805v3h-600v144h796v-129l-597 -802v-3h600v-144h-800v126z" />
    <glyph glyph-name="braceleft" unicode="{" horiz-adv-x="734" 
d="M310 601q179 -17 179 -236v-334q0 -118 55 -171t179 -53h45v-141h-60q-383 0 -383 353v289q0 119 -39 165t-139 46v191q100 0 139 47q39 46 39 166v255q0 344 383 344h60v-141h-45q-125 0 -180 -52q-54 -53 -54 -173v-296q0 -216 -179 -234v-25z" />
    <glyph glyph-name="bar" unicode="|" horiz-adv-x="446" 
d="M149 -326v1769h146v-1769h-146z" />
    <glyph glyph-name="braceright" unicode="}" horiz-adv-x="734" 
d="M423 626q-179 18 -179 234v296q0 120 -54 173q-55 52 -180 52h-45v141h60q383 0 383 -344v-255q0 -120 39 -166q39 -47 139 -47v-191q-100 0 -139 -46t-39 -165v-289q0 -353 -383 -353h-60v141h45q124 0 179 53t55 171v334q0 219 179 236v25z" />
    <glyph glyph-name="asciitilde" unicode="~" horiz-adv-x="1239" 
d="M415 737q-131 0 -141 -179h-160q-1 160 81 252q81 92 224 92q122 0 247 -125q96 -100 158 -100q131 0 142 179h159q1 -160 -81 -252q-81 -92 -223 -92q-122 0 -246 124q-99 101 -160 101z" />
    <glyph glyph-name="uni00A0" unicode="&#xa0;" horiz-adv-x="490" 
 />
    <glyph glyph-name="exclamdown" unicode="&#xa1;" horiz-adv-x="546" 
d="M194 622h156l12 -964h-180zM191 918q-33 33 -33 81q0 49 33 81q33 33 81 33q49 0 81 -33q33 -32 33 -81q0 -48 -33 -81q-32 -33 -81 -33q-48 0 -81 33z" />
    <glyph glyph-name="cent" unicode="&#xa2;" horiz-adv-x="1239" 
d="M1124 538q-17 -148 -128 -249q-112 -103 -278 -120v-169h-172v171q-199 31 -316 181t-117 373q0 220 118 369q117 149 315 178v171h172v-169q166 -18 281 -125q114 -106 125 -249h-174q-21 104 -106 164q-84 60 -209 60q-152 0 -248 -112q-96 -111 -96 -287
q0 -178 96 -292q97 -114 248 -114q274 0 315 219h174z" />
    <glyph glyph-name="sterling" unicode="&#xa3;" horiz-adv-x="1239" 
d="M1159 154v-154h-1062v152q133 30 220 130q88 99 88 219q0 66 -24 152h-284v144h234q-61 171 -61 263q0 196 137 306q138 111 380 111q187 0 300 -53v-160q-93 54 -291 54q-161 0 -251 -67q-91 -68 -91 -187q0 -97 60 -267h471v-144h-424q21 -84 21 -145q0 -225 -209 -350
v-4h786z" />
    <glyph glyph-name="currency" unicode="&#xa4;" horiz-adv-x="1239" 
d="M434 470q77 -78 186 -78t186 78q77 77 77 186t-77 186q-77 78 -186 78t-186 -78q-78 -77 -78 -186t78 -186zM943 874q67 -99 67 -218q0 -121 -68 -219l169 -169l-106 -106l-169 169q-97 -66 -216 -66q-118 0 -219 67l-169 -170l-106 106l170 170q-67 101 -67 218
q0 118 67 217l-170 170l106 106l169 -169q101 67 219 67t217 -67l168 169l106 -106z" />
    <glyph glyph-name="yen" unicode="&#xa5;" horiz-adv-x="1239" 
d="M709 269v-269h-180v269h-277v136h277v166h-277v136h223l-458 736h205l394 -647h6l393 647h205l-457 -736h223v-136h-277v-166h277v-136h-277z" />
    <glyph glyph-name="brokenbar" unicode="&#xa6;" horiz-adv-x="448" 
d="M150 774v669h146v-669h-146zM150 -326v669h146v-669h-146z" />
    <glyph glyph-name="section" unicode="&#xa7;" horiz-adv-x="988" 
d="M511 382q92 0 155 55t63 136q0 130 -170 167l-83 18q-91 0 -155 -56t-64 -135q0 -129 171 -167zM213 -174q-114 83 -124 216h176q10 -69 77 -111t165 -42q102 0 166 44q63 44 63 114q0 107 -198 160l-141 38q-164 44 -241 114q-76 69 -76 174q0 95 59 164q58 69 164 98
v16q-219 86 -219 273q0 140 111 226q111 87 290 87q167 0 274 -78t124 -211h-173q-11 65 -72 104q-63 39 -157 39q-101 0 -162 -43q-62 -44 -62 -114q0 -108 195 -161l141 -38q313 -84 313 -280q0 -103 -71 -182t-183 -101v-16q254 -57 254 -257q0 -139 -114 -227
q-115 -89 -294 -89q-172 0 -285 83z" />
    <glyph glyph-name="dieresis" unicode="&#xa8;" horiz-adv-x="1004" 
d="M225 1294q-33 33 -33 79t33 79t79 33q47 0 79 -33q33 -32 33 -79q0 -46 -33 -79t-79 -33t-79 33zM619 1294q-33 33 -33 79t33 79t79 33q47 0 79 -33q33 -32 33 -79q0 -46 -33 -79t-79 -33t-79 33z" />
    <glyph glyph-name="copyright" unicode="&#xa9;" horiz-adv-x="1706" 
d="M289 60q-230 228 -230 566q0 339 230 567q228 227 563 227q336 0 564 -227q229 -228 229 -567q0 -338 -229 -566q-228 -228 -564 -228q-335 0 -563 228zM1316 159q188 188 188 467q0 281 -188 468q-187 186 -464 186q-275 0 -463 -186q-189 -188 -189 -468
q0 -279 189 -467q188 -187 463 -187q276 0 464 187zM1091 768q-17 68 -73 110q-61 46 -149 46q-116 0 -184 -79q-69 -80 -69 -217q0 -139 70 -220q68 -80 183 -80q183 0 222 151h139q-19 -123 -112 -197q-98 -78 -248 -78q-181 0 -288 114q-108 114 -108 310q0 192 108 306
q107 114 287 114q150 0 249 -82q93 -77 112 -198h-139z" />
    <glyph glyph-name="ordfeminine" unicode="&#xaa;" horiz-adv-x="886" 
d="M304 771q42 -36 114 -36q91 0 153 55q61 55 61 137v84l-202 -15q-169 -12 -169 -130q0 -60 43 -95zM180 679q-74 70 -74 181q0 110 79 174q78 64 226 74l218 14v69q0 65 -46 102q-45 36 -127 36q-145 0 -167 -98h-152q10 105 98 168q88 62 225 62q148 0 233 -73
q85 -74 85 -202v-556h-143v107h-11q-88 -128 -253 -128q-118 0 -191 70z" />
    <glyph glyph-name="guillemotleft" unicode="&#xab;" horiz-adv-x="1303" 
d="M815 558l351 -413h-204l-350 416v8l350 416h204l-351 -413v-14zM337 558l351 -413h-204l-350 416v8l350 416h204l-351 -413v-14z" />
    <glyph glyph-name="logicalnot" unicode="&#xac;" horiz-adv-x="1239" 
d="M1092 126h-148v380h-799v148h947v-528z" />
    <glyph glyph-name="registered" unicode="&#xae;" horiz-adv-x="1070" 
d="M226 814q-127 125 -127 303q0 179 126 303q127 124 309 124t309 -124q126 -124 126 -303t-126 -303q-127 -124 -309 -124t-308 124zM772 879q97 98 97 238q0 141 -97 238t-238 97q-140 0 -238 -97q-97 -97 -97 -238q0 -140 97 -238q98 -97 238 -97q141 0 238 97zM363 927
v408h200q63 0 104 -35q40 -35 40 -89q0 -105 -96 -120l116 -164h-108l-99 151h-71v-151h-86zM449 1145h97q68 0 68 62q0 56 -65 56h-100v-118z" />
    <glyph glyph-name="macron" unicode="&#xaf;" horiz-adv-x="1000" 
d="M816 1320h-634v106h634v-106z" />
    <glyph glyph-name="degree" unicode="&#xb0;" horiz-adv-x="733" 
d="M163 945q-82 83 -82 202t82 202q83 83 202 83t202 -83t83 -202q0 -118 -83 -202q-83 -83 -202 -83t-202 83zM477 1037q46 46 46 110q0 65 -46 111t-112 46q-63 0 -110 -46t-47 -111q0 -63 47 -110q47 -46 110 -46q66 0 112 46z" />
    <glyph glyph-name="plusminus" unicode="&#xb1;" horiz-adv-x="1239" 
d="M110 112v148h1017v-148h-1017zM692 371h-147v291h-435v136h435v291h147v-291h435v-136h-435v-291z" />
    <glyph glyph-name="uni00B2" unicode="&#xb2;" horiz-adv-x="617" 
d="M44 1601q0 100 72 163q73 62 189 62q112 0 182 -56t70 -145q0 -96 -127 -216l-165 -155v-3h301v-126h-513v108l264 247q83 82 83 135q0 39 -28 64q-29 24 -74 24t-75 -29t-30 -73v-3h-149v3z" />
    <glyph glyph-name="uni00B3" unicode="&#xb3;" horiz-adv-x="643" 
d="M229 1532h84q46 0 73 24q28 24 28 64q0 84 -103 84q-46 0 -76 -25q-29 -26 -31 -68h-147q2 98 74 156q71 59 187 59q112 0 180 -50q68 -51 68 -134q0 -61 -39 -105q-38 -43 -103 -54v-4q78 -7 123 -51t45 -113q0 -93 -76 -149q-77 -57 -203 -57q-118 0 -191 59t-78 158
h154q3 -41 35 -65q31 -24 82 -24q49 0 81 25q31 25 31 65q0 43 -30 67q-31 25 -84 25h-84v113z" />
    <glyph glyph-name="acute" unicode="&#xb4;" horiz-adv-x="1005" 
d="M298 1250l211 300h198l-261 -300h-148z" />
    <glyph glyph-name="paragraph" unicode="&#xb6;" horiz-adv-x="1201" 
d="M593 -220v795h-20q-202 0 -337 121q-137 122 -137 306q0 191 137 317q136 124 338 124h199v-1663h-180zM920 1443h180v-1663h-180v1663z" />
    <glyph glyph-name="periodcentered" unicode="&#xb7;" horiz-adv-x="520" 
d="M178 524q-33 33 -33 81q0 49 33 81q33 33 81 33q49 0 81 -33q33 -32 33 -81q0 -48 -33 -81q-32 -33 -81 -33q-48 0 -81 33z" />
    <glyph glyph-name="cedilla" unicode="&#xb8;" horiz-adv-x="1005" 
d="M358 -156l63 164l109 -8l-52 -142q209 0 209 -150q0 -76 -62 -126t-157 -51q-83 -1 -147 17v98q38 -15 122 -15q120 0 120 73q0 66 -150 66h-55v74z" />
    <glyph glyph-name="uni00B9" unicode="&#xb9;" horiz-adv-x="497" 
d="M250 1670h-3l-178 -122v142l176 120h158v-685h-153v545z" />
    <glyph glyph-name="ordmasculine" unicode="&#xba;" horiz-adv-x="949" 
d="M310 812q58 -76 164 -76t164 77q58 76 58 217q0 140 -58 216q-57 76 -164 76q-106 0 -164 -76q-58 -77 -58 -217t58 -217zM194 718q-102 114 -102 311q0 198 103 313q102 114 279 114t279 -114t102 -312t-102 -312t-279 -114q-178 0 -280 114z" />
    <glyph glyph-name="guillemotright" unicode="&#xbb;" horiz-adv-x="1302" 
d="M134 985h204l350 -416v-8l-350 -416h-204l351 413v14zM612 985h204l350 -416v-8l-350 -416h-204l351 413v14z" />
    <glyph glyph-name="onequarter" unicode="&#xbc;" horiz-adv-x="1462" 
d="M90 0l1056 1443h172l-1054 -1443h-174zM1188 115h-339v137q78 151 267 433h226v-442h87v-128h-87v-115h-154v115zM988 238h204v335h-3q-139 -214 -201 -332v-3zM260 1303h-3l-178 -122v142l176 120h158v-685h-153v545z" />
    <glyph glyph-name="onehalf" unicode="&#xbd;" horiz-adv-x="1462" 
d="M90 0l1056 1443h172l-1054 -1443h-174zM260 1303h-3l-178 -122v142l176 120h158v-685h-153v545zM907 476q0 100 72 163q73 62 189 62q112 0 182 -56t70 -145q0 -96 -127 -216l-165 -155v-3h301v-126h-513v108l264 247q83 82 83 135q0 39 -28 64q-29 24 -74 24t-75 -29
t-30 -73v-3h-149v3z" />
    <glyph glyph-name="threequarters" unicode="&#xbe;" horiz-adv-x="1572" 
d="M200 0l1056 1443h172l-1054 -1443h-174zM1298 115h-339v137q78 151 267 433h226v-442h87v-128h-87v-115h-154v115zM1098 238h204v335h-3q-139 -214 -201 -332v-3zM229 1165h84q46 0 73 24q28 24 28 64q0 84 -103 84q-46 0 -76 -25q-29 -26 -31 -68h-147q2 98 74 156
q71 59 187 59q112 0 180 -50q68 -51 68 -134q0 -61 -39 -105q-38 -43 -103 -54v-4q78 -7 123 -51t45 -113q0 -93 -76 -149q-77 -57 -203 -57q-118 0 -191 59t-78 158h154q3 -41 35 -65q31 -24 82 -24q49 0 81 25q31 25 31 65q0 43 -30 67q-31 25 -84 25h-84v113z" />
    <glyph glyph-name="questiondown" unicode="&#xbf;" horiz-adv-x="1002" 
d="M945 32q-8 -171 -117 -276q-117 -113 -318 -113q-188 0 -307 104q-118 102 -118 260q0 216 209 343q94 56 129 107q33 49 33 129v65h175v-92q3 -183 -199 -304q-87 -54 -124 -107q-37 -54 -37 -132q0 -96 67 -156q68 -61 179 -61q112 0 181 63q68 62 76 170h171zM450 918
q-33 33 -33 81q0 49 33 81q33 33 81 33q49 0 81 -33q33 -32 33 -81q0 -48 -33 -81q-32 -33 -81 -33q-48 0 -81 33z" />
    <glyph glyph-name="Agrave" unicode="&#xc0;" horiz-adv-x="1292" 
d="M932 413h-574l-145 -413h-189l532 1443h178l532 -1443h-189zM411 566h468l-231 658h-6zM290 1849h198l231 -299h-148z" />
    <glyph glyph-name="Aacute" unicode="&#xc1;" horiz-adv-x="1292" 
d="M932 413h-574l-145 -413h-189l532 1443h178l532 -1443h-189zM411 566h468l-231 658h-6zM574 1550l231 299h198l-281 -299h-148z" />
    <glyph glyph-name="Acircumflex" unicode="&#xc2;" horiz-adv-x="1292" 
d="M932 413h-574l-145 -413h-189l532 1443h178l532 -1443h-189zM411 566h468l-231 658h-6zM716 1849l292 -299h-168l-194 201h-2l-194 -201h-168l292 299h142z" />
    <glyph glyph-name="Atilde" unicode="&#xc3;" horiz-adv-x="1292" 
d="M932 413h-574l-145 -413h-189l532 1443h178l532 -1443h-189zM411 566h468l-231 658h-6zM630 1611q-73 76 -106 76q-69 0 -69 -137h-114q0 118 47 184t131 66q77 0 151 -76t103 -76q62 0 62 138h114q0 -115 -48 -183t-128 -68q-71 0 -143 76z" />
    <glyph glyph-name="Adieresis" unicode="&#xc4;" horiz-adv-x="1292" 
d="M932 413h-574l-145 -413h-189l532 1443h178l532 -1443h-189zM411 566h468l-231 658h-6zM369 1618q-33 33 -33 79t33 79t79 33q47 0 79 -33q33 -32 33 -79q0 -46 -33 -79t-79 -33t-79 33zM763 1618q-33 33 -33 79t33 79t79 33q47 0 79 -33q33 -32 33 -79q0 -46 -33 -79
t-79 -33t-79 33z" />
    <glyph glyph-name="Aring" unicode="&#xc5;" horiz-adv-x="1292" 
d="M932 413h-574l-145 -413h-189l532 1443h178l532 -1443h-189zM411 566h468l-231 658h-6zM505 1566q-59 58 -59 140t59 140q58 59 140 59t140 -59q59 -58 59 -140t-59 -140q-58 -59 -140 -59t-140 59zM727 1624q34 34 34 82t-34 82t-82 34t-82 -34t-34 -82t34 -82t82 -34
t82 34z" />
    <glyph glyph-name="AE" unicode="&#xc6;" horiz-adv-x="1973" 
d="M480 612h482v680h-160zM962 459h-555l-217 -459h-185l687 1443h1144v-162h-694v-473h657v-160h-657v-486h694v-162h-874v459z" />
    <glyph glyph-name="Ccedilla" unicode="&#xc7;" horiz-adv-x="1405" 
d="M1150 988q-35 142 -148 227q-115 86 -269 86q-211 0 -338 -158t-127 -421q0 -266 126 -423t340 -157q159 0 268 73t148 205h182q-46 -200 -185 -314t-354 -128l-44 -120q209 0 209 -150q0 -76 -62 -126t-157 -51q-83 -1 -147 17v98q38 -15 122 -15q120 0 120 73
q0 66 -150 66h-55v74l51 134q-276 18 -436 217q-161 200 -161 527q0 340 177 542q177 203 473 203q236 0 400 -131q165 -132 199 -348h-182z" />
    <glyph glyph-name="Egrave" unicode="&#xc8;" horiz-adv-x="1131" 
d="M1033 0h-894v1443h894v-162h-714v-463h677v-160h-677v-496h714v-162zM231 1849h198l231 -299h-148z" />
    <glyph glyph-name="Eacute" unicode="&#xc9;" horiz-adv-x="1131" 
d="M1033 0h-894v1443h894v-162h-714v-463h677v-160h-677v-496h714v-162zM515 1550l231 299h198l-281 -299h-148z" />
    <glyph glyph-name="Ecircumflex" unicode="&#xca;" horiz-adv-x="1131" 
d="M1033 0h-894v1443h894v-162h-714v-463h677v-160h-677v-496h714v-162zM657 1849l292 -299h-168l-194 201h-2l-194 -201h-168l292 299h142z" />
    <glyph glyph-name="Edieresis" unicode="&#xcb;" horiz-adv-x="1131" 
d="M1033 0h-894v1443h894v-162h-714v-463h677v-160h-677v-496h714v-162zM310 1618q-33 33 -33 79t33 79t79 33q47 0 79 -33q33 -32 33 -79q0 -46 -33 -79t-79 -33t-79 33zM704 1618q-33 33 -33 79t33 79t79 33q47 0 79 -33q33 -32 33 -79q0 -46 -33 -79t-79 -33t-79 33z" />
    <glyph glyph-name="Igrave" unicode="&#xcc;" horiz-adv-x="460" 
d="M140 0v1443h180v-1443h-180zM-125 1849h198l231 -299h-148z" />
    <glyph glyph-name="Iacute" unicode="&#xcd;" horiz-adv-x="460" 
d="M139 0v1443h180v-1443h-180zM158 1550l231 299h198l-281 -299h-148z" />
    <glyph glyph-name="Icircumflex" unicode="&#xce;" horiz-adv-x="460" 
d="M140 0v1443h180v-1443h-180zM301 1849l292 -299h-168l-194 201h-2l-194 -201h-168l292 299h142z" />
    <glyph glyph-name="Idieresis" unicode="&#xcf;" horiz-adv-x="460" 
d="M140 0v1443h180v-1443h-180zM-46 1618q-33 33 -33 79t33 79t79 33q47 0 79 -33q33 -32 33 -79q0 -46 -33 -79t-79 -33t-79 33zM348 1618q-33 33 -33 79t33 79t79 33q47 0 79 -33q33 -32 33 -79q0 -46 -33 -79t-79 -33t-79 33z" />
    <glyph glyph-name="Eth" unicode="&#xd0;" horiz-adv-x="1452" 
d="M623 162q245 0 377 145q132 144 132 413q0 271 -131 416q-132 145 -378 145h-303v-455h277v-163h-277v-501h303zM635 1443q321 0 501 -190q180 -191 180 -531q0 -341 -180 -532q-179 -190 -501 -190h-495v663h-129v163h129v617h495z" />
    <glyph glyph-name="Ntilde" unicode="&#xd1;" horiz-adv-x="1432" 
d="M139 0v1443h175l790 -1133h9v1133h178v-1443h-175l-790 1129h-9v-1129h-178zM700 1611q-73 76 -106 76q-69 0 -69 -137h-114q0 118 47 184t131 66q77 0 151 -76t103 -76q62 0 62 138h114q0 -115 -48 -183t-128 -68q-71 0 -143 76z" />
    <glyph glyph-name="Ograve" unicode="&#xd2;" horiz-adv-x="1498" 
d="M1234 1266q179 -201 179 -545t-179 -544q-179 -201 -486 -201t-486 201q-179 200 -179 544t179 545t486 201t486 -201zM397 1145q-129 -157 -129 -424q0 -266 129 -423q130 -156 351 -156t351 156q129 157 129 423q0 267 -129 424q-130 156 -351 156t-351 -156zM393 1849
h198l231 -299h-148z" />
    <glyph glyph-name="Oacute" unicode="&#xd3;" horiz-adv-x="1498" 
d="M1234 1266q179 -201 179 -545t-179 -544q-179 -201 -486 -201t-486 201q-179 200 -179 544t179 545t486 201t486 -201zM397 1145q-129 -157 -129 -424q0 -266 129 -423q130 -156 351 -156t351 156q129 157 129 423q0 267 -129 424q-130 156 -351 156t-351 -156zM677 1550
l231 299h198l-281 -299h-148z" />
    <glyph glyph-name="Ocircumflex" unicode="&#xd4;" horiz-adv-x="1498" 
d="M1234 1266q179 -201 179 -545t-179 -544q-179 -201 -486 -201t-486 201q-179 200 -179 544t179 545t486 201t486 -201zM397 1145q-129 -157 -129 -424q0 -266 129 -423q130 -156 351 -156t351 156q129 157 129 423q0 267 -129 424q-130 156 -351 156t-351 -156zM819 1849
l292 -299h-168l-194 201h-2l-194 -201h-168l292 299h142z" />
    <glyph glyph-name="Otilde" unicode="&#xd5;" horiz-adv-x="1498" 
d="M1234 1266q179 -201 179 -545t-179 -544q-179 -201 -486 -201t-486 201q-179 200 -179 544t179 545t486 201t486 -201zM397 1145q-129 -157 -129 -424q0 -266 129 -423q130 -156 351 -156t351 156q129 157 129 423q0 267 -129 424q-130 156 -351 156t-351 -156zM733 1611
q-73 76 -106 76q-69 0 -69 -137h-114q0 118 47 184t131 66q77 0 151 -76t103 -76q62 0 62 138h114q0 -115 -48 -183t-128 -68q-71 0 -143 76z" />
    <glyph glyph-name="Odieresis" unicode="&#xd6;" horiz-adv-x="1498" 
d="M1234 1266q179 -201 179 -545t-179 -544q-179 -201 -486 -201t-486 201q-179 200 -179 544t179 545t486 201t486 -201zM397 1145q-129 -157 -129 -424q0 -266 129 -423q130 -156 351 -156t351 156q129 157 129 423q0 267 -129 424q-130 156 -351 156t-351 -156zM472 1618
q-33 33 -33 79t33 79t79 33q47 0 79 -33q33 -32 33 -79q0 -46 -33 -79t-79 -33t-79 33zM866 1618q-33 33 -33 79t33 79t79 33q47 0 79 -33q33 -32 33 -79q0 -46 -33 -79t-79 -33t-79 33z" />
    <glyph glyph-name="multiply" unicode="&#xd7;" horiz-adv-x="1239" 
d="M311 168l-104 104l307 308l-307 308l104 104l308 -307l307 307l104 -104l-306 -308l306 -308l-104 -104l-307 307z" />
    <glyph glyph-name="Oslash" unicode="&#xd8;" horiz-adv-x="1498" 
d="M469 230q116 -88 279 -88q221 0 351 156q129 157 129 423q0 227 -94 375zM1054 1191q-122 110 -306 110q-221 0 -351 -156q-129 -157 -129 -424q0 -249 113 -402zM1249 1247q164 -198 164 -526q0 -344 -179 -544q-179 -201 -486 -201q-226 0 -387 113l-104 -136l-100 76
l110 142q-184 203 -184 550q0 344 179 545t486 201q249 0 415 -134l120 155l98 -69z" />
    <glyph glyph-name="Ugrave" unicode="&#xd9;" horiz-adv-x="1426" 
d="M319 518q0 -167 103 -270q106 -106 290 -106t290 106q103 103 103 270v925h180v-937q0 -235 -152 -380q-157 -150 -421 -150t-421 150q-152 145 -152 380v937h180v-925zM357 1849h198l231 -299h-148z" />
    <glyph glyph-name="Uacute" unicode="&#xda;" horiz-adv-x="1426" 
d="M319 518q0 -167 103 -270q106 -106 290 -106t290 106q103 103 103 270v925h180v-937q0 -235 -152 -380q-157 -150 -421 -150t-421 150q-152 145 -152 380v937h180v-925zM641 1550l231 299h198l-281 -299h-148z" />
    <glyph glyph-name="Ucircumflex" unicode="&#xdb;" horiz-adv-x="1426" 
d="M319 518q0 -167 103 -270q106 -106 290 -106t290 106q103 103 103 270v925h180v-937q0 -235 -152 -380q-157 -150 -421 -150t-421 150q-152 145 -152 380v937h180v-925zM783 1849l292 -299h-168l-194 201h-2l-194 -201h-168l292 299h142z" />
    <glyph glyph-name="Udieresis" unicode="&#xdc;" horiz-adv-x="1426" 
d="M319 518q0 -167 103 -270q106 -106 290 -106t290 106q103 103 103 270v925h180v-937q0 -235 -152 -380q-157 -150 -421 -150t-421 150q-152 145 -152 380v937h180v-925zM436 1618q-33 33 -33 79t33 79t79 33q47 0 79 -33q33 -32 33 -79q0 -46 -33 -79t-79 -33t-79 33z
M830 1618q-33 33 -33 79t33 79t79 33q47 0 79 -33q33 -32 33 -79q0 -46 -33 -79t-79 -33t-79 33z" />
    <glyph glyph-name="Yacute" unicode="&#xdd;" horiz-adv-x="1254" 
d="M536 0v621l-512 822h205l394 -648h6l394 648h205l-512 -822v-621h-180zM555 1550l231 299h198l-281 -299h-148z" />
    <glyph glyph-name="Thorn" unicode="&#xde;" horiz-adv-x="1232" 
d="M339 1443v-266h373q174 0 294 -108q128 -117 128 -307t-129 -307q-121 -110 -295 -110h-371v-345h-180v1443h180zM339 505h322q130 0 206 64q82 68 82 193t-82 192q-76 63 -206 63h-322v-512z" />
    <glyph glyph-name="germandbls" unicode="&#xdf;" horiz-adv-x="1238" 
d="M181 0v1101q0 179 114 287q115 108 305 108q183 0 299 -105t116 -270q0 -127 -62 -220q-61 -93 -167 -126v-4q160 -22 248 -120q88 -97 88 -250q0 -188 -124 -301q-125 -114 -331 -114q-83 0 -144 13v153q54 -14 132 -14q135 0 216 72q80 72 80 193q0 130 -90 202
q-90 73 -250 73h-61v170h51q116 0 180 70q65 70 65 194q0 103 -67 167q-68 65 -176 65q-118 0 -184 -69q-67 -69 -67 -191v-1084h-171z" />
    <glyph glyph-name="agrave" unicode="&#xe0;" horiz-adv-x="1062" 
d="M688 217q86 77 86 193v87l-282 -18q-246 -15 -246 -173q0 -75 61 -120q60 -45 162 -45q132 0 219 76zM168 77q-100 87 -100 230q0 139 104 218q104 80 300 92l302 18v90q0 100 -64 154t-183 54q-94 0 -158 -45q-65 -45 -81 -121h-167q4 136 121 229q117 92 287 92
q191 0 305 -94q114 -95 114 -254v-740h-165v187h-4q-46 -90 -140 -143q-94 -54 -207 -54q-164 0 -264 87zM442 1250l-261 300h198l211 -300h-148z" />
    <glyph glyph-name="aacute" unicode="&#xe1;" horiz-adv-x="1062" 
d="M688 217q86 77 86 193v87l-282 -18q-246 -15 -246 -173q0 -75 61 -120q60 -45 162 -45q132 0 219 76zM168 77q-100 87 -100 230q0 139 104 218q104 80 300 92l302 18v90q0 100 -64 154t-183 54q-94 0 -158 -45q-65 -45 -81 -121h-167q4 136 121 229q117 92 287 92
q191 0 305 -94q114 -95 114 -254v-740h-165v187h-4q-46 -90 -140 -143q-94 -54 -207 -54q-164 0 -264 87zM451 1250l211 300h198l-261 -300h-148z" />
    <glyph glyph-name="acircumflex" unicode="&#xe2;" horiz-adv-x="1062" 
d="M688 217q86 77 86 193v87l-282 -18q-246 -15 -246 -173q0 -75 61 -120q60 -45 162 -45q132 0 219 76zM168 77q-100 87 -100 230q0 139 104 218q104 80 300 92l302 18v90q0 100 -64 154t-183 54q-94 0 -158 -45q-65 -45 -81 -121h-167q4 136 121 229q117 92 287 92
q191 0 305 -94q114 -95 114 -254v-740h-165v187h-4q-46 -90 -140 -143q-94 -54 -207 -54q-164 0 -264 87zM864 1250h-163l-173 197h-6l-173 -197h-163l277 300h124z" />
    <glyph glyph-name="atilde" unicode="&#xe3;" horiz-adv-x="1062" 
d="M688 217q86 77 86 193v87l-282 -18q-246 -15 -246 -173q0 -75 61 -120q60 -45 162 -45q132 0 219 76zM168 77q-100 87 -100 230q0 139 104 218q104 80 300 92l302 18v90q0 100 -64 154t-183 54q-94 0 -158 -45q-65 -45 -81 -121h-167q4 136 121 229q117 92 287 92
q191 0 305 -94q114 -95 114 -254v-740h-165v187h-4q-46 -90 -140 -143q-94 -54 -207 -54q-164 0 -264 87zM514 1334q-73 76 -106 76q-69 0 -69 -137h-114q0 118 47 184t131 66q77 0 151 -76t103 -76q62 0 62 138h114q0 -115 -48 -183t-128 -68q-71 0 -143 76z" />
    <glyph glyph-name="adieresis" unicode="&#xe4;" horiz-adv-x="1062" 
d="M688 217q86 77 86 193v87l-282 -18q-246 -15 -246 -173q0 -75 61 -120q60 -45 162 -45q132 0 219 76zM168 77q-100 87 -100 230q0 139 104 218q104 80 300 92l302 18v90q0 100 -64 154t-183 54q-94 0 -158 -45q-65 -45 -81 -121h-167q4 136 121 229q117 92 287 92
q191 0 305 -94q114 -95 114 -254v-740h-165v187h-4q-46 -90 -140 -143q-94 -54 -207 -54q-164 0 -264 87zM249 1294q-33 33 -33 79t33 79t79 33q47 0 79 -33q33 -32 33 -79q0 -46 -33 -79t-79 -33t-79 33zM643 1294q-33 33 -33 79t33 79t79 33q47 0 79 -33q33 -32 33 -79
q0 -46 -33 -79t-79 -33t-79 33z" />
    <glyph glyph-name="aring" unicode="&#xe5;" horiz-adv-x="1062" 
d="M688 217q86 77 86 193v87l-282 -18q-246 -15 -246 -173q0 -75 61 -120q60 -45 162 -45q132 0 219 76zM168 77q-100 87 -100 230q0 139 104 218q104 80 300 92l302 18v90q0 100 -64 154t-183 54q-94 0 -158 -45q-65 -45 -81 -121h-167q4 136 121 229q117 92 287 92
q191 0 305 -94q114 -95 114 -254v-740h-165v187h-4q-46 -90 -140 -143q-94 -54 -207 -54q-164 0 -264 87zM385 1243q-59 58 -59 140t59 140q58 59 140 59t140 -59q59 -58 59 -140t-59 -140q-58 -59 -140 -59t-140 59zM607 1301q34 34 34 82t-34 82t-82 34t-82 -34t-34 -82
t34 -82t82 -34t82 34z" />
    <glyph glyph-name="ae" unicode="&#xe6;" horiz-adv-x="1769" 
d="M872 213h-10q-134 -223 -406 -223q-178 0 -283 85t-105 228q0 140 104 220q105 81 298 91l303 15v77q0 100 -71 164q-70 63 -182 63q-105 0 -169 -45q-63 -44 -70 -121h-171q9 141 119 230q112 91 285 91q135 0 234 -56t138 -157h9q112 213 366 213q204 0 323 -143
q119 -142 119 -386v-67h-756v-11q0 -155 86 -246q85 -92 229 -92q97 0 165 44q67 43 91 121h172q-23 -141 -143 -229q-120 -89 -288 -89q-276 0 -387 223zM1038 852q-82 -84 -91 -222h575q-3 141 -77 223t-198 82q-127 0 -209 -83zM683 219q90 77 90 191v81l-285 -15
q-242 -12 -242 -170q0 -76 58 -120q58 -45 156 -45q132 0 223 78z" />
    <glyph glyph-name="ccedilla" unicode="&#xe7;" horiz-adv-x="1060" 
d="M1010 345q-20 -144 -124 -238q-104 -96 -262 -113l-50 -136q209 0 209 -150q0 -76 -62 -126t-157 -51q-83 -1 -147 17v98q38 -15 122 -15q120 0 120 73q0 66 -150 66h-55v74l57 148q-204 16 -325 161q-122 147 -122 386q0 248 135 399q135 150 357 150q191 0 318 -110
q117 -101 134 -251h-171q-17 91 -87 146q-76 60 -193 60q-142 0 -228 -108q-88 -108 -88 -286q0 -182 89 -289q86 -105 229 -105q234 0 280 200h171z" />
    <glyph glyph-name="egrave" unicode="&#xe8;" horiz-adv-x="1084" 
d="M337 851q-84 -84 -93 -221h593q-3 137 -83 221q-79 84 -207 84q-127 0 -210 -84zM1005 308q-22 -139 -148 -228q-126 -90 -299 -90q-227 0 -361 147q-133 147 -133 398t133 402t353 151q216 0 342 -142q126 -143 126 -387v-68h-774v-10q0 -154 87 -246t231 -92
q101 0 175 45q73 44 96 120h172zM467 1250l-261 300h198l211 -300h-148z" />
    <glyph glyph-name="eacute" unicode="&#xe9;" horiz-adv-x="1084" 
d="M337 851q-84 -84 -93 -221h593q-3 137 -83 221q-79 84 -207 84q-127 0 -210 -84zM1005 308q-22 -139 -148 -228q-126 -90 -299 -90q-227 0 -361 147q-133 147 -133 398t133 402t353 151q216 0 342 -142q126 -143 126 -387v-68h-774v-10q0 -154 87 -246t231 -92
q101 0 175 45q73 44 96 120h172zM476 1250l211 300h198l-261 -300h-148z" />
    <glyph glyph-name="ecircumflex" unicode="&#xea;" horiz-adv-x="1084" 
d="M337 851q-84 -84 -93 -221h593q-3 137 -83 221q-79 84 -207 84q-127 0 -210 -84zM1005 308q-22 -139 -148 -228q-126 -90 -299 -90q-227 0 -361 147q-133 147 -133 398t133 402t353 151q216 0 342 -142q126 -143 126 -387v-68h-774v-10q0 -154 87 -246t231 -92
q101 0 175 45q73 44 96 120h172zM889 1250h-163l-173 197h-6l-173 -197h-163l277 300h124z" />
    <glyph glyph-name="edieresis" unicode="&#xeb;" horiz-adv-x="1084" 
d="M337 851q-84 -84 -93 -221h593q-3 137 -83 221q-79 84 -207 84q-127 0 -210 -84zM1005 308q-22 -139 -148 -228q-126 -90 -299 -90q-227 0 -361 147q-133 147 -133 398t133 402t353 151q216 0 342 -142q126 -143 126 -387v-68h-774v-10q0 -154 87 -246t231 -92
q101 0 175 45q73 44 96 120h172zM274 1294q-33 33 -33 79t33 79t79 33q47 0 79 -33q33 -32 33 -79q0 -46 -33 -79t-79 -33t-79 33zM668 1294q-33 33 -33 79t33 79t79 33q47 0 79 -33q33 -32 33 -79q0 -46 -33 -79t-79 -33t-79 33z" />
    <glyph glyph-name="igrave" unicode="&#xec;" horiz-adv-x="430" 
d="M128 1078h174v-1078h-174v1078zM132 1250l-261 300h198l211 -300h-148z" />
    <glyph glyph-name="iacute" unicode="&#xed;" horiz-adv-x="430" 
d="M127 1078h174v-1078h-174v1078zM140 1250l211 300h198l-261 -300h-148z" />
    <glyph glyph-name="icircumflex" unicode="&#xee;" horiz-adv-x="430" 
d="M128 1078h174v-1078h-174v1078zM554 1250h-163l-173 197h-6l-173 -197h-163l277 300h124z" />
    <glyph glyph-name="idieresis" unicode="&#xef;" horiz-adv-x="430" 
d="M128 1078h174v-1078h-174v1078zM-61 1294q-33 33 -33 79t33 79t79 33q47 0 79 -33q33 -32 33 -79q0 -46 -33 -79t-79 -33t-79 33zM333 1294q-33 33 -33 79t33 79t79 33q47 0 79 -33q33 -32 33 -79q0 -46 -33 -79t-79 -33t-79 33z" />
    <glyph glyph-name="eth" unicode="&#xf0;" horiz-adv-x="1140" 
d="M215 125q-132 144 -132 394q0 245 128 392q128 146 343 146q92 0 179 -49t121 -120h15q-49 188 -182 351l-278 -90l-35 112l231 75q-62 73 -200 190h206q77 -65 145 -141l250 81l35 -112l-203 -64q221 -306 221 -719q0 -273 -130 -431q-130 -159 -353 -159
q-229 0 -361 144zM347 798q-86 -104 -86 -279t86 -279q85 -104 229 -104q145 0 231 104t86 279q0 173 -87 278t-230 105q-144 0 -229 -104z" />
    <glyph glyph-name="ntilde" unicode="&#xf1;" horiz-adv-x="1135" 
d="M117 1078h164v-175h4q103 185 352 185q178 0 281 -107q103 -106 103 -290v-691h-174v661q0 132 -67 202q-68 70 -195 70q-133 0 -213 -84q-81 -84 -81 -223v-626h-174v1078zM558 1334q-73 76 -106 76q-69 0 -69 -137h-114q0 118 47 184t131 66q77 0 151 -76t103 -76
q62 0 62 138h114q0 -115 -48 -183t-128 -68q-71 0 -143 76z" />
    <glyph glyph-name="ograve" unicode="&#xf2;" horiz-adv-x="1124" 
d="M199 139q-135 149 -135 400t135 400t362 149t362 -149t135 -400t-135 -400t-362 -149t-362 149zM796 249q85 105 85 290q0 186 -85 290q-84 104 -235 104t-235 -104q-85 -105 -85 -290t85 -290q85 -104 235 -104q151 0 235 104zM478 1250l-261 300h198l211 -300h-148z
" />
    <glyph glyph-name="oacute" unicode="&#xf3;" horiz-adv-x="1124" 
d="M199 139q-135 149 -135 400t135 400t362 149t362 -149t135 -400t-135 -400t-362 -149t-362 149zM796 249q85 105 85 290q0 186 -85 290q-84 104 -235 104t-235 -104q-85 -105 -85 -290t85 -290q85 -104 235 -104q151 0 235 104zM487 1250l211 300h198l-261 -300h-148z
" />
    <glyph glyph-name="ocircumflex" unicode="&#xf4;" horiz-adv-x="1124" 
d="M199 139q-135 149 -135 400t135 400t362 149t362 -149t135 -400t-135 -400t-362 -149t-362 149zM796 249q85 105 85 290q0 186 -85 290q-84 104 -235 104t-235 -104q-85 -105 -85 -290t85 -290q85 -104 235 -104q151 0 235 104zM900 1250h-163l-173 197h-6l-173 -197
h-163l277 300h124z" />
    <glyph glyph-name="otilde" unicode="&#xf5;" horiz-adv-x="1124" 
d="M199 139q-135 149 -135 400t135 400t362 149t362 -149t135 -400t-135 -400t-362 -149t-362 149zM796 249q85 105 85 290q0 186 -85 290q-84 104 -235 104t-235 -104q-85 -105 -85 -290t85 -290q85 -104 235 -104q151 0 235 104zM550 1334q-73 76 -106 76q-69 0 -69 -137
h-114q0 118 47 184t131 66q77 0 151 -76t103 -76q62 0 62 138h114q0 -115 -48 -183t-128 -68q-71 0 -143 76z" />
    <glyph glyph-name="odieresis" unicode="&#xf6;" horiz-adv-x="1124" 
d="M199 139q-135 149 -135 400t135 400t362 149t362 -149t135 -400t-135 -400t-362 -149t-362 149zM796 249q85 105 85 290q0 186 -85 290q-84 104 -235 104t-235 -104q-85 -105 -85 -290t85 -290q85 -104 235 -104q151 0 235 104zM285 1294q-33 33 -33 79t33 79t79 33
q47 0 79 -33q33 -32 33 -79q0 -46 -33 -79t-79 -33t-79 33zM679 1294q-33 33 -33 79t33 79t79 33q47 0 79 -33q33 -32 33 -79q0 -46 -33 -79t-79 -33t-79 33z" />
    <glyph glyph-name="divide" unicode="&#xf7;" horiz-adv-x="1239" 
d="M530 837q-36 35 -36 90q0 54 36 90q35 35 89 35q53 0 89 -35q36 -36 36 -90t-36 -90q-35 -35 -89 -35t-89 35zM530 123q-36 35 -36 90q0 54 36 90q35 35 89 35q53 0 89 -35q36 -36 36 -90t-36 -90q-35 -35 -89 -35t-89 35zM110 496v148h1017v-148h-1017z" />
    <glyph glyph-name="oslash" unicode="&#xf8;" horiz-adv-x="1124" 
d="M399 186q68 -41 162 -41q151 0 235 104q85 105 85 290q0 161 -65 263zM730 888q-70 45 -169 45q-151 0 -235 -104q-85 -105 -85 -290q0 -162 67 -266zM915 948q143 -151 143 -409q0 -251 -135 -400t-362 -149q-143 0 -253 62l-61 -89l-104 69l66 96q-145 150 -145 411
q0 251 135 400t362 149q148 0 260 -66l66 96l100 -64z" />
    <glyph glyph-name="ugrave" unicode="&#xf9;" horiz-adv-x="1135" 
d="M1016 0h-164v178h-4q-102 -188 -353 -188q-177 0 -280 107q-103 106 -103 290v691h174v-661q0 -132 68 -202q67 -70 194 -70q133 0 213 84q81 84 81 223v626h174v-1078zM481 1250l-261 300h198l211 -300h-148z" />
    <glyph glyph-name="uacute" unicode="&#xfa;" horiz-adv-x="1135" 
d="M1016 0h-164v178h-4q-102 -188 -353 -188q-177 0 -280 107q-103 106 -103 290v691h174v-661q0 -132 68 -202q67 -70 194 -70q133 0 213 84q81 84 81 223v626h174v-1078zM490 1250l211 300h198l-261 -300h-148z" />
    <glyph glyph-name="ucircumflex" unicode="&#xfb;" horiz-adv-x="1135" 
d="M1016 0h-164v178h-4q-102 -188 -353 -188q-177 0 -280 107q-103 106 -103 290v691h174v-661q0 -132 68 -202q67 -70 194 -70q133 0 213 84q81 84 81 223v626h174v-1078zM903 1250h-163l-173 197h-6l-173 -197h-163l277 300h124z" />
    <glyph glyph-name="udieresis" unicode="&#xfc;" horiz-adv-x="1135" 
d="M1016 0h-164v178h-4q-102 -188 -353 -188q-177 0 -280 107q-103 106 -103 290v691h174v-661q0 -132 68 -202q67 -70 194 -70q133 0 213 84q81 84 81 223v626h174v-1078zM288 1294q-33 33 -33 79t33 79t79 33q47 0 79 -33q33 -32 33 -79q0 -46 -33 -79t-79 -33t-79 33z
M682 1294q-33 33 -33 79t33 79t79 33q47 0 79 -33q33 -32 33 -79q0 -46 -33 -79t-79 -33t-79 33z" />
    <glyph glyph-name="yacute" unicode="&#xfd;" horiz-adv-x="1026" 
d="M133 -384v147q30 -6 71 -6q75 0 120 40q45 41 78 138l21 64l-399 1079h185l302 -901h4l302 901h183l-422 -1144q-69 -187 -147 -256q-79 -69 -222 -69q-39 0 -76 7zM439 1250l211 300h198l-261 -300h-148z" />
    <glyph glyph-name="thorn" unicode="&#xfe;" horiz-adv-x="1171" 
d="M982 945q123 -152 123 -406q0 -253 -124 -405q-124 -153 -329 -153q-246 0 -338 181h-15v-522h-172v1866h164v-608h16q52 93 143 146q92 53 202 53q206 0 330 -152zM843 243q84 107 84 296t-84 296q-83 107 -231 107q-146 0 -232 -108q-86 -109 -86 -295q0 -185 86 -294
q85 -109 231 -109q148 0 232 107z" />
    <glyph glyph-name="ydieresis" unicode="&#xff;" horiz-adv-x="1026" 
d="M133 -384v147q30 -6 71 -6q75 0 120 40q45 41 78 138l21 64l-399 1079h185l302 -901h4l302 901h183l-422 -1144q-69 -187 -147 -256q-79 -69 -222 -69q-39 0 -76 7zM237 1294q-33 33 -33 79t33 79t79 33q47 0 79 -33q33 -32 33 -79q0 -46 -33 -79t-79 -33t-79 33z
M631 1294q-33 33 -33 79t33 79t79 33q47 0 79 -33q33 -32 33 -79q0 -46 -33 -79t-79 -33t-79 33z" />
    <glyph glyph-name="Amacron" unicode="&#x100;" horiz-adv-x="1292" 
d="M932 413h-574l-145 -413h-189l532 1443h178l532 -1443h-189zM411 566h468l-231 658h-6zM962 1642h-634v106h634v-106z" />
    <glyph glyph-name="amacron" unicode="&#x101;" horiz-adv-x="1062" 
d="M688 217q86 77 86 193v87l-282 -18q-246 -15 -246 -173q0 -75 61 -120q60 -45 162 -45q132 0 219 76zM168 77q-100 87 -100 230q0 139 104 218q104 80 300 92l302 18v90q0 100 -64 154t-183 54q-94 0 -158 -45q-65 -45 -81 -121h-167q4 136 121 229q117 92 287 92
q191 0 305 -94q114 -95 114 -254v-740h-165v187h-4q-46 -90 -140 -143q-94 -54 -207 -54q-164 0 -264 87zM842 1320h-634v106h634v-106z" />
    <glyph glyph-name="Abreve" unicode="&#x102;" horiz-adv-x="1292" 
d="M932 413h-574l-145 -413h-189l532 1443h178l532 -1443h-189zM411 566h468l-231 658h-6zM454 1849q0 -83 55 -139q55 -57 136 -57t136 57q55 56 55 139h119q0 -132 -86 -215q-87 -84 -224 -84t-224 84q-86 83 -86 215h119z" />
    <glyph glyph-name="abreve" unicode="&#x103;" horiz-adv-x="1062" 
d="M688 217q86 77 86 193v87l-282 -18q-246 -15 -246 -173q0 -75 61 -120q60 -45 162 -45q132 0 219 76zM168 77q-100 87 -100 230q0 139 104 218q104 80 300 92l302 18v90q0 100 -64 154t-183 54q-94 0 -158 -45q-65 -45 -81 -121h-167q4 136 121 229q117 92 287 92
q191 0 305 -94q114 -95 114 -254v-740h-165v187h-4q-46 -90 -140 -143q-94 -54 -207 -54q-164 0 -264 87zM325 1550q0 -86 58 -144q57 -59 141 -59t142 59q57 58 57 144h123q0 -138 -89 -224q-90 -86 -233 -86t-233 86q-89 86 -89 224h123z" />
    <glyph glyph-name="Aogonek" unicode="&#x104;" horiz-adv-x="1292" 
d="M1001 -369q-66 63 -66 162q0 135 135 229l-138 391h-574l-145 -413h-189l532 1443h178l527 -1429q-164 -73 -164 -194q0 -52 33 -85q34 -33 87 -33q30 0 49 3v-126q-38 -11 -95 -11q-104 0 -170 63zM411 566h468l-226 644h-16z" />
    <glyph glyph-name="aogonek" unicode="&#x105;" horiz-adv-x="1062" 
d="M693 -373q-64 59 -64 156q0 146 154 240v164h-4q-46 -90 -140 -143q-94 -54 -207 -54q-164 0 -264 87t-100 230q0 139 104 218q104 80 300 92l302 18v90q0 100 -64 154t-183 54q-94 0 -158 -45q-65 -45 -81 -121h-167q4 136 121 229q117 92 287 92q191 0 305 -94
q114 -95 114 -254v-721q-162 -72 -162 -199q0 -54 32 -86q33 -32 86 -32q26 0 44 3v-126q-39 -11 -88 -11q-104 0 -167 59zM688 217q86 77 86 193v87l-282 -18q-246 -15 -246 -173q0 -75 61 -120q60 -45 162 -45q132 0 219 76z" />
    <glyph glyph-name="Cacute" unicode="&#x106;" horiz-adv-x="1405" 
d="M259 178q-176 201 -176 544q0 340 177 542q177 203 473 203q236 0 400 -131q165 -132 199 -348h-182q-35 142 -148 227q-115 86 -269 86q-211 0 -338 -158t-127 -421q0 -266 126 -423t340 -157q159 0 268 73t148 205h182q-50 -214 -205 -329t-394 -115q-299 0 -474 202z
M662 1552l231 299h198l-281 -299h-148z" />
    <glyph glyph-name="cacute" unicode="&#x107;" horiz-adv-x="1060" 
d="M837 727q-17 91 -87 146q-76 60 -193 60q-142 0 -228 -108q-88 -108 -88 -286q0 -182 89 -289q86 -105 229 -105q234 0 280 200h171q-22 -159 -145 -256q-124 -99 -307 -99q-224 0 -358 147q-136 150 -136 402q0 248 135 399q135 150 357 150q191 0 318 -110
q117 -101 134 -251h-171zM482 1250l211 300h198l-261 -300h-148z" />
    <glyph glyph-name="Ccircumflex" unicode="&#x108;" horiz-adv-x="1405" 
d="M259 178q-176 201 -176 544q0 340 177 542q177 203 473 203q236 0 400 -131q165 -132 199 -348h-182q-35 142 -148 227q-115 86 -269 86q-211 0 -338 -158t-127 -421q0 -266 126 -423t340 -157q159 0 268 73t148 205h182q-50 -214 -205 -329t-394 -115q-299 0 -474 202z
M804 1851l292 -299h-168l-194 201h-2l-194 -201h-168l292 299h142z" />
    <glyph glyph-name="ccircumflex" unicode="&#x109;" horiz-adv-x="1060" 
d="M837 727q-17 91 -87 146q-76 60 -193 60q-142 0 -228 -108q-88 -108 -88 -286q0 -182 89 -289q86 -105 229 -105q234 0 280 200h171q-22 -159 -145 -256q-124 -99 -307 -99q-224 0 -358 147q-136 150 -136 402q0 248 135 399q135 150 357 150q191 0 318 -110
q117 -101 134 -251h-171zM895 1250h-163l-173 197h-6l-173 -197h-163l277 300h124z" />
    <glyph glyph-name="Cdotaccent" unicode="&#x10a;" horiz-adv-x="1405" 
d="M259 178q-176 201 -176 544q0 340 177 542q177 203 473 203q236 0 400 -131q165 -132 199 -348h-182q-35 142 -148 227q-115 86 -269 86q-211 0 -338 -158t-127 -421q0 -266 126 -423t340 -157q159 0 268 73t148 205h182q-50 -214 -205 -329t-394 -115q-299 0 -474 202z
M647 1622q-35 36 -35 86t35 86q36 35 86 35t86 -35q35 -36 35 -86t-35 -86q-36 -35 -86 -35t-86 35z" />
    <glyph glyph-name="cdotaccent" unicode="&#x10b;" horiz-adv-x="1060" 
d="M837 727q-17 91 -87 146q-76 60 -193 60q-142 0 -228 -108q-88 -108 -88 -286q0 -182 89 -289q86 -105 229 -105q234 0 280 200h171q-22 -159 -145 -256q-124 -99 -307 -99q-224 0 -358 147q-136 150 -136 402q0 248 135 399q135 150 357 150q191 0 318 -110
q117 -101 134 -251h-171zM469 1298q-37 36 -37 87t37 88q36 36 87 36t88 -36q36 -37 36 -88t-36 -87q-37 -37 -88 -37t-87 37z" />
    <glyph glyph-name="Ccaron" unicode="&#x10c;" horiz-adv-x="1405" 
d="M259 178q-176 201 -176 544q0 340 177 542q177 203 473 203q236 0 400 -131q165 -132 199 -348h-182q-35 142 -148 227q-115 86 -269 86q-211 0 -338 -158t-127 -421q0 -266 126 -423t340 -157q159 0 268 73t148 205h182q-50 -214 -205 -329t-394 -115q-299 0 -474 202z
M370 1851h168l194 -201h2l194 201h168l-292 -299h-142z" />
    <glyph glyph-name="ccaron" unicode="&#x10d;" horiz-adv-x="1060" 
d="M837 727q-17 91 -87 146q-76 60 -193 60q-142 0 -228 -108q-88 -108 -88 -286q0 -182 89 -289q86 -105 229 -105q234 0 280 200h171q-22 -159 -145 -256q-124 -99 -307 -99q-224 0 -358 147q-136 150 -136 402q0 248 135 399q135 150 357 150q191 0 318 -110
q117 -101 134 -251h-171zM494 1250l-277 300h163l173 -197h6l173 197h163l-277 -300h-124z" />
    <glyph glyph-name="Dcaron" unicode="&#x10e;" horiz-adv-x="1399" 
d="M634 1443q321 0 501 -190q180 -191 180 -531q0 -341 -180 -532q-179 -190 -501 -190h-495v1443h495zM319 162h303q245 0 377 145q132 144 132 413q0 271 -131 416q-132 145 -378 145h-303v-1119zM186 1849h168l194 -201h2l194 201h168l-292 -299h-142z" />
    <glyph glyph-name="dcaron" unicode="&#x10f;" horiz-adv-x="1307" 
d="M1335 1506l-30 -488h-110v488h140zM193 141q-129 152 -129 398q0 245 129 398q127 151 329 151q241 0 344 -185h4v603h174v-1506h-166v182h-3q-108 -192 -349 -192q-204 0 -333 151zM329 825q-87 -108 -87 -286q0 -179 87 -287q86 -107 228 -107q140 0 227 109t87 285
t-87 285t-227 109q-142 0 -228 -108z" />
    <glyph glyph-name="Dcroat" unicode="&#x110;" horiz-adv-x="1531" 
d="M701 162q245 0 377 145q132 144 132 413q0 271 -131 416q-132 145 -378 145h-303v-455h277v-163h-277v-501h303zM713 1443q321 0 501 -190q180 -191 180 -531q0 -341 -180 -532q-179 -190 -501 -190h-495v663h-129v163h129v617h495z" />
    <glyph glyph-name="dcroat" unicode="&#x111;" horiz-adv-x="1210" 
d="M808 244q85 108 85 295q0 185 -85 294q-86 109 -232 109q-147 0 -231 -107t-84 -296t84 -296t231 -107t232 108zM1185 1287h-124v-1287h-164v172h-16q-108 -191 -345 -191q-207 0 -330 152t-123 406q0 253 124 406q123 152 329 152q113 0 204 -51q89 -50 134 -138h15v379
h-260v124h260v153h172v-153h124v-124z" />
    <glyph glyph-name="Emacron" unicode="&#x112;" horiz-adv-x="1131" 
d="M1033 0h-894v1443h894v-162h-714v-463h677v-160h-677v-496h714v-162zM903 1642h-634v106h634v-106z" />
    <glyph glyph-name="emacron" unicode="&#x113;" horiz-adv-x="1084" 
d="M337 851q-84 -84 -93 -221h593q-3 137 -83 221q-79 84 -207 84q-127 0 -210 -84zM1005 308q-22 -139 -148 -228q-126 -90 -299 -90q-227 0 -361 147q-133 147 -133 398t133 402t353 151q216 0 342 -142q126 -143 126 -387v-68h-774v-10q0 -154 87 -246t231 -92
q101 0 175 45q73 44 96 120h172zM867 1320h-634v106h634v-106z" />
    <glyph glyph-name="Ebreve" unicode="&#x114;" horiz-adv-x="1131" 
d="M1033 0h-894v1443h894v-162h-714v-463h677v-160h-677v-496h714v-162zM395 1849q0 -83 55 -139q55 -57 136 -57t136 57q55 56 55 139h119q0 -132 -86 -215q-87 -84 -224 -84t-224 84q-86 83 -86 215h119z" />
    <glyph glyph-name="ebreve" unicode="&#x115;" horiz-adv-x="1084" 
d="M337 851q-84 -84 -93 -221h593q-3 137 -83 221q-79 84 -207 84q-127 0 -210 -84zM1005 308q-22 -139 -148 -228q-126 -90 -299 -90q-227 0 -361 147q-133 147 -133 398t133 402t353 151q216 0 342 -142q126 -143 126 -387v-68h-774v-10q0 -154 87 -246t231 -92
q101 0 175 45q73 44 96 120h172zM350 1550q0 -86 58 -144q57 -59 141 -59t142 59q57 58 57 144h123q0 -138 -89 -224q-90 -86 -233 -86t-233 86q-89 86 -89 224h123z" />
    <glyph glyph-name="Edotaccent" unicode="&#x116;" horiz-adv-x="1131" 
d="M1033 0h-894v1443h894v-162h-714v-463h677v-160h-677v-496h714v-162zM500 1620q-35 36 -35 86t35 86q36 35 86 35t86 -35q35 -36 35 -86t-35 -86q-36 -35 -86 -35t-86 35z" />
    <glyph glyph-name="edotaccent" unicode="&#x117;" horiz-adv-x="1084" 
d="M337 851q-84 -84 -93 -221h593q-3 137 -83 221q-79 84 -207 84q-127 0 -210 -84zM1005 308q-22 -139 -148 -228q-126 -90 -299 -90q-227 0 -361 147q-133 147 -133 398t133 402t353 151q216 0 342 -142q126 -143 126 -387v-68h-774v-10q0 -154 87 -246t231 -92
q101 0 175 45q73 44 96 120h172zM463 1298q-37 36 -37 87t37 88q36 36 87 36t88 -36q36 -37 36 -88t-36 -87q-37 -37 -88 -37t-87 37z" />
    <glyph glyph-name="Eogonek" unicode="&#x118;" horiz-adv-x="1131" 
d="M139 0v1443h894v-162h-714v-463h677v-160h-677v-496h714v-124q-197 -89 -197 -224q0 -50 34 -81q33 -31 88 -31q51 0 75 9v-123q-33 -20 -121 -20q-109 0 -175 59q-66 58 -66 155q0 123 122 218h-654z" />
    <glyph glyph-name="eogonek" unicode="&#x119;" horiz-adv-x="1084" 
d="M593 -370q-64 62 -64 155q0 107 100 206v3q-25 -4 -71 -4q-227 0 -361 147q-133 147 -133 398t133 402t353 151q216 0 342 -142q126 -143 126 -387v-68h-774v-10q0 -154 87 -246t231 -92q101 0 175 45q73 44 96 120h172q-19 -126 -180 -267q-139 -122 -139 -223
q0 -47 32 -78q33 -30 83 -30q48 0 75 9v-131q-32 -20 -121 -20q-97 0 -162 62zM337 851q-84 -84 -93 -221h593q-3 137 -83 221q-79 84 -207 84q-127 0 -210 -84z" />
    <glyph glyph-name="Ecaron" unicode="&#x11a;" horiz-adv-x="1131" 
d="M1033 0h-894v1443h894v-162h-714v-463h677v-160h-677v-496h714v-162zM223 1849h168l194 -201h2l194 201h168l-292 -299h-142z" />
    <glyph glyph-name="ecaron" unicode="&#x11b;" horiz-adv-x="1084" 
d="M337 851q-84 -84 -93 -221h593q-3 137 -83 221q-79 84 -207 84q-127 0 -210 -84zM1005 308q-22 -139 -148 -228q-126 -90 -299 -90q-227 0 -361 147q-133 147 -133 398t133 402t353 151q216 0 342 -142q126 -143 126 -387v-68h-774v-10q0 -154 87 -246t231 -92
q101 0 175 45q73 44 96 120h172zM488 1250l-277 300h163l173 -197h6l173 197h163l-277 -300h-124z" />
    <glyph glyph-name="Gcircumflex" unicode="&#x11c;" horiz-adv-x="1447" 
d="M1356 597q0 -293 -162 -457q-161 -164 -450 -164q-302 0 -482 204q-179 205 -179 549q0 338 179 538t482 200q234 0 398 -128q165 -129 205 -344h-189q-45 146 -153 226q-109 80 -261 80q-223 0 -349 -152q-127 -151 -127 -419q0 -272 128 -430t348 -158q192 0 312 113
q120 114 120 295v26h-407v158h587v-137zM815 1849l292 -299h-168l-194 201h-2l-194 -201h-168l292 299h142z" />
    <glyph glyph-name="gcircumflex" unicode="&#x11d;" horiz-adv-x="1163" 
d="M782 262q88 108 88 281q0 174 -88 282q-87 108 -229 108q-141 0 -226 -106q-85 -107 -85 -284q0 -176 85 -282t226 -106q142 0 229 107zM251 -304q-122 82 -141 216h181q19 -67 94 -107q74 -39 181 -39q140 0 222 68q82 67 82 182v169h-4q-108 -185 -346 -185
q-205 0 -330 149q-126 150 -126 394q0 247 126 396t334 149q238 0 351 -185h3v175h166v-1048q0 -193 -130 -304q-131 -111 -358 -111q-183 0 -305 81zM893 1250h-163l-173 197h-6l-173 -197h-163l277 300h124z" />
    <glyph glyph-name="Gbreve" unicode="&#x11e;" horiz-adv-x="1447" 
d="M1356 597q0 -293 -162 -457q-161 -164 -450 -164q-302 0 -482 204q-179 205 -179 549q0 338 179 538t482 200q234 0 398 -128q165 -129 205 -344h-189q-45 146 -153 226q-109 80 -261 80q-223 0 -349 -152q-127 -151 -127 -419q0 -272 128 -430t348 -158q192 0 312 113
q120 114 120 295v26h-407v158h587v-137zM553 1849q0 -83 55 -139q55 -57 136 -57t136 57q55 56 55 139h119q0 -132 -86 -215q-87 -84 -224 -84t-224 84q-86 83 -86 215h119z" />
    <glyph glyph-name="gbreve" unicode="&#x11f;" horiz-adv-x="1163" 
d="M782 262q88 108 88 281q0 174 -88 282q-87 108 -229 108q-141 0 -226 -106q-85 -107 -85 -284q0 -176 85 -282t226 -106q142 0 229 107zM251 -304q-122 82 -141 216h181q19 -67 94 -107q74 -39 181 -39q140 0 222 68q82 67 82 182v169h-4q-108 -185 -346 -185
q-205 0 -330 149q-126 150 -126 394q0 247 126 396t334 149q238 0 351 -185h3v175h166v-1048q0 -193 -130 -304q-131 -111 -358 -111q-183 0 -305 81zM354 1550q0 -86 58 -144q57 -59 141 -59t142 59q57 58 57 144h123q0 -138 -89 -224q-90 -86 -233 -86t-233 86
q-89 86 -89 224h123z" />
    <glyph glyph-name="Gdotaccent" unicode="&#x120;" horiz-adv-x="1447" 
d="M1356 597q0 -293 -162 -457q-161 -164 -450 -164q-302 0 -482 204q-179 205 -179 549q0 338 179 538t482 200q234 0 398 -128q165 -129 205 -344h-189q-45 146 -153 226q-109 80 -261 80q-223 0 -349 -152q-127 -151 -127 -419q0 -272 128 -430t348 -158q192 0 312 113
q120 114 120 295v26h-407v158h587v-137zM658 1620q-35 36 -35 86t35 86q36 35 86 35t86 -35q35 -36 35 -86t-35 -86q-36 -35 -86 -35t-86 35z" />
    <glyph glyph-name="gdotaccent" unicode="&#x121;" horiz-adv-x="1163" 
d="M782 262q88 108 88 281q0 174 -88 282q-87 108 -229 108q-141 0 -226 -106q-85 -107 -85 -284q0 -176 85 -282t226 -106q142 0 229 107zM251 -304q-122 82 -141 216h181q19 -67 94 -107q74 -39 181 -39q140 0 222 68q82 67 82 182v169h-4q-108 -185 -346 -185
q-205 0 -330 149q-126 150 -126 394q0 247 126 396t334 149q238 0 351 -185h3v175h166v-1048q0 -193 -130 -304q-131 -111 -358 -111q-183 0 -305 81zM467 1298q-37 36 -37 87t37 88q36 36 87 36t88 -36q36 -37 36 -88t-36 -87q-37 -37 -88 -37t-87 37z" />
    <glyph glyph-name="uni0122" unicode="&#x122;" horiz-adv-x="1447" 
d="M1356 597q0 -293 -162 -457q-161 -164 -450 -164q-302 0 -482 204q-179 205 -179 549q0 338 179 538t482 200q234 0 398 -128q165 -129 205 -344h-189q-45 146 -153 226q-109 80 -261 80q-223 0 -349 -152q-127 -151 -127 -419q0 -272 128 -430t348 -158q192 0 312 113
q120 114 120 295v26h-407v158h587v-137zM603 -541l91 369h153l-118 -369h-126z" />
    <glyph glyph-name="uni0123" unicode="&#x123;" horiz-adv-x="1163" 
d="M782 262q88 108 88 281q0 174 -88 282q-87 108 -229 108q-141 0 -226 -106q-85 -107 -85 -284q0 -176 85 -282t226 -106q142 0 229 107zM251 -304q-122 82 -141 216h181q19 -67 94 -107q74 -39 181 -39q140 0 222 68q82 67 82 182v169h-4q-108 -185 -346 -185
q-205 0 -330 149q-126 150 -126 394q0 247 126 396t334 149q238 0 351 -185h3v175h166v-1048q0 -193 -130 -304q-131 -111 -358 -111q-183 0 -305 81zM415 -908l91 369h153l-118 -369h-126z" />
    <glyph glyph-name="Hcircumflex" unicode="&#x124;" horiz-adv-x="1432" 
d="M1111 0v657h-792v-657h-180v1443h180v-624h792v624h180v-1443h-180zM786 1849l292 -299h-168l-194 201h-2l-194 -201h-168l292 299h142z" />
    <glyph glyph-name="hcircumflex" unicode="&#x125;" horiz-adv-x="1166" 
d="M128 1506h174v-603h4q102 185 352 185q177 0 286 -110t109 -290v-688h-174v657q0 129 -72 203q-73 73 -201 73q-137 0 -220 -86q-84 -86 -84 -227v-620h-174v1506zM287 1912l292 -299h-168l-194 201h-2l-194 -201h-168l292 299h142z" />
    <glyph glyph-name="Hbar" unicode="&#x126;" horiz-adv-x="1433" 
d="M1112 1075h-792v-256h792v256zM1428 1075h-136v-1075h-180v657h-792v-657h-180v1075h-135v143h135v225h180v-225h792v225h180v-225h136v-143z" />
    <glyph glyph-name="hbar" unicode="&#x127;" horiz-adv-x="1204" 
d="M323 903q102 185 352 185q177 0 286 -110t109 -290v-688h-174v657q0 129 -72 203q-73 73 -201 73q-137 0 -220 -86q-84 -86 -84 -227v-620h-174v1247h-122v124h122v185h174v-185h260v-124h-260v-344h4z" />
    <glyph glyph-name="Itilde" unicode="&#x128;" horiz-adv-x="460" 
d="M140 0v1443h180v-1443h-180zM215 1611q-73 76 -106 76q-69 0 -69 -137h-114q0 118 47 184t131 66q77 0 151 -76t103 -76q62 0 62 138h114q0 -115 -48 -183t-128 -68q-71 0 -143 76z" />
    <glyph glyph-name="itilde" unicode="&#x129;" horiz-adv-x="430" 
d="M128 1078h174v-1078h-174v1078zM204 1334q-73 76 -106 76q-69 0 -69 -137h-114q0 118 47 184t131 66q77 0 151 -76t103 -76q62 0 62 138h114q0 -115 -48 -183t-128 -68q-71 0 -143 76z" />
    <glyph glyph-name="Imacron" unicode="&#x12a;" horiz-adv-x="460" 
d="M140 0v1443h180v-1443h-180zM547 1642h-634v106h634v-106z" />
    <glyph glyph-name="imacron" unicode="&#x12b;" horiz-adv-x="430" 
d="M128 1078h174v-1078h-174v1078zM532 1320h-634v106h634v-106z" />
    <glyph glyph-name="Ibreve" unicode="&#x12c;" horiz-adv-x="460" 
d="M140 0v1443h180v-1443h-180zM39 1849q0 -83 55 -139q55 -57 136 -57t136 57q55 56 55 139h119q0 -132 -86 -215q-87 -84 -224 -84t-224 84q-86 83 -86 215h119z" />
    <glyph glyph-name="ibreve" unicode="&#x12d;" horiz-adv-x="430" 
d="M128 1078h174v-1078h-174v1078zM15 1550q0 -86 58 -144q57 -59 141 -59t142 59q57 58 57 144h123q0 -138 -89 -224q-90 -86 -233 -86t-233 86q-89 86 -89 224h123z" />
    <glyph glyph-name="Iogonek" unicode="&#x12e;" horiz-adv-x="460" 
d="M61 -373q-64 59 -64 156q0 142 143 240v1420h180v-1430q-166 -74 -166 -193q0 -54 32 -86q33 -32 86 -32q26 0 44 3v-126q-42 -11 -88 -11q-104 0 -167 59z" />
    <glyph glyph-name="iogonek" unicode="&#x12f;" horiz-adv-x="430" 
d="M138 1285q-33 32 -33 77q0 46 33 78q32 32 77 32q46 0 78 -32t32 -78q0 -45 -32 -77q-32 -33 -78 -33q-45 0 -77 33zM46 -373q-64 59 -64 156q0 152 146 240v1055h174v-1059q-163 -73 -163 -199q0 -54 32 -86q33 -32 86 -32q26 0 44 3v-126q-41 -11 -88 -11
q-104 0 -167 59z" />
    <glyph glyph-name="Idotaccent" unicode="&#x130;" horiz-adv-x="460" 
d="M139 0v1443h180v-1443h-180zM143 1620q-35 36 -35 86t35 86q36 35 86 35t86 -35q35 -36 35 -86t-35 -86q-36 -35 -86 -35t-86 35z" />
    <glyph glyph-name="dotlessi" unicode="&#x131;" horiz-adv-x="430" 
d="M127 1078h174v-1078h-174v1078z" />
    <glyph glyph-name="IJ" unicode="&#x132;" horiz-adv-x="1474" 
d="M139 0v1443h180v-1443h-180zM680 339q3 -92 66 -149q64 -58 162 -58q119 0 182 70q63 69 63 201v1040h180v-1041q0 -205 -112 -321q-112 -115 -312 -115q-180 0 -294 104q-114 105 -114 269h179z" />
    <glyph glyph-name="ij" unicode="&#x133;" horiz-adv-x="860" 
d="M127 1078h174v-1078h-174v1078zM137 1285q-33 32 -33 77q0 46 33 78q32 32 77 32q46 0 78 -32t32 -78q0 -45 -32 -77q-32 -33 -78 -33q-45 0 -77 33zM731 -81q0 -164 -80 -241q-79 -76 -251 -76h-31v147h27q88 0 125 38q36 37 36 129v1162h174v-1159zM567 1285
q-33 32 -33 77q0 46 33 78q32 32 77 32q46 0 78 -32t32 -78q0 -45 -32 -77q-32 -33 -78 -33q-45 0 -77 33z" />
    <glyph glyph-name="Jcircumflex" unicode="&#x134;" horiz-adv-x="1014" 
d="M220 339q3 -92 66 -149q64 -58 162 -58q119 0 182 70q63 69 63 201v1040h180v-1041q0 -205 -112 -321q-112 -115 -312 -115q-180 0 -294 104q-114 105 -114 269h179zM854 1849l292 -299h-168l-194 201h-2l-194 -201h-168l292 299h142z" />
    <glyph glyph-name="jcircumflex" unicode="&#x135;" horiz-adv-x="428" 
d="M300 -81q0 -165 -79 -241t-251 -76h-30v147h26q89 0 126 38q36 37 36 129v1162h172v-1159zM553 1250h-163l-173 197h-6l-173 -197h-163l277 300h124z" />
    <glyph glyph-name="uni0136" unicode="&#x136;" horiz-adv-x="1260" 
d="M139 0v1443h180v-704h10l637 704h227l-593 -639l646 -804h-230l-541 676l-156 -172v-504h-180zM467 -541l91 369h153l-118 -369h-126z" />
    <glyph glyph-name="uni0137" unicode="&#x137;" horiz-adv-x="1026" 
d="M784 1078h212l-471 -466l485 -612h-202l-405 505l-102 -96v-409h-174v1506h174v-910zM414 -541l91 369h153l-118 -369h-126z" />
    <glyph glyph-name="Lacute" unicode="&#x139;" horiz-adv-x="1074" 
d="M1015 0h-876v1443h180v-1281h696v-162zM158 1550l231 299h198l-281 -299h-148z" />
    <glyph glyph-name="lacute" unicode="&#x13a;" horiz-adv-x="430" 
d="M127 1506h174v-1506h-174v1506zM143 1613l231 299h198l-281 -299h-148z" />
    <glyph glyph-name="uni013B" unicode="&#x13b;" horiz-adv-x="1074" 
d="M1015 0h-876v1443h180v-1281h696v-162zM436 -541l91 369h153l-118 -369h-126z" />
    <glyph glyph-name="uni013C" unicode="&#x13c;" horiz-adv-x="430" 
d="M127 1506h174v-1506h-174v1506zM73 -541l91 369h153l-118 -369h-126z" />
    <glyph glyph-name="Lcaron" unicode="&#x13d;" horiz-adv-x="1074" 
d="M758 1443l-50 -488h-120v488h170zM1015 0h-876v1443h180v-1281h696v-162z" />
    <glyph glyph-name="lcaron" unicode="&#x13e;" horiz-adv-x="565" 
d="M592 1506l-30 -488h-110v488h140zM127 1506h174v-1506h-174v1506z" />
    <glyph glyph-name="Lslash" unicode="&#x141;" horiz-adv-x="1074" 
d="M1015 162v-162h-876v699l-122 -56v143l122 56v601h180v-519l336 153v-143l-336 -153v-619h696z" />
    <glyph glyph-name="lslash" unicode="&#x142;" horiz-adv-x="468" 
d="M443 851l-142 -68v-783h-174v700l-112 -54v143l112 54v663h174v-580l142 68v-143z" />
    <glyph glyph-name="Nacute" unicode="&#x143;" horiz-adv-x="1432" 
d="M139 0v1443h175l790 -1133h9v1133h178v-1443h-175l-790 1129h-9v-1129h-178zM644 1550l231 299h198l-281 -299h-148z" />
    <glyph glyph-name="nacute" unicode="&#x144;" horiz-adv-x="1135" 
d="M117 1078h164v-175h4q103 185 352 185q178 0 281 -107q103 -106 103 -290v-691h-174v661q0 132 -67 202q-68 70 -195 70q-133 0 -213 -84q-81 -84 -81 -223v-626h-174v1078zM495 1250l211 300h198l-261 -300h-148z" />
    <glyph glyph-name="uni0145" unicode="&#x145;" horiz-adv-x="1432" 
d="M139 0v1443h175l790 -1133h9v1133h178v-1443h-175l-790 1129h-9v-1129h-178zM574 -541l91 369h153l-118 -369h-126z" />
    <glyph glyph-name="uni0146" unicode="&#x146;" horiz-adv-x="1135" 
d="M117 1078h164v-175h4q103 185 352 185q178 0 281 -107q103 -106 103 -290v-691h-174v661q0 132 -67 202q-68 70 -195 70q-133 0 -213 -84q-81 -84 -81 -223v-626h-174v1078zM428 -541l91 369h153l-118 -369h-126z" />
    <glyph glyph-name="Ncaron" unicode="&#x147;" horiz-adv-x="1432" 
d="M139 0v1443h175l790 -1133h9v1133h178v-1443h-175l-790 1129h-9v-1129h-178zM352 1849h168l194 -201h2l194 201h168l-292 -299h-142z" />
    <glyph glyph-name="ncaron" unicode="&#x148;" horiz-adv-x="1135" 
d="M117 1078h164v-175h4q103 185 352 185q178 0 281 -107q103 -106 103 -290v-691h-174v661q0 132 -67 202q-68 70 -195 70q-133 0 -213 -84q-81 -84 -81 -223v-626h-174v1078zM507 1250l-277 300h163l173 -197h6l173 197h163l-277 -300h-124z" />
    <glyph glyph-name="Omacron" unicode="&#x14c;" horiz-adv-x="1498" 
d="M1234 1266q179 -201 179 -545t-179 -544q-179 -201 -486 -201t-486 201q-179 200 -179 544t179 545t486 201t486 -201zM397 1145q-129 -157 -129 -424q0 -266 129 -423q130 -156 351 -156t351 156q129 157 129 423q0 267 -129 424q-130 156 -351 156t-351 -156z
M1065 1642h-634v106h634v-106z" />
    <glyph glyph-name="omacron" unicode="&#x14d;" horiz-adv-x="1124" 
d="M199 139q-135 149 -135 400t135 400t362 149t362 -149t135 -400t-135 -400t-362 -149t-362 149zM796 249q85 105 85 290q0 186 -85 290q-84 104 -235 104t-235 -104q-85 -105 -85 -290t85 -290q85 -104 235 -104q151 0 235 104zM878 1320h-634v106h634v-106z" />
    <glyph glyph-name="Obreve" unicode="&#x14e;" horiz-adv-x="1498" 
d="M1234 1266q179 -201 179 -545t-179 -544q-179 -201 -486 -201t-486 201q-179 200 -179 544t179 545t486 201t486 -201zM397 1145q-129 -157 -129 -424q0 -266 129 -423q130 -156 351 -156t351 156q129 157 129 423q0 267 -129 424q-130 156 -351 156t-351 -156zM557 1849
q0 -83 55 -139q55 -57 136 -57t136 57q55 56 55 139h119q0 -132 -86 -215q-87 -84 -224 -84t-224 84q-86 83 -86 215h119z" />
    <glyph glyph-name="obreve" unicode="&#x14f;" horiz-adv-x="1124" 
d="M199 139q-135 149 -135 400t135 400t362 149t362 -149t135 -400t-135 -400t-362 -149t-362 149zM796 249q85 105 85 290q0 186 -85 290q-84 104 -235 104t-235 -104q-85 -105 -85 -290t85 -290q85 -104 235 -104q151 0 235 104zM361 1550q0 -86 58 -144q57 -59 141 -59
t142 59q57 58 57 144h123q0 -138 -89 -224q-90 -86 -233 -86t-233 86q-89 86 -89 224h123z" />
    <glyph glyph-name="Ohungarumlaut" unicode="&#x150;" horiz-adv-x="1498" 
d="M1234 1266q179 -201 179 -545t-179 -544q-179 -201 -486 -201t-486 201q-179 200 -179 544t179 545t486 201t486 -201zM397 1145q-129 -157 -129 -424q0 -266 129 -423q130 -156 351 -156t351 156q129 157 129 423q0 267 -129 424q-130 156 -351 156t-351 -156zM834 1550
l231 299h188l-281 -299h-138zM524 1550l231 299h188l-281 -299h-138z" />
    <glyph glyph-name="ohungarumlaut" unicode="&#x151;" horiz-adv-x="1124" 
d="M199 139q-135 149 -135 400t135 400t362 149t362 -149t135 -400t-135 -400t-362 -149t-362 149zM796 249q85 105 85 290q0 186 -85 290q-84 104 -235 104t-235 -104q-85 -105 -85 -290t85 -290q85 -104 235 -104q151 0 235 104zM847 1550h195l-255 -300h-136zM531 1550
h195l-255 -300h-136z" />
    <glyph glyph-name="OE" unicode="&#x152;" horiz-adv-x="2216" 
d="M399 1145q-131 -157 -131 -424q0 -266 131 -423q132 -156 356 -156q223 0 355 156q131 157 131 423t-132 423q-131 157 -354 157q-224 0 -356 -156zM1244 228q-157 -252 -489 -252q-310 0 -491 201t-181 544q0 344 181 545t491 201q333 0 489 -248v224h874v-162h-694
v-463h656v-160h-656v-496h694v-162h-874v228z" />
    <glyph glyph-name="oe" unicode="&#x153;" horiz-adv-x="1901" 
d="M971 203h-8q-137 -213 -402 -213q-227 0 -362 149t-135 400t135 400t362 149q264 0 402 -216h8q59 102 164 159q104 57 232 57q216 0 342 -142q126 -143 126 -387v-68h-774v-10q0 -154 87 -246t231 -92q101 0 175 45q73 44 96 120h172q-22 -139 -148 -228
q-126 -90 -299 -90q-278 0 -404 213zM1654 630q-3 137 -83 221q-79 84 -207 84q-127 0 -210 -84q-84 -84 -93 -221h593zM326 249q85 -104 235 -104q151 0 235 104q85 105 85 290q0 186 -85 290q-84 104 -235 104t-235 -104q-85 -105 -85 -290t85 -290z" />
    <glyph glyph-name="Racute" unicode="&#x154;" horiz-adv-x="1237" 
d="M319 730h355q139 0 214 72q76 72 76 205q0 130 -79 203t-219 73h-347v-553zM319 0h-180v1443h551q209 0 334 -117q126 -118 126 -313q0 -151 -77 -261t-213 -153l334 -599h-211l-309 571h-355v-571zM463 1550l231 299h198l-281 -299h-148z" />
    <glyph glyph-name="racute" unicode="&#x155;" horiz-adv-x="649" 
d="M117 1078h164v-175h4q24 85 95 135t166 50q41 0 67 -7v-172q-28 12 -90 12q-105 0 -168 -70q-64 -70 -64 -184v-667h-174v1078zM291 1250l211 300h198l-261 -300h-148z" />
    <glyph glyph-name="uni0156" unicode="&#x156;" horiz-adv-x="1237" 
d="M319 730h355q139 0 214 72q76 72 76 205q0 130 -79 203t-219 73h-347v-553zM319 0h-180v1443h551q209 0 334 -117q126 -118 126 -313q0 -151 -77 -261t-213 -153l334 -599h-211l-309 571h-355v-571zM393 -541l91 369h153l-118 -369h-126z" />
    <glyph glyph-name="uni0157" unicode="&#x157;" horiz-adv-x="649" 
d="M117 1078h164v-175h4q24 85 95 135t166 50q41 0 67 -7v-172q-28 12 -90 12q-105 0 -168 -70q-64 -70 -64 -184v-667h-174v1078zM63 -541l91 369h153l-118 -369h-126z" />
    <glyph glyph-name="Rcaron" unicode="&#x158;" horiz-adv-x="1237" 
d="M319 730h355q139 0 214 72q76 72 76 205q0 130 -79 203t-219 73h-347v-553zM319 0h-180v1443h551q209 0 334 -117q126 -118 126 -313q0 -151 -77 -261t-213 -153l334 -599h-211l-309 571h-355v-571zM171 1849h168l194 -201h2l194 201h168l-292 -299h-142z" />
    <glyph glyph-name="rcaron" unicode="&#x159;" horiz-adv-x="649" 
d="M117 1078h164v-175h4q24 85 95 135t166 50q41 0 67 -7v-172q-28 12 -90 12q-105 0 -168 -70q-64 -70 -64 -184v-667h-174v1078zM303 1250l-277 300h163l173 -197h6l173 197h163l-277 -300h-124z" />
    <glyph glyph-name="Sacute" unicode="&#x15a;" horiz-adv-x="1216" 
d="M251 397q13 -117 115 -188q101 -71 256 -71q146 0 242 69q95 70 95 176q0 91 -67 151q-66 58 -212 96l-185 48q-200 51 -292 143q-92 91 -92 238q0 180 143 294q142 114 367 114q215 0 356 -115q141 -116 147 -297h-180q-12 116 -100 183t-229 67q-140 0 -229 -66
q-88 -66 -88 -172q0 -82 65 -134q64 -53 211 -91l151 -40q224 -56 322 -149t98 -248q0 -198 -145 -313q-146 -116 -395 -116q-230 0 -376 115t-159 306h181zM550 1550l231 299h198l-281 -299h-148z" />
    <glyph glyph-name="sacute" unicode="&#x15b;" horiz-adv-x="984" 
d="M211 1000q111 87 287 87q164 0 276 -88q111 -87 116 -220h-167q-8 76 -70 120t-161 44q-100 0 -161 -43t-61 -114q0 -107 182 -153l164 -41q163 -41 230 -106q66 -64 66 -182q0 -138 -120 -226q-119 -88 -306 -88q-174 0 -289 86q-115 87 -128 227h175q28 -169 254 -169
q110 0 175 43q64 42 64 115q0 57 -38 91q-38 33 -130 57l-189 49q-281 73 -281 288q0 136 112 223zM424 1250l211 300h198l-261 -300h-148z" />
    <glyph glyph-name="Scircumflex" unicode="&#x15c;" horiz-adv-x="1216" 
d="M251 397q13 -117 115 -188q101 -71 256 -71q146 0 242 69q95 70 95 176q0 91 -67 151q-66 58 -212 96l-185 48q-200 51 -292 143q-92 91 -92 238q0 180 143 294q142 114 367 114q215 0 356 -115q141 -116 147 -297h-180q-12 116 -100 183t-229 67q-140 0 -229 -66
q-88 -66 -88 -172q0 -82 65 -134q64 -53 211 -91l151 -40q224 -56 322 -149t98 -248q0 -198 -145 -313q-146 -116 -395 -116q-230 0 -376 115t-159 306h181zM692 1849l292 -299h-168l-194 201h-2l-194 -201h-168l292 299h142z" />
    <glyph glyph-name="scircumflex" unicode="&#x15d;" horiz-adv-x="984" 
d="M211 1000q111 87 287 87q164 0 276 -88q111 -87 116 -220h-167q-8 76 -70 120t-161 44q-100 0 -161 -43t-61 -114q0 -107 182 -153l164 -41q163 -41 230 -106q66 -64 66 -182q0 -138 -120 -226q-119 -88 -306 -88q-174 0 -289 86q-115 87 -128 227h175q28 -169 254 -169
q110 0 175 43q64 42 64 115q0 57 -38 91q-38 33 -130 57l-189 49q-281 73 -281 288q0 136 112 223zM837 1250h-163l-173 197h-6l-173 -197h-163l277 300h124z" />
    <glyph glyph-name="Scedilla" unicode="&#x15e;" horiz-adv-x="1216" 
d="M725 802q224 -56 322 -149t98 -248q0 -185 -129 -299q-128 -114 -351 -128l-44 -120q209 0 209 -150q0 -76 -62 -126t-157 -51q-83 -1 -147 17v98q38 -15 122 -15q120 0 120 73q0 66 -150 66h-55v74l51 134q-208 14 -339 126q-131 114 -143 293h181q13 -117 115 -188
q101 -71 256 -71q146 0 242 69q95 70 95 176q0 91 -67 151q-66 58 -212 96l-185 48q-200 51 -292 143q-92 91 -92 238q0 180 143 294q142 114 367 114q215 0 356 -115q141 -116 147 -297h-180q-12 116 -100 183t-229 67q-140 0 -229 -66q-88 -66 -88 -172q0 -82 65 -134
q64 -53 211 -91z" />
    <glyph glyph-name="scedilla" unicode="&#x15f;" horiz-adv-x="984" 
d="M616 592q163 -41 230 -106q66 -64 66 -182q0 -125 -100 -210t-261 -101l-49 -135q209 0 209 -150q0 -76 -62 -126t-157 -51q-83 -1 -147 17v98q38 -15 122 -15q120 0 120 73q0 66 -150 66h-55v74l57 148q-156 12 -257 96q-101 85 -113 215h175q28 -169 254 -169
q110 0 175 43q64 42 64 115q0 57 -38 91q-38 33 -130 57l-189 49q-281 73 -281 288q0 136 112 223q111 87 287 87q164 0 276 -88q111 -87 116 -220h-167q-8 76 -70 120t-161 44q-100 0 -161 -43t-61 -114q0 -107 182 -153z" />
    <glyph glyph-name="Scaron" unicode="&#x160;" horiz-adv-x="1216" 
d="M251 397q13 -117 115 -188q101 -71 256 -71q146 0 242 69q95 70 95 176q0 91 -67 151q-66 58 -212 96l-185 48q-200 51 -292 143q-92 91 -92 238q0 180 143 294q142 114 367 114q215 0 356 -115q141 -116 147 -297h-180q-12 116 -100 183t-229 67q-140 0 -229 -66
q-88 -66 -88 -172q0 -82 65 -134q64 -53 211 -91l151 -40q224 -56 322 -149t98 -248q0 -198 -145 -313q-146 -116 -395 -116q-230 0 -376 115t-159 306h181zM258 1849h168l194 -201h2l194 201h168l-292 -299h-142z" />
    <glyph glyph-name="scaron" unicode="&#x161;" horiz-adv-x="984" 
d="M211 1000q111 87 287 87q164 0 276 -88q111 -87 116 -220h-167q-8 76 -70 120t-161 44q-100 0 -161 -43t-61 -114q0 -107 182 -153l164 -41q163 -41 230 -106q66 -64 66 -182q0 -138 -120 -226q-119 -88 -306 -88q-174 0 -289 86q-115 87 -128 227h175q28 -169 254 -169
q110 0 175 43q64 42 64 115q0 57 -38 91q-38 33 -130 57l-189 49q-281 73 -281 288q0 136 112 223zM436 1250l-277 300h163l173 -197h6l173 197h163l-277 -300h-124z" />
    <glyph glyph-name="uni0162" unicode="&#x162;" horiz-adv-x="1210" 
d="M672 0l-52 -142q209 0 209 -150q0 -76 -62 -126t-157 -51q-83 -1 -147 17v98q38 -15 122 -15q120 0 120 73q0 66 -150 66h-55v74l60 156h-46v1281h-465v162h1110v-162h-465v-1281h-22z" />
    <glyph glyph-name="uni0163" unicode="&#x163;" horiz-adv-x="634" 
d="M382 -142q209 0 209 -150q0 -76 -62 -126t-157 -51q-83 -1 -147 17v98q38 -15 122 -15q120 0 120 73q0 66 -150 66h-55v74l62 163q-150 44 -150 273v654h-150v144h150v243h174v-243h210v-144h-210v-647q0 -144 134 -144q45 0 75 5v-147q-38 -9 -112 -9h-14z" />
    <glyph glyph-name="Tcaron" unicode="&#x164;" horiz-adv-x="1210" 
d="M514 0v1281h-465v162h1110v-162h-465v-1281h-180zM241 1849h168l194 -201h2l194 201h168l-292 -299h-142z" />
    <glyph glyph-name="tcaron" unicode="&#x165;" horiz-adv-x="723" 
d="M639 1720l-30 -488h-110v488h140zM348 1321v-243h210v-144h-210v-647q0 -144 134 -144q45 0 75 5v-147q-38 -9 -112 -9q-146 0 -209 66q-62 67 -62 222v654h-150v144h150v243h174z" />
    <glyph glyph-name="Tbar" unicode="&#x166;" horiz-adv-x="1250" 
d="M694 1281v-488h325v-143h-325v-650h-180v650h-285v143h285v488h-465v162h1110v-162h-465z" />
    <glyph glyph-name="tbar" unicode="&#x167;" horiz-adv-x="636" 
d="M348 495v-208q0 -144 134 -144q45 0 75 5v-147q-38 -9 -112 -9q-146 0 -209 66q-62 67 -62 222v215h-150v144h150v295h-150v144h150v243h174v-243h210v-144h-210v-295h212v-144h-212z" />
    <glyph glyph-name="Utilde" unicode="&#x168;" horiz-adv-x="1426" 
d="M319 518q0 -167 103 -270q106 -106 290 -106t290 106q103 103 103 270v925h180v-937q0 -235 -152 -380q-157 -150 -421 -150t-421 150q-152 145 -152 380v937h180v-925zM697 1611q-73 76 -106 76q-69 0 -69 -137h-114q0 118 47 184t131 66q77 0 151 -76t103 -76
q62 0 62 138h114q0 -115 -48 -183t-128 -68q-71 0 -143 76z" />
    <glyph glyph-name="utilde" unicode="&#x169;" horiz-adv-x="1135" 
d="M1016 0h-164v178h-4q-102 -188 -353 -188q-177 0 -280 107q-103 106 -103 290v691h174v-661q0 -132 68 -202q67 -70 194 -70q133 0 213 84q81 84 81 223v626h174v-1078zM553 1334q-73 76 -106 76q-69 0 -69 -137h-114q0 118 47 184t131 66q77 0 151 -76t103 -76
q62 0 62 138h114q0 -115 -48 -183t-128 -68q-71 0 -143 76z" />
    <glyph glyph-name="Umacron" unicode="&#x16a;" horiz-adv-x="1426" 
d="M319 518q0 -167 103 -270q106 -106 290 -106t290 106q103 103 103 270v925h180v-937q0 -235 -152 -380q-157 -150 -421 -150t-421 150q-152 145 -152 380v937h180v-925zM1029 1642h-634v106h634v-106z" />
    <glyph glyph-name="umacron" unicode="&#x16b;" horiz-adv-x="1135" 
d="M1016 0h-164v178h-4q-102 -188 -353 -188q-177 0 -280 107q-103 106 -103 290v691h174v-661q0 -132 68 -202q67 -70 194 -70q133 0 213 84q81 84 81 223v626h174v-1078zM881 1320h-634v106h634v-106z" />
    <glyph glyph-name="Ubreve" unicode="&#x16c;" horiz-adv-x="1426" 
d="M319 518q0 -167 103 -270q106 -106 290 -106t290 106q103 103 103 270v925h180v-937q0 -235 -152 -380q-157 -150 -421 -150t-421 150q-152 145 -152 380v937h180v-925zM521 1849q0 -83 55 -139q55 -57 136 -57t136 57q55 56 55 139h119q0 -132 -86 -215
q-87 -84 -224 -84t-224 84q-86 83 -86 215h119z" />
    <glyph glyph-name="ubreve" unicode="&#x16d;" horiz-adv-x="1135" 
d="M1016 0h-164v178h-4q-102 -188 -353 -188q-177 0 -280 107q-103 106 -103 290v691h174v-661q0 -132 68 -202q67 -70 194 -70q133 0 213 84q81 84 81 223v626h174v-1078zM364 1550q0 -86 58 -144q57 -59 141 -59t142 59q57 58 57 144h123q0 -138 -89 -224
q-90 -86 -233 -86t-233 86q-89 86 -89 224h123z" />
    <glyph glyph-name="Uring" unicode="&#x16e;" horiz-adv-x="1426" 
d="M319 518q0 -167 103 -270q106 -106 290 -106t290 106q103 103 103 270v925h180v-937q0 -235 -152 -380q-157 -150 -421 -150t-421 150q-152 145 -152 380v937h180v-925zM572 1566q-59 58 -59 140t59 140q58 59 140 59t140 -59q59 -58 59 -140t-59 -140q-58 -59 -140 -59
t-140 59zM794 1624q34 34 34 82t-34 82t-82 34t-82 -34t-34 -82t34 -82t82 -34t82 34z" />
    <glyph glyph-name="uring" unicode="&#x16f;" horiz-adv-x="1135" 
d="M1016 0h-164v178h-4q-102 -188 -353 -188q-177 0 -280 107q-103 106 -103 290v691h174v-661q0 -132 68 -202q67 -70 194 -70q133 0 213 84q81 84 81 223v626h174v-1078zM424 1243q-59 58 -59 140t59 140q58 59 140 59t140 -59q59 -58 59 -140t-59 -140q-58 -59 -140 -59
t-140 59zM646 1301q34 34 34 82t-34 82t-82 34t-82 -34t-34 -82t34 -82t82 -34t82 34z" />
    <glyph glyph-name="Uhungarumlaut" unicode="&#x170;" horiz-adv-x="1426" 
d="M319 518q0 -167 103 -270q106 -106 290 -106t290 106q103 103 103 270v925h180v-937q0 -235 -152 -380q-157 -150 -421 -150t-421 150q-152 145 -152 380v937h180v-925zM798 1550l231 299h188l-281 -299h-138zM488 1550l231 299h188l-281 -299h-138z" />
    <glyph glyph-name="uhungarumlaut" unicode="&#x171;" horiz-adv-x="1135" 
d="M1016 0h-164v178h-4q-102 -188 -353 -188q-177 0 -280 107q-103 106 -103 290v691h174v-661q0 -132 68 -202q67 -70 194 -70q133 0 213 84q81 84 81 223v626h174v-1078zM850 1550h195l-255 -300h-136zM534 1550h195l-255 -300h-136z" />
    <glyph glyph-name="Uogonek" unicode="&#x172;" horiz-adv-x="1426" 
d="M802 -372q-67 59 -67 149q0 120 98 216v4q-63 -21 -121 -21q-259 0 -416 145t-157 385v937h180v-925q0 -172 107 -274t286 -102t286 102t107 274v925h180v-937q0 -246 -196 -424l-136 -124q-61 -69 -61 -142q0 -47 36 -80t88 -33q33 0 66 6v-124q-48 -17 -112 -17
q-101 0 -168 60z" />
    <glyph glyph-name="uogonek" unicode="&#x173;" horiz-adv-x="1135" 
d="M1016 -421q-41 -11 -88 -11q-104 0 -167 59q-64 59 -64 156q0 146 155 240v155h-4q-102 -188 -353 -188q-177 0 -280 107q-103 106 -103 290v691h174v-661q0 -132 68 -202q67 -70 194 -70q133 0 213 84q81 84 81 223v626h174v-1059q-162 -72 -162 -199q0 -54 32 -86
q33 -32 86 -32q26 0 44 3v-126z" />
    <glyph glyph-name="Wcircumflex" unicode="&#x174;" horiz-adv-x="1892" 
d="M607 0h-170l-393 1443h188l289 -1178h8l325 1178h182l325 -1178h8l289 1178h188l-393 -1443h-170l-333 1145h-10zM1016 1849l292 -299h-168l-194 201h-2l-194 -201h-168l292 299h142z" />
    <glyph glyph-name="wcircumflex" unicode="&#x175;" horiz-adv-x="1512" 
d="M1179 0h-176l-246 838h-4l-246 -838h-176l-302 1078h172l219 -881h4l247 881h168l247 -881h4l219 881h172zM1094 1250h-163l-173 197h-6l-173 -197h-163l277 300h124z" />
    <glyph glyph-name="Ycircumflex" unicode="&#x176;" horiz-adv-x="1254" 
d="M536 0v621l-512 822h205l394 -648h6l394 648h205l-512 -822v-621h-180zM697 1849l292 -299h-168l-194 201h-2l-194 -201h-168l292 299h142z" />
    <glyph glyph-name="ycircumflex" unicode="&#x177;" horiz-adv-x="1026" 
d="M133 -384v147q30 -6 71 -6q75 0 120 40q45 41 78 138l21 64l-399 1079h185l302 -901h4l302 901h183l-422 -1144q-69 -187 -147 -256q-79 -69 -222 -69q-39 0 -76 7zM852 1250h-163l-173 197h-6l-173 -197h-163l277 300h124z" />
    <glyph glyph-name="Ydieresis" unicode="&#x178;" horiz-adv-x="1254" 
d="M536 0v621l-512 822h205l394 -648h6l394 648h205l-512 -822v-621h-180zM350 1618q-33 33 -33 79t33 79t79 33q47 0 79 -33q33 -32 33 -79q0 -46 -33 -79t-79 -33t-79 33zM744 1618q-33 33 -33 79t33 79t79 33q47 0 79 -33q33 -32 33 -79q0 -46 -33 -79t-79 -33t-79 33z
" />
    <glyph glyph-name="Zacute" unicode="&#x179;" horiz-adv-x="1263" 
d="M97 128l823 1146v7h-795v162h1022v-128l-819 -1146v-7h836v-162h-1067v128zM560 1550l231 299h198l-281 -299h-148z" />
    <glyph glyph-name="zacute" unicode="&#x17a;" horiz-adv-x="990" 
d="M94 126l601 805v3h-600v144h796v-129l-597 -802v-3h600v-144h-800v126zM420 1250l211 300h198l-261 -300h-148z" />
    <glyph glyph-name="Zdotaccent" unicode="&#x17b;" horiz-adv-x="1263" 
d="M97 128l823 1146v7h-795v162h1022v-128l-819 -1146v-7h836v-162h-1067v128zM545 1620q-35 36 -35 86t35 86q36 35 86 35t86 -35q35 -36 35 -86t-35 -86q-36 -35 -86 -35t-86 35z" />
    <glyph glyph-name="zdotaccent" unicode="&#x17c;" horiz-adv-x="990" 
d="M94 126l601 805v3h-600v144h796v-129l-597 -802v-3h600v-144h-800v126zM407 1298q-37 36 -37 87t37 88q36 36 87 36t88 -36q36 -37 36 -88t-36 -87q-37 -37 -88 -37t-87 37z" />
    <glyph glyph-name="Zcaron" unicode="&#x17d;" horiz-adv-x="1263" 
d="M97 128l823 1146v7h-795v162h1022v-128l-819 -1146v-7h836v-162h-1067v128zM268 1849h168l194 -201h2l194 201h168l-292 -299h-142z" />
    <glyph glyph-name="zcaron" unicode="&#x17e;" horiz-adv-x="990" 
d="M94 126l601 805v3h-600v144h796v-129l-597 -802v-3h600v-144h-800v126zM432 1250l-277 300h163l173 -197h6l173 197h163l-277 -300h-124z" />
    <glyph glyph-name="florin" unicode="&#x192;" horiz-adv-x="1239" 
d="M1202 1269q-86 42 -190 42q-116 0 -177 -51t-77 -160l-32 -226h368v-144h-389l-56 -388q-52 -366 -395 -366q-121 0 -218 47v167q88 -55 202 -55q110 0 167 53q56 53 73 174l53 368h-336v144h357l34 237q52 356 404 356q124 0 212 -41v-157z" />
    <glyph glyph-name="Ohorn" unicode="&#x1a0;" horiz-adv-x="1533" 
d="M397 1145q-129 -157 -129 -424q0 -266 129 -423q130 -156 351 -156t351 156q129 157 129 423q0 267 -129 424q-130 156 -351 156t-351 -156zM1234 177q-179 -201 -486 -201t-486 201q-179 200 -179 544t179 545t486 201q165 0 316 -83q151 -84 201 -84q107 0 107 173v156
h159v-204q0 -121 -46 -189q-46 -69 -127 -69q-39 0 -59 11l-3 -3q117 -222 117 -454q0 -344 -179 -544z" />
    <glyph glyph-name="ohorn" unicode="&#x1a1;" horiz-adv-x="1252" 
d="M796 249q85 105 85 290q0 186 -85 290q-84 104 -235 104t-235 -104q-85 -105 -85 -290t85 -290q85 -104 235 -104q151 0 235 104zM923 139q-135 -149 -362 -149t-362 149t-135 400t135 400t362 149q142 0 267 -72q126 -73 162 -73q111 0 111 173v156h159v-204
q0 -118 -68 -191q-69 -74 -179 -74h-4q49 -113 49 -264q0 -251 -135 -400z" />
    <glyph glyph-name="Uhorn" unicode="&#x1af;" horiz-adv-x="1659" 
d="M1285 1334q40 -43 103 -43q65 0 93 40q28 41 28 133v156h159v-204q0 -118 -68 -191q-69 -74 -179 -74q-81 0 -136 44v-689q0 -240 -157 -385t-416 -145t-416 145t-157 385v937h180v-925q0 -172 107 -274t286 -102t286 102t107 274v925h180v-109z" />
    <glyph glyph-name="uhorn" unicode="&#x1b0;" horiz-adv-x="1427" 
d="M848 178q-102 -188 -353 -188q-177 0 -280 107q-103 106 -103 290v691h174v-661q0 -132 67 -202q68 -70 195 -70q133 0 213 84q81 84 81 223v626h174v-100q38 -35 95 -35q65 0 93 40q28 41 28 133v156h159v-204q0 -118 -68 -191q-69 -74 -179 -74q-75 0 -128 38v-841
h-164v178h-4z" />
    <glyph glyph-name="uni01C4" unicode="&#x1c4;" horiz-adv-x="2662" 
d="M634 1443q321 0 501 -190q180 -191 180 -531q0 -341 -180 -532q-179 -190 -501 -190h-495v1443h495zM319 162h303q245 0 377 145q132 144 132 413q0 271 -131 416q-132 145 -378 145h-303v-1119zM1496 128l823 1146v7h-795v162h1022v-128l-819 -1146v-7h836v-162h-1067
v128zM1667 1849h168l194 -201h2l194 201h168l-292 -299h-142z" />
    <glyph glyph-name="uni01C5" unicode="&#x1c5;" horiz-adv-x="2389" 
d="M634 1443q321 0 501 -190q180 -191 180 -531q0 -341 -180 -532q-179 -190 -501 -190h-495v1443h495zM319 162h303q245 0 377 145q132 144 132 413q0 271 -131 416q-132 145 -378 145h-303v-1119zM1493 126l601 805v3h-600v144h796v-129l-597 -802v-3h600v-144h-800v126z
M1831 1250l-277 300h163l173 -197h6l173 197h163l-277 -300h-124z" />
    <glyph glyph-name="uni01C6" unicode="&#x1c6;" horiz-adv-x="2163" 
d="M193 141q-129 152 -129 398q0 245 129 398q127 151 329 151q241 0 344 -185h4v603h174v-1506h-166v182h-3q-108 -192 -349 -192q-204 0 -333 151zM329 825q-87 -108 -87 -286q0 -179 87 -287q86 -107 228 -107q140 0 227 109t87 285t-87 285t-227 109q-142 0 -228 -108z
M1267 126l601 805v3h-600v144h796v-129l-597 -802v-3h600v-144h-800v126zM1605 1250l-277 300h163l173 -197h6l173 197h163l-277 -300h-124z" />
    <glyph glyph-name="uni01C7" unicode="&#x1c7;" horiz-adv-x="2088" 
d="M1015 0h-876v1443h180v-1281h696v-162zM1294 339q3 -92 66 -149q64 -58 162 -58q119 0 182 70q63 69 63 201v1040h180v-1041q0 -205 -112 -321q-112 -115 -312 -115q-180 0 -294 104q-114 105 -114 269h179z" />
    <glyph glyph-name="uni01C8" unicode="&#x1c8;" horiz-adv-x="1504" 
d="M1015 0h-876v1443h180v-1281h696v-162zM1375 -81q0 -164 -80 -241q-79 -76 -251 -76h-31v147h27q88 0 125 38q36 37 36 129v1162h174v-1159zM1211 1285q-33 32 -33 77q0 46 33 78q32 32 77 32q46 0 78 -32t32 -78q0 -45 -32 -77q-32 -33 -78 -33q-45 0 -77 33z" />
    <glyph glyph-name="uni01C9" unicode="&#x1c9;" horiz-adv-x="860" 
d="M127 1506h174v-1506h-174v1506zM731 -81q0 -164 -80 -241q-79 -76 -251 -76h-31v147h27q88 0 125 38q36 37 36 129v1162h174v-1159zM567 1285q-33 32 -33 77q0 46 33 78q32 32 77 32q46 0 78 -32t32 -78q0 -45 -32 -77q-32 -33 -78 -33q-45 0 -77 33z" />
    <glyph glyph-name="uni01CA" unicode="&#x1ca;" horiz-adv-x="2446" 
d="M139 0v1443h175l790 -1133h9v1133h178v-1443h-175l-790 1129h-9v-1129h-178zM1652 339q3 -92 66 -149q64 -58 162 -58q119 0 182 70q63 69 63 201v1040h180v-1041q0 -205 -112 -321q-112 -115 -312 -115q-180 0 -294 104q-114 105 -114 269h179z" />
    <glyph glyph-name="uni01CB" unicode="&#x1cb;" horiz-adv-x="1862" 
d="M139 0v1443h175l790 -1133h9v1133h178v-1443h-175l-790 1129h-9v-1129h-178zM1733 -81q0 -164 -80 -241q-79 -76 -251 -76h-31v147h27q88 0 125 38q36 37 36 129v1162h174v-1159zM1569 1285q-33 32 -33 77q0 46 33 78q32 32 77 32q46 0 78 -32t32 -78q0 -45 -32 -77
q-32 -33 -78 -33q-45 0 -77 33z" />
    <glyph glyph-name="uni01CC" unicode="&#x1cc;" horiz-adv-x="1565" 
d="M117 1078h164v-175h4q103 185 352 185q178 0 281 -107q103 -106 103 -290v-691h-174v661q0 132 -67 202q-68 70 -195 70q-133 0 -213 -84q-81 -84 -81 -223v-626h-174v1078zM1436 -81q0 -164 -80 -241q-79 -76 -251 -76h-31v147h27q88 0 125 38q36 37 36 129v1162h174
v-1159zM1272 1285q-33 32 -33 77q0 46 33 78q32 32 77 32q46 0 78 -32t32 -78q0 -45 -32 -77q-32 -33 -78 -33q-45 0 -77 33z" />
    <glyph glyph-name="uni01CD" unicode="&#x1cd;" horiz-adv-x="1292" 
d="M932 413h-574l-145 -413h-189l532 1443h178l532 -1443h-189zM411 566h468l-231 658h-6zM282 1849h168l194 -201h2l194 201h168l-292 -299h-142z" />
    <glyph glyph-name="uni01CE" unicode="&#x1ce;" horiz-adv-x="1062" 
d="M688 217q86 77 86 193v87l-282 -18q-246 -15 -246 -173q0 -75 61 -120q60 -45 162 -45q132 0 219 76zM168 77q-100 87 -100 230q0 139 104 218q104 80 300 92l302 18v90q0 100 -64 154t-183 54q-94 0 -158 -45q-65 -45 -81 -121h-167q4 136 121 229q117 92 287 92
q191 0 305 -94q114 -95 114 -254v-740h-165v187h-4q-46 -90 -140 -143q-94 -54 -207 -54q-164 0 -264 87zM463 1250l-277 300h163l173 -197h6l173 197h163l-277 -300h-124z" />
    <glyph glyph-name="uni01CF" unicode="&#x1cf;" horiz-adv-x="460" 
d="M140 0v1443h180v-1443h-180zM-133 1849h168l194 -201h2l194 201h168l-292 -299h-142z" />
    <glyph glyph-name="uni01D0" unicode="&#x1d0;" horiz-adv-x="430" 
d="M128 1078h174v-1078h-174v1078zM153 1250l-277 300h163l173 -197h6l173 197h163l-277 -300h-124z" />
    <glyph glyph-name="uni01D1" unicode="&#x1d1;" horiz-adv-x="1498" 
d="M1234 1266q179 -201 179 -545t-179 -544q-179 -201 -486 -201t-486 201q-179 200 -179 544t179 545t486 201t486 -201zM397 1145q-129 -157 -129 -424q0 -266 129 -423q130 -156 351 -156t351 156q129 157 129 423q0 267 -129 424q-130 156 -351 156t-351 -156zM385 1849
h168l194 -201h2l194 201h168l-292 -299h-142z" />
    <glyph glyph-name="uni01D2" unicode="&#x1d2;" horiz-adv-x="1124" 
d="M199 139q-135 149 -135 400t135 400t362 149t362 -149t135 -400t-135 -400t-362 -149t-362 149zM796 249q85 105 85 290q0 186 -85 290q-84 104 -235 104t-235 -104q-85 -105 -85 -290t85 -290q85 -104 235 -104q151 0 235 104zM499 1250l-277 300h163l173 -197h6
l173 197h163l-277 -300h-124z" />
    <glyph glyph-name="uni01D3" unicode="&#x1d3;" horiz-adv-x="1426" 
d="M319 518q0 -167 103 -270q106 -106 290 -106t290 106q103 103 103 270v925h180v-937q0 -235 -152 -380q-157 -150 -421 -150t-421 150q-152 145 -152 380v937h180v-925zM349 1849h168l194 -201h2l194 201h168l-292 -299h-142z" />
    <glyph glyph-name="uni01D4" unicode="&#x1d4;" horiz-adv-x="1135" 
d="M1016 0h-164v178h-4q-102 -188 -353 -188q-177 0 -280 107q-103 106 -103 290v691h174v-661q0 -132 68 -202q67 -70 194 -70q133 0 213 84q81 84 81 223v626h174v-1078zM502 1250l-277 300h163l173 -197h6l173 197h163l-277 -300h-124z" />
    <glyph glyph-name="uni01D5" unicode="&#x1d5;" horiz-adv-x="1426" 
d="M319 518q0 -167 103 -270q106 -106 290 -106t290 106q103 103 103 270v925h180v-937q0 -235 -152 -380q-157 -150 -421 -150t-421 150q-152 145 -152 380v937h180v-925zM595 1761q29 -30 29 -70q0 -41 -29 -70t-69 -29q-41 0 -70 29t-29 70t29 70t70 29q40 0 69 -29z
M1029 2025v-106h-634v106h634zM968 1761q29 -29 29 -70t-29 -70t-70 -29q-40 0 -69 29t-29 70q0 40 29 70q29 29 69 29q41 0 70 -29z" />
    <glyph glyph-name="uni01D6" unicode="&#x1d6;" horiz-adv-x="1135" 
d="M1016 0h-164v178h-4q-102 -188 -353 -188q-177 0 -280 107q-103 106 -103 290v691h174v-661q0 -132 68 -202q67 -70 194 -70q133 0 213 84q81 84 81 223v626h174v-1078zM291 1292q-31 32 -31 76q0 45 31 76q32 31 76 31q45 0 76 -31t31 -76q0 -44 -31 -76
q-31 -31 -76 -31q-44 0 -76 31zM685 1292q-31 32 -31 76q0 45 31 76q32 31 76 31q45 0 76 -31t31 -76q0 -44 -31 -76q-31 -31 -76 -31q-44 0 -76 31zM881 1658h-634v106h634v-106z" />
    <glyph glyph-name="uni01D7" unicode="&#x1d7;" horiz-adv-x="1426" 
d="M319 518q0 -167 103 -270q106 -106 290 -106t290 106q103 103 103 270v925h180v-937q0 -235 -152 -380q-157 -150 -421 -150t-421 150q-152 145 -152 380v937h180v-925zM829 2053h187l-236 -204h-136zM456 1621q-29 29 -29 70t29 70t70 29q40 0 69 -29q29 -30 29 -70
q0 -41 -29 -70t-69 -29q-41 0 -70 29zM829 1621q-29 29 -29 70q0 40 29 70q29 29 69 29q41 0 70 -29t29 -70t-29 -70t-70 -29q-40 0 -69 29z" />
    <glyph glyph-name="uni01D8" unicode="&#x1d8;" horiz-adv-x="1135" 
d="M1016 0h-164v178h-4q-102 -188 -353 -188q-177 0 -280 107q-103 106 -103 290v691h174v-661q0 -132 68 -202q67 -70 194 -70q133 0 213 84q81 84 81 223v626h174v-1078zM650 1849h188l-199 -257h-150zM288 1294q-33 33 -33 79t33 79t79 33q47 0 79 -33q33 -32 33 -79
q0 -46 -33 -79t-79 -33t-79 33zM682 1294q-33 33 -33 79t33 79t79 33q47 0 79 -33q33 -32 33 -79q0 -46 -33 -79t-79 -33t-79 33z" />
    <glyph glyph-name="uni01D9" unicode="&#x1d9;" horiz-adv-x="1426" 
d="M319 518q0 -167 103 -270q106 -106 290 -106t290 106q103 103 103 270v925h180v-937q0 -235 -152 -380q-157 -150 -421 -150t-421 150q-152 145 -152 380v937h180v-925zM368 2053h183l154 -119h14l154 119h183l-267 -204h-154zM595 1761q29 -30 29 -70q0 -41 -29 -70
t-69 -29q-41 0 -70 29t-29 70t29 70t70 29q40 0 69 -29zM968 1761q29 -29 29 -70t-29 -70t-70 -29q-40 0 -69 29t-29 70q0 40 29 70q29 29 69 29q41 0 70 -29z" />
    <glyph glyph-name="uni01DA" unicode="&#x1da;" horiz-adv-x="1135" 
d="M1016 0h-164v178h-4q-102 -188 -353 -188q-177 0 -280 107q-103 106 -103 290v691h174v-661q0 -132 68 -202q67 -70 194 -70q133 0 213 84q81 84 81 223v626h174v-1078zM288 1294q-33 33 -33 79t33 79t79 33q47 0 79 -33q33 -32 33 -79q0 -46 -33 -79t-79 -33t-79 33z
M682 1294q-33 33 -33 79t33 79t79 33q47 0 79 -33q33 -32 33 -79q0 -46 -33 -79t-79 -33t-79 33zM479 1592l-261 257h161l182 -180h6l182 180h161l-261 -257h-170z" />
    <glyph glyph-name="uni01DB" unicode="&#x1db;" horiz-adv-x="1426" 
d="M319 518q0 -167 103 -270q106 -106 290 -106t290 106q103 103 103 270v925h180v-937q0 -235 -152 -380q-157 -150 -421 -150t-421 150q-152 145 -152 380v937h180v-925zM644 1849l-236 204h187l185 -204h-136zM456 1621q-29 29 -29 70t29 70t70 29q40 0 69 -29
q29 -30 29 -70q0 -41 -29 -70t-69 -29q-41 0 -70 29zM829 1621q-29 29 -29 70q0 40 29 70q29 29 69 29q41 0 70 -29t29 -70t-29 -70t-70 -29q-40 0 -69 29z" />
    <glyph glyph-name="uni01DC" unicode="&#x1dc;" horiz-adv-x="1135" 
d="M1016 0h-164v178h-4q-102 -188 -353 -188q-177 0 -280 107q-103 106 -103 290v691h174v-661q0 -132 68 -202q67 -70 194 -70q133 0 213 84q81 84 81 223v626h174v-1078zM489 1592l-199 257h188l161 -257h-150zM288 1294q-33 33 -33 79t33 79t79 33q47 0 79 -33
q33 -32 33 -79q0 -46 -33 -79t-79 -33t-79 33zM682 1294q-33 33 -33 79t33 79t79 33q47 0 79 -33q33 -32 33 -79q0 -46 -33 -79t-79 -33t-79 33z" />
    <glyph glyph-name="uni01DE" unicode="&#x1de;" horiz-adv-x="1292" 
d="M932 413h-574l-145 -413h-189l532 1443h178l532 -1443h-189zM411 566h468l-231 658h-6zM528 1761q29 -30 29 -70q0 -41 -29 -70t-69 -29q-41 0 -70 29t-29 70t29 70t70 29q40 0 69 -29zM962 2025v-106h-634v106h634zM901 1761q29 -29 29 -70t-29 -70t-70 -29
q-40 0 -69 29t-29 70q0 40 29 70q29 29 69 29q41 0 70 -29z" />
    <glyph glyph-name="uni01DF" unicode="&#x1df;" horiz-adv-x="1062" 
d="M688 217q86 77 86 193v87l-282 -18q-246 -15 -246 -173q0 -75 61 -120q60 -45 162 -45q132 0 219 76zM168 77q-100 87 -100 230q0 139 104 218q104 80 300 92l302 18v90q0 100 -64 154t-183 54q-94 0 -158 -45q-65 -45 -81 -121h-167q4 136 121 229q117 92 287 92
q191 0 305 -94q114 -95 114 -254v-740h-165v187h-4q-46 -90 -140 -143q-94 -54 -207 -54q-164 0 -264 87zM252 1292q-31 32 -31 76q0 45 31 76q32 31 76 31q45 0 76 -31t31 -76q0 -44 -31 -76q-31 -31 -76 -31q-44 0 -76 31zM646 1292q-31 32 -31 76q0 45 31 76q32 31 76 31
q45 0 76 -31t31 -76q0 -44 -31 -76q-31 -31 -76 -31q-44 0 -76 31zM842 1658h-634v106h634v-106z" />
    <glyph glyph-name="uni01E0" unicode="&#x1e0;" horiz-adv-x="1292" 
d="M932 413h-574l-145 -413h-189l532 1443h178l532 -1443h-189zM411 566h468l-231 658h-6zM562 1608q-34 34 -34 83q0 47 34 81t83 34t83 -34t34 -81q0 -49 -34 -83t-83 -34t-83 34zM962 1919h-634v106h634v-106z" />
    <glyph glyph-name="uni01E1" unicode="&#x1e1;" horiz-adv-x="1062" 
d="M688 217q86 77 86 193v87l-282 -18q-246 -15 -246 -173q0 -75 61 -120q60 -45 162 -45q132 0 219 76zM168 77q-100 87 -100 230q0 139 104 218q104 80 300 92l302 18v90q0 100 -64 154t-183 54q-94 0 -158 -45q-65 -45 -81 -121h-167q4 136 121 229q117 92 287 92
q191 0 305 -94q114 -95 114 -254v-740h-165v187h-4q-46 -90 -140 -143q-94 -54 -207 -54q-164 0 -264 87zM439 1297q-36 35 -36 86q0 50 36 86q37 36 86 36q50 0 86 -36t36 -86q0 -51 -36 -86q-36 -36 -86 -36t-86 36zM842 1658h-634v106h634v-106z" />
    <glyph glyph-name="uni01E2" unicode="&#x1e2;" horiz-adv-x="1973" 
d="M480 612h482v680h-160zM962 459h-555l-217 -459h-185l687 1443h1144v-162h-694v-473h657v-160h-657v-486h694v-162h-874v459zM1716 1642h-634v106h634v-106z" />
    <glyph glyph-name="uni01E3" unicode="&#x1e3;" horiz-adv-x="1769" 
d="M872 213h-10q-134 -223 -406 -223q-178 0 -283 85t-105 228q0 140 104 220q105 81 298 91l303 15v77q0 100 -71 164q-70 63 -182 63q-105 0 -169 -45q-63 -44 -70 -121h-171q9 141 119 230q112 91 285 91q135 0 234 -56t138 -157h9q112 213 366 213q204 0 323 -143
q119 -142 119 -386v-67h-756v-11q0 -155 86 -246q85 -92 229 -92q97 0 165 44q67 43 91 121h172q-23 -141 -143 -229q-120 -89 -288 -89q-276 0 -387 223zM1038 852q-82 -84 -91 -222h575q-3 141 -77 223t-198 82q-127 0 -209 -83zM683 219q90 77 90 191v81l-285 -15
q-242 -12 -242 -170q0 -76 58 -120q58 -45 156 -45q132 0 223 78zM1206 1320h-634v106h634v-106z" />
    <glyph glyph-name="Gcaron" unicode="&#x1e6;" horiz-adv-x="1447" 
d="M1356 597q0 -293 -162 -457q-161 -164 -450 -164q-302 0 -482 204q-179 205 -179 549q0 338 179 538t482 200q234 0 398 -128q165 -129 205 -344h-189q-45 146 -153 226q-109 80 -261 80q-223 0 -349 -152q-127 -151 -127 -419q0 -272 128 -430t348 -158q192 0 312 113
q120 114 120 295v26h-407v158h587v-137zM381 1849h168l194 -201h2l194 201h168l-292 -299h-142z" />
    <glyph glyph-name="gcaron" unicode="&#x1e7;" horiz-adv-x="1163" 
d="M782 262q88 108 88 281q0 174 -88 282q-87 108 -229 108q-141 0 -226 -106q-85 -107 -85 -284q0 -176 85 -282t226 -106q142 0 229 107zM251 -304q-122 82 -141 216h181q19 -67 94 -107q74 -39 181 -39q140 0 222 68q82 67 82 182v169h-4q-108 -185 -346 -185
q-205 0 -330 149q-126 150 -126 394q0 247 126 396t334 149q238 0 351 -185h3v175h166v-1048q0 -193 -130 -304q-131 -111 -358 -111q-183 0 -305 81zM492 1250l-277 300h163l173 -197h6l173 197h163l-277 -300h-124z" />
    <glyph glyph-name="uni01E8" unicode="&#x1e8;" horiz-adv-x="1260" 
d="M139 0v1443h180v-704h10l637 704h227l-593 -639l646 -804h-230l-541 676l-156 -172v-504h-180zM245 1849h168l194 -201h2l194 201h168l-292 -299h-142z" />
    <glyph glyph-name="uni01E9" unicode="&#x1e9;" horiz-adv-x="1026" 
d="M785 1078h212l-471 -466l485 -612h-202l-405 505l-102 -96v-409h-174v1506h174v-910zM-148 1912h168l194 -201h2l194 201h168l-292 -299h-142z" />
    <glyph glyph-name="uni01EA" unicode="&#x1ea;" horiz-adv-x="1497" 
d="M1119 -416q-40 -16 -108 -16q-106 0 -172 59t-66 153q0 128 103 212v5q-62 -21 -127 -21q-310 0 -488 199q-178 200 -178 547q0 345 179 545q178 200 487 200q308 0 486 -199q177 -200 177 -546q0 -377 -241 -604q-29 -27 -88 -77q-54 -45 -77 -69q-76 -75 -76 -152
q0 -53 34 -85q33 -32 88 -32q47 0 67 8v-127zM397 1145q-129 -155 -129 -423q0 -270 128 -425q129 -155 353 -155q222 0 350 155q128 156 128 425t-128 424t-350 155q-223 0 -352 -156z" />
    <glyph glyph-name="uni01EB" unicode="&#x1eb;" horiz-adv-x="1124" 
d="M605 -371q-64 62 -64 160q0 104 93 200v4q-27 -3 -73 -3q-227 0 -362 149t-135 400t135 400t362 149t362 -149t135 -400q0 -283 -185 -455q-175 -164 -175 -269q0 -52 33 -82q32 -31 86 -31q45 0 81 9v-123q-56 -20 -128 -20q-102 0 -165 61zM796 249q85 105 85 290
q0 186 -85 290q-84 104 -235 104t-235 -104q-85 -105 -85 -290t85 -290q85 -104 235 -104q151 0 235 104z" />
    <glyph glyph-name="uni01EC" unicode="&#x1ec;" horiz-adv-x="1497" 
d="M1065 1642h-634v106h634v-106zM1119 -416q-40 -16 -108 -16q-106 0 -172 59t-66 153q0 128 103 212v5q-62 -21 -127 -21q-310 0 -488 199q-178 200 -178 547q0 345 179 545q178 200 487 200q308 0 486 -199q177 -200 177 -546q0 -377 -241 -604q-29 -27 -88 -77
q-54 -45 -77 -69q-76 -75 -76 -152q0 -53 34 -85q33 -32 88 -32q47 0 67 8v-127zM397 1145q-129 -155 -129 -423q0 -270 128 -425q129 -155 353 -155q222 0 350 155q128 156 128 425t-128 424t-350 155q-223 0 -352 -156z" />
    <glyph glyph-name="uni01ED" unicode="&#x1ed;" horiz-adv-x="1124" 
d="M878 1320h-634v106h634v-106zM605 -371q-64 62 -64 160q0 104 93 200v4q-27 -3 -73 -3q-227 0 -362 149t-135 400t135 400t362 149t362 -149t135 -400q0 -283 -185 -455q-175 -164 -175 -269q0 -52 33 -82q32 -31 86 -31q45 0 81 9v-123q-56 -20 -128 -20q-102 0 -165 61
zM796 249q85 105 85 290q0 186 -85 290q-84 104 -235 104t-235 -104q-85 -105 -85 -290t85 -290q85 -104 235 -104q151 0 235 104z" />
    <glyph glyph-name="uni01F1" unicode="&#x1f1;" horiz-adv-x="2662" 
d="M634 1443q321 0 501 -190q180 -191 180 -531q0 -341 -180 -532q-179 -190 -501 -190h-495v1443h495zM319 162h303q245 0 377 145q132 144 132 413q0 271 -131 416q-132 145 -378 145h-303v-1119zM1496 128l823 1146v7h-795v162h1022v-128l-819 -1146v-7h836v-162h-1067
v128z" />
    <glyph glyph-name="uni01F2" unicode="&#x1f2;" horiz-adv-x="2389" 
d="M634 1443q321 0 501 -190q180 -191 180 -531q0 -341 -180 -532q-179 -190 -501 -190h-495v1443h495zM319 162h303q245 0 377 145q132 144 132 413q0 271 -131 416q-132 145 -378 145h-303v-1119zM1493 126l601 805v3h-600v144h796v-129l-597 -802v-3h600v-144h-800v126z
" />
    <glyph glyph-name="uni01F3" unicode="&#x1f3;" horiz-adv-x="2163" 
d="M193 141q-129 152 -129 398q0 245 129 398q127 151 329 151q241 0 344 -185h4v603h174v-1506h-166v182h-3q-108 -192 -349 -192q-204 0 -333 151zM329 825q-87 -108 -87 -286q0 -179 87 -287q86 -107 228 -107q140 0 227 109t87 285t-87 285t-227 109q-142 0 -228 -108z
M1267 126l601 805v3h-600v144h796v-129l-597 -802v-3h600v-144h-800v126z" />
    <glyph glyph-name="uni01F4" unicode="&#x1f4;" horiz-adv-x="1447" 
d="M1356 597q0 -293 -162 -457q-161 -164 -450 -164q-302 0 -482 204q-179 205 -179 549q0 338 179 538t482 200q234 0 398 -128q165 -129 205 -344h-189q-45 146 -153 226q-109 80 -261 80q-223 0 -349 -152q-127 -151 -127 -419q0 -272 128 -430t348 -158q192 0 312 113
q120 114 120 295v26h-407v158h587v-137zM673 1550l231 299h198l-281 -299h-148z" />
    <glyph glyph-name="uni01F5" unicode="&#x1f5;" horiz-adv-x="1163" 
d="M782 262q88 108 88 281q0 174 -88 282q-87 108 -229 108q-141 0 -226 -106q-85 -107 -85 -284q0 -176 85 -282t226 -106q142 0 229 107zM251 -304q-122 82 -141 216h181q19 -67 94 -107q74 -39 181 -39q140 0 222 68q82 67 82 182v169h-4q-108 -185 -346 -185
q-205 0 -330 149q-126 150 -126 394q0 247 126 396t334 149q238 0 351 -185h3v175h166v-1048q0 -193 -130 -304q-131 -111 -358 -111q-183 0 -305 81zM480 1250l211 300h198l-261 -300h-148z" />
    <glyph glyph-name="uni01F8" unicode="&#x1f8;" horiz-adv-x="1432" 
d="M139 0v1443h175l790 -1133h9v1133h178v-1443h-175l-790 1129h-9v-1129h-178zM360 1849h198l231 -299h-148z" />
    <glyph glyph-name="uni01F9" unicode="&#x1f9;" horiz-adv-x="1135" 
d="M117 1078h164v-175h4q103 185 352 185q178 0 281 -107q103 -106 103 -290v-691h-174v661q0 132 -67 202q-68 70 -195 70q-133 0 -213 -84q-81 -84 -81 -223v-626h-174v1078zM486 1250l-261 300h198l211 -300h-148z" />
    <glyph glyph-name="Aringacute" unicode="&#x1fa;" horiz-adv-x="1292" 
d="M932 413h-574l-145 -413h-189l532 1443h178l532 -1443h-189zM411 566h468l-231 658h-6zM505 1535q-59 58 -59 140t59 140q58 59 140 59t140 -59q59 -58 59 -140t-59 -140q-58 -59 -140 -59t-140 59zM728 1592q34 34 34 83t-34 83t-83 34t-83 -34t-34 -83t34 -83t83 -34
t83 34zM886 2095l-178 -185h-117l120 185h175z" />
    <glyph glyph-name="aringacute" unicode="&#x1fb;" horiz-adv-x="1062" 
d="M688 217q86 77 86 193v87l-282 -18q-246 -15 -246 -173q0 -75 61 -120q60 -45 162 -45q132 0 219 76zM168 77q-100 87 -100 230q0 139 104 218q104 80 300 92l302 18v90q0 100 -64 154t-183 54q-94 0 -158 -45q-65 -45 -81 -121h-167q4 136 121 229q117 92 287 92
q191 0 305 -94q114 -95 114 -254v-740h-165v187h-4q-46 -90 -140 -143q-94 -54 -207 -54q-164 0 -264 87zM385 1243q-59 58 -59 140t59 140q58 59 140 59t140 -59q59 -58 59 -140t-59 -140q-58 -59 -140 -59t-140 59zM443 1301q34 -34 82 -34t82 34t34 82t-34 82t-82 34
t-82 -34t-34 -82t34 -82zM581 1849h158l-159 -197h-120z" />
    <glyph glyph-name="AEacute" unicode="&#x1fc;" horiz-adv-x="1973" 
d="M480 612h482v680h-160zM962 459h-555l-217 -459h-185l687 1443h1144v-162h-694v-473h657v-160h-657v-486h694v-162h-874v459zM1328 1550l231 299h198l-281 -299h-148z" />
    <glyph glyph-name="aeacute" unicode="&#x1fd;" horiz-adv-x="1769" 
d="M872 213h-10q-134 -223 -406 -223q-178 0 -283 85t-105 228q0 140 104 220q105 81 298 91l303 15v77q0 100 -71 164q-70 63 -182 63q-105 0 -169 -45q-63 -44 -70 -121h-171q9 141 119 230q112 91 285 91q135 0 234 -56t138 -157h9q112 213 366 213q204 0 323 -143
q119 -142 119 -386v-67h-756v-11q0 -155 86 -246q85 -92 229 -92q97 0 165 44q67 43 91 121h172q-23 -141 -143 -229q-120 -89 -288 -89q-276 0 -387 223zM1038 852q-82 -84 -91 -222h575q-3 141 -77 223t-198 82q-127 0 -209 -83zM683 219q90 77 90 191v81l-285 -15
q-242 -12 -242 -170q0 -76 58 -120q58 -45 156 -45q132 0 223 78zM815 1250l211 300h198l-261 -300h-148z" />
    <glyph glyph-name="Oslashacute" unicode="&#x1fe;" horiz-adv-x="1498" 
d="M852 1550h-148l231 299h198zM469 230q116 -88 279 -88q221 0 351 156q129 157 129 423q0 227 -94 375zM1054 1191q-122 110 -306 110q-221 0 -351 -156q-129 -157 -129 -424q0 -249 113 -402zM1249 1247q164 -198 164 -526q0 -344 -179 -544q-179 -201 -486 -201
q-226 0 -387 113l-104 -136l-100 76l110 142q-184 203 -184 550q0 344 179 545t486 201q249 0 415 -134l120 155l98 -69z" />
    <glyph glyph-name="oslashacute" unicode="&#x1ff;" horiz-adv-x="1124" 
d="M654 1250h-148l211 300h198zM399 186q68 -41 162 -41q151 0 235 104q85 105 85 290q0 161 -65 263zM730 888q-70 45 -169 45q-151 0 -235 -104q-85 -105 -85 -290q0 -162 67 -266zM915 948q143 -151 143 -409q0 -251 -135 -400t-362 -149q-143 0 -253 62l-61 -89l-104 69
l66 96q-145 150 -145 411q0 251 135 400t362 149q148 0 260 -66l66 96l100 -64z" />
    <glyph glyph-name="uni0200" unicode="&#x200;" horiz-adv-x="1292" 
d="M932 413h-574l-145 -413h-189l532 1443h178l532 -1443h-189zM411 566h468l-231 658h-6zM450 1849h188l231 -299h-138zM140 1849h188l231 -299h-138z" />
    <glyph glyph-name="uni0201" unicode="&#x201;" horiz-adv-x="1062" 
d="M688 217q86 77 86 193v87l-282 -18q-246 -15 -246 -173q0 -75 61 -120q60 -45 162 -45q132 0 219 76zM168 77q-100 87 -100 230q0 139 104 218q104 80 300 92l302 18v90q0 100 -64 154t-183 54q-94 0 -158 -45q-65 -45 -81 -121h-167q4 136 121 229q117 92 287 92
q191 0 305 -94q114 -95 114 -254v-740h-165v187h-4q-46 -90 -140 -143q-94 -54 -207 -54q-164 0 -264 87zM299 1250l-255 300h195l196 -300h-136zM615 1250l-255 300h195l196 -300h-136z" />
    <glyph glyph-name="uni0202" unicode="&#x202;" horiz-adv-x="1292" 
d="M932 413h-574l-145 -413h-189l532 1443h178l532 -1443h-189zM411 566h468l-231 658h-6zM335 1550q0 132 86 216q87 83 224 83t224 -83q86 -84 86 -216h-119q0 83 -55 139q-55 57 -136 57t-136 -57q-55 -56 -55 -139h-119z" />
    <glyph glyph-name="uni0203" unicode="&#x203;" horiz-adv-x="1062" 
d="M688 217q86 77 86 193v87l-282 -18q-246 -15 -246 -173q0 -75 61 -120q60 -45 162 -45q132 0 219 76zM168 77q-100 87 -100 230q0 139 104 218q104 80 300 92l302 18v90q0 100 -64 154t-183 54q-94 0 -158 -45q-65 -45 -81 -121h-167q4 136 121 229q117 92 287 92
q191 0 305 -94q114 -95 114 -254v-740h-165v187h-4q-46 -90 -140 -143q-94 -54 -207 -54q-164 0 -264 87zM203 1250q0 138 89 224q90 86 233 86t233 -86q89 -86 89 -224h-123q0 86 -57 144q-58 59 -142 59t-141 -59q-58 -58 -58 -144h-123z" />
    <glyph glyph-name="uni0204" unicode="&#x204;" horiz-adv-x="1131" 
d="M1033 0h-894v1443h894v-162h-714v-463h677v-160h-677v-496h714v-162zM391 1849h188l231 -299h-138zM81 1849h188l231 -299h-138z" />
    <glyph glyph-name="uni0205" unicode="&#x205;" horiz-adv-x="1084" 
d="M337 851q-84 -84 -93 -221h593q-3 137 -83 221q-79 84 -207 84q-127 0 -210 -84zM1005 308q-22 -139 -148 -228q-126 -90 -299 -90q-227 0 -361 147q-133 147 -133 398t133 402t353 151q216 0 342 -142q126 -143 126 -387v-68h-774v-10q0 -154 87 -246t231 -92
q101 0 175 45q73 44 96 120h172zM324 1250l-255 300h195l196 -300h-136zM640 1250l-255 300h195l196 -300h-136z" />
    <glyph glyph-name="uni0206" unicode="&#x206;" horiz-adv-x="1131" 
d="M1033 0h-894v1443h894v-162h-714v-463h677v-160h-677v-496h714v-162zM276 1550q0 132 86 216q87 83 224 83t224 -83q86 -84 86 -216h-119q0 83 -55 139q-55 57 -136 57t-136 -57q-55 -56 -55 -139h-119z" />
    <glyph glyph-name="uni0207" unicode="&#x207;" horiz-adv-x="1084" 
d="M337 851q-84 -84 -93 -221h593q-3 137 -83 221q-79 84 -207 84q-127 0 -210 -84zM1005 308q-22 -139 -148 -228q-126 -90 -299 -90q-227 0 -361 147q-133 147 -133 398t133 402t353 151q216 0 342 -142q126 -143 126 -387v-68h-774v-10q0 -154 87 -246t231 -92
q101 0 175 45q73 44 96 120h172zM228 1250q0 138 89 224q90 86 233 86t233 -86q89 -86 89 -224h-123q0 86 -57 144q-58 59 -142 59t-141 -59q-58 -58 -58 -144h-123z" />
    <glyph glyph-name="uni0208" unicode="&#x208;" horiz-adv-x="460" 
d="M140 0v1443h180v-1443h-180zM35 1849h188l231 -299h-138zM-275 1849h188l231 -299h-138z" />
    <glyph glyph-name="uni0209" unicode="&#x209;" horiz-adv-x="430" 
d="M128 1078h174v-1078h-174v1078zM-11 1250l-255 300h195l196 -300h-136zM305 1250l-255 300h195l196 -300h-136z" />
    <glyph glyph-name="uni020A" unicode="&#x20a;" horiz-adv-x="460" 
d="M140 0v1443h180v-1443h-180zM-80 1550q0 132 86 216q87 83 224 83t224 -83q86 -84 86 -216h-119q0 83 -55 139q-55 57 -136 57t-136 -57q-55 -56 -55 -139h-119z" />
    <glyph glyph-name="uni020B" unicode="&#x20b;" horiz-adv-x="430" 
d="M128 1078h174v-1078h-174v1078zM-107 1250q0 138 89 224q90 86 233 86t233 -86q89 -86 89 -224h-123q0 86 -57 144q-58 59 -142 59t-141 -59q-58 -58 -58 -144h-123z" />
    <glyph glyph-name="uni020C" unicode="&#x20c;" horiz-adv-x="1498" 
d="M1234 1266q179 -201 179 -545t-179 -544q-179 -201 -486 -201t-486 201q-179 200 -179 544t179 545t486 201t486 -201zM397 1145q-129 -157 -129 -424q0 -266 129 -423q130 -156 351 -156t351 156q129 157 129 423q0 267 -129 424q-130 156 -351 156t-351 -156zM553 1849
h188l231 -299h-138zM243 1849h188l231 -299h-138z" />
    <glyph glyph-name="uni020D" unicode="&#x20d;" horiz-adv-x="1124" 
d="M199 139q-135 149 -135 400t135 400t362 149t362 -149t135 -400t-135 -400t-362 -149t-362 149zM796 249q85 105 85 290q0 186 -85 290q-84 104 -235 104t-235 -104q-85 -105 -85 -290t85 -290q85 -104 235 -104q151 0 235 104zM335 1250l-255 300h195l196 -300h-136z
M651 1250l-255 300h195l196 -300h-136z" />
    <glyph glyph-name="uni020E" unicode="&#x20e;" horiz-adv-x="1498" 
d="M1234 1266q179 -201 179 -545t-179 -544q-179 -201 -486 -201t-486 201q-179 200 -179 544t179 545t486 201t486 -201zM397 1145q-129 -157 -129 -424q0 -266 129 -423q130 -156 351 -156t351 156q129 157 129 423q0 267 -129 424q-130 156 -351 156t-351 -156zM438 1550
q0 132 86 216q87 83 224 83t224 -83q86 -84 86 -216h-119q0 83 -55 139q-55 57 -136 57t-136 -57q-55 -56 -55 -139h-119z" />
    <glyph glyph-name="uni020F" unicode="&#x20f;" horiz-adv-x="1124" 
d="M199 139q-135 149 -135 400t135 400t362 149t362 -149t135 -400t-135 -400t-362 -149t-362 149zM796 249q85 105 85 290q0 186 -85 290q-84 104 -235 104t-235 -104q-85 -105 -85 -290t85 -290q85 -104 235 -104q151 0 235 104zM239 1250q0 138 89 224q90 86 233 86
t233 -86q89 -86 89 -224h-123q0 86 -57 144q-58 59 -142 59t-141 -59q-58 -58 -58 -144h-123z" />
    <glyph glyph-name="uni0210" unicode="&#x210;" horiz-adv-x="1237" 
d="M319 730h355q139 0 214 72q76 72 76 205q0 130 -79 203t-219 73h-347v-553zM319 0h-180v1443h551q209 0 334 -117q126 -118 126 -313q0 -151 -77 -261t-213 -153l334 -599h-211l-309 571h-355v-571zM339 1849h188l231 -299h-138zM29 1849h188l231 -299h-138z" />
    <glyph glyph-name="uni0211" unicode="&#x211;" horiz-adv-x="649" 
d="M118 1078h164v-175h4q24 85 95 135t166 50q41 0 67 -7v-172q-28 12 -90 12q-105 0 -168 -70q-64 -70 -64 -184v-667h-174v1078zM140 1250l-255 300h195l196 -300h-136zM456 1250l-255 300h195l196 -300h-136z" />
    <glyph glyph-name="uni0212" unicode="&#x212;" horiz-adv-x="1237" 
d="M319 730h355q139 0 214 72q76 72 76 205q0 130 -79 203t-219 73h-347v-553zM319 0h-180v1443h551q209 0 334 -117q126 -118 126 -313q0 -151 -77 -261t-213 -153l334 -599h-211l-309 571h-355v-571zM224 1550q0 132 86 216q87 83 224 83t224 -83q86 -84 86 -216h-119
q0 83 -55 139q-55 57 -136 57t-136 -57q-55 -56 -55 -139h-119z" />
    <glyph glyph-name="uni0213" unicode="&#x213;" horiz-adv-x="649" 
d="M117 1078h164v-175h4q24 85 95 135t166 50q41 0 67 -7v-172q-28 12 -90 12q-105 0 -168 -70q-64 -70 -64 -184v-667h-174v1078zM43 1250q0 138 89 224q90 86 233 86t233 -86q89 -86 89 -224h-123q0 86 -57 144q-58 59 -142 59t-141 -59q-58 -58 -58 -144h-123z" />
    <glyph glyph-name="uni0214" unicode="&#x214;" horiz-adv-x="1426" 
d="M319 518q0 -167 103 -270q106 -106 290 -106t290 106q103 103 103 270v925h180v-937q0 -235 -152 -380q-157 -150 -421 -150t-421 150q-152 145 -152 380v937h180v-925zM517 1849h188l231 -299h-138zM207 1849h188l231 -299h-138z" />
    <glyph glyph-name="uni0215" unicode="&#x215;" horiz-adv-x="1135" 
d="M1016 0h-164v178h-4q-102 -188 -353 -188q-177 0 -280 107q-103 106 -103 290v691h174v-661q0 -132 68 -202q67 -70 194 -70q133 0 213 84q81 84 81 223v626h174v-1078zM338 1250l-255 300h195l196 -300h-136zM654 1250l-255 300h195l196 -300h-136z" />
    <glyph glyph-name="uni0216" unicode="&#x216;" horiz-adv-x="1426" 
d="M319 518q0 -167 103 -270q106 -106 290 -106t290 106q103 103 103 270v925h180v-937q0 -235 -152 -380q-157 -150 -421 -150t-421 150q-152 145 -152 380v937h180v-925zM402 1550q0 132 86 216q87 83 224 83t224 -83q86 -84 86 -216h-119q0 83 -55 139q-55 57 -136 57
t-136 -57q-55 -56 -55 -139h-119z" />
    <glyph glyph-name="uni0217" unicode="&#x217;" horiz-adv-x="1135" 
d="M1016 0h-164v178h-4q-102 -188 -353 -188q-177 0 -280 107q-103 106 -103 290v691h174v-661q0 -132 68 -202q67 -70 194 -70q133 0 213 84q81 84 81 223v626h174v-1078zM242 1250q0 138 89 224q90 86 233 86t233 -86q89 -86 89 -224h-123q0 86 -57 144q-58 59 -142 59
t-141 -59q-58 -58 -58 -144h-123z" />
    <glyph glyph-name="uni0218" unicode="&#x218;" horiz-adv-x="1216" 
d="M251 397q13 -117 115 -188q101 -71 256 -71q146 0 242 69q95 70 95 176q0 91 -67 151q-66 58 -212 96l-185 48q-200 51 -292 143q-92 91 -92 238q0 180 143 294q142 114 367 114q215 0 356 -115q141 -116 147 -297h-180q-12 116 -100 183t-229 67q-140 0 -229 -66
q-88 -66 -88 -172q0 -82 65 -134q64 -53 211 -91l151 -40q224 -56 322 -149t98 -248q0 -198 -145 -313q-146 -116 -395 -116q-230 0 -376 115t-159 306h181zM464 -541l91 369h153l-118 -369h-126z" />
    <glyph glyph-name="uni0219" unicode="&#x219;" horiz-adv-x="984" 
d="M211 1000q111 87 287 87q164 0 276 -88q111 -87 116 -220h-167q-8 76 -70 120t-161 44q-100 0 -161 -43t-61 -114q0 -107 182 -153l164 -41q163 -41 230 -106q66 -64 66 -182q0 -138 -120 -226q-119 -88 -306 -88q-174 0 -289 86q-115 87 -128 227h175q28 -169 254 -169
q110 0 175 43q64 42 64 115q0 57 -38 91q-38 33 -130 57l-189 49q-281 73 -281 288q0 136 112 223zM345 -541l91 369h153l-118 -369h-126z" />
    <glyph glyph-name="uni021A" unicode="&#x21a;" horiz-adv-x="1210" 
d="M514 0v1281h-465v162h1110v-162h-465v-1281h-180zM463 -541l91 369h153l-118 -369h-126z" />
    <glyph glyph-name="uni021B" unicode="&#x21b;" horiz-adv-x="634" 
d="M348 1321v-243h210v-144h-210v-647q0 -144 134 -144q45 0 75 5v-147q-38 -9 -112 -9q-146 0 -209 66q-62 67 -62 222v654h-150v144h150v243h174zM225 -541l91 369h153l-118 -369h-126z" />
    <glyph glyph-name="uni021E" unicode="&#x21e;" horiz-adv-x="1432" 
d="M1111 0v657h-792v-657h-180v1443h180v-624h792v624h180v-1443h-180zM352 1849h168l194 -201h2l194 201h168l-292 -299h-142z" />
    <glyph glyph-name="uni021F" unicode="&#x21f;" horiz-adv-x="1166" 
d="M128 1506h174v-603h4q102 185 352 185q177 0 286 -110t109 -290v-688h-174v657q0 129 -72 203q-73 73 -201 73q-137 0 -220 -86q-84 -86 -84 -227v-620h-174v1506zM-147 1912h168l194 -201h2l194 201h168l-292 -299h-142z" />
    <glyph glyph-name="uni0226" unicode="&#x226;" horiz-adv-x="1292" 
d="M932 413h-574l-145 -413h-189l532 1443h178l532 -1443h-189zM411 566h468l-231 658h-6zM559 1620q-35 36 -35 86t35 86q36 35 86 35t86 -35q35 -36 35 -86t-35 -86q-36 -35 -86 -35t-86 35z" />
    <glyph glyph-name="uni0227" unicode="&#x227;" horiz-adv-x="1062" 
d="M688 217q86 77 86 193v87l-282 -18q-246 -15 -246 -173q0 -75 61 -120q60 -45 162 -45q132 0 219 76zM168 77q-100 87 -100 230q0 139 104 218q104 80 300 92l302 18v90q0 100 -64 154t-183 54q-94 0 -158 -45q-65 -45 -81 -121h-167q4 136 121 229q117 92 287 92
q191 0 305 -94q114 -95 114 -254v-740h-165v187h-4q-46 -90 -140 -143q-94 -54 -207 -54q-164 0 -264 87zM438 1298q-37 36 -37 87t37 88q36 36 87 36t88 -36q36 -37 36 -88t-36 -87q-37 -37 -88 -37t-87 37z" />
    <glyph glyph-name="uni0228" unicode="&#x228;" horiz-adv-x="1131" 
d="M319 1281v-463h677v-160h-677v-496h714v-162h-379l-52 -142q209 0 209 -150q0 -76 -62 -126t-157 -51q-83 -1 -147 17v98q38 -15 122 -15q120 0 120 73q0 66 -150 66h-55v74l60 156h-403v1443h894v-162h-714z" />
    <glyph glyph-name="uni0229" unicode="&#x229;" horiz-adv-x="1084" 
d="M837 630q-3 137 -83 221q-79 84 -207 84q-127 0 -210 -84q-84 -84 -93 -221h593zM244 491v-10q0 -154 87 -246t231 -92q101 0 175 45q73 44 96 120h172q-20 -125 -126 -211q-105 -86 -255 -103l-50 -136q209 0 209 -150q0 -76 -62 -126t-157 -51q-83 -1 -147 17v98
q38 -15 122 -15q120 0 120 73q0 66 -150 66h-55v74l57 148q-207 16 -327 161t-120 382q0 251 133 402t353 151q216 0 342 -142q126 -143 126 -387v-68h-774z" />
    <glyph glyph-name="uni022A" unicode="&#x22a;" horiz-adv-x="1498" 
d="M1234 1266q179 -201 179 -545t-179 -544q-179 -201 -486 -201t-486 201q-179 200 -179 544t179 545t486 201t486 -201zM397 1145q-129 -157 -129 -424q0 -266 129 -423q130 -156 351 -156t351 156q129 157 129 423q0 267 -129 424q-130 156 -351 156t-351 -156zM631 1761
q29 -30 29 -70q0 -41 -29 -70t-69 -29q-41 0 -70 29t-29 70t29 70t70 29q40 0 69 -29zM1065 2025v-106h-634v106h634zM1004 1761q29 -29 29 -70t-29 -70t-70 -29q-40 0 -69 29t-29 70q0 40 29 70q29 29 69 29q41 0 70 -29z" />
    <glyph glyph-name="uni022B" unicode="&#x22b;" horiz-adv-x="1124" 
d="M199 139q-135 149 -135 400t135 400t362 149t362 -149t135 -400t-135 -400t-362 -149t-362 149zM796 249q85 105 85 290q0 186 -85 290q-84 104 -235 104t-235 -104q-85 -105 -85 -290t85 -290q85 -104 235 -104q151 0 235 104zM288 1292q-31 32 -31 76q0 45 31 76
q32 31 76 31q45 0 76 -31t31 -76q0 -44 -31 -76q-31 -31 -76 -31q-44 0 -76 31zM682 1292q-31 32 -31 76q0 45 31 76q32 31 76 31q45 0 76 -31t31 -76q0 -44 -31 -76q-31 -31 -76 -31q-44 0 -76 31zM878 1658h-634v106h634v-106z" />
    <glyph glyph-name="uni022C" unicode="&#x22c;" horiz-adv-x="1498" 
d="M1234 1266q179 -201 179 -545t-179 -544q-179 -201 -486 -201t-486 201q-179 200 -179 544t179 545t486 201t486 -201zM397 1145q-129 -157 -129 -424q0 -266 129 -423q130 -156 351 -156t351 156q129 157 129 423q0 267 -129 424q-130 156 -351 156t-351 -156zM729 1611
q-73 76 -106 76q-69 0 -69 -137h-114q0 118 47 184t131 66q77 0 151 -76t103 -76q62 0 62 138h114q0 -115 -48 -183t-128 -68q-71 0 -143 76zM1065 1919h-634v106h634v-106z" />
    <glyph glyph-name="uni022D" unicode="&#x22d;" horiz-adv-x="1124" 
d="M199 139q-135 149 -135 400t135 400t362 149t362 -149t135 -400t-135 -400t-362 -149t-362 149zM796 249q85 105 85 290q0 186 -85 290q-84 104 -235 104t-235 -104q-85 -105 -85 -290t85 -290q85 -104 235 -104q151 0 235 104zM550 1322q-73 76 -106 76q-69 0 -69 -137
h-114q0 118 47 184t131 66q77 0 151 -76t103 -76q62 0 62 138h114q0 -115 -48 -183t-128 -68q-71 0 -143 76zM878 1658h-634v106h634v-106z" />
    <glyph glyph-name="uni022E" unicode="&#x22e;" horiz-adv-x="1498" 
d="M1234 1266q179 -201 179 -545t-179 -544q-179 -201 -486 -201t-486 201q-179 200 -179 544t179 545t486 201t486 -201zM397 1145q-129 -157 -129 -424q0 -266 129 -423q130 -156 351 -156t351 156q129 157 129 423q0 267 -129 424q-130 156 -351 156t-351 -156zM662 1620
q-35 36 -35 86t35 86q36 35 86 35t86 -35q35 -36 35 -86t-35 -86q-36 -35 -86 -35t-86 35z" />
    <glyph glyph-name="uni022F" unicode="&#x22f;" horiz-adv-x="1124" 
d="M199 139q-135 149 -135 400t135 400t362 149t362 -149t135 -400t-135 -400t-362 -149t-362 149zM796 249q85 105 85 290q0 186 -85 290q-84 104 -235 104t-235 -104q-85 -105 -85 -290t85 -290q85 -104 235 -104q151 0 235 104zM474 1298q-37 36 -37 87t37 88
q36 36 87 36t88 -36q36 -37 36 -88t-36 -87q-37 -37 -88 -37t-87 37z" />
    <glyph glyph-name="uni0230" unicode="&#x230;" horiz-adv-x="1498" 
d="M1234 1266q179 -201 179 -545t-179 -544q-179 -201 -486 -201t-486 201q-179 200 -179 544t179 545t486 201t486 -201zM397 1145q-129 -157 -129 -424q0 -266 129 -423q130 -156 351 -156t351 156q129 157 129 423q0 267 -129 424q-130 156 -351 156t-351 -156zM665 1608
q-34 34 -34 83q0 47 34 81t83 34t83 -34t34 -81q0 -49 -34 -83t-83 -34t-83 34zM1065 1919h-634v106h634v-106z" />
    <glyph glyph-name="uni0231" unicode="&#x231;" horiz-adv-x="1124" 
d="M199 139q-135 149 -135 400t135 400t362 149t362 -149t135 -400t-135 -400t-362 -149t-362 149zM796 249q85 105 85 290q0 186 -85 290q-84 104 -235 104t-235 -104q-85 -105 -85 -290t85 -290q85 -104 235 -104q151 0 235 104zM475 1297q-36 35 -36 86q0 50 36 86
q37 36 86 36q50 0 86 -36t36 -86q0 -51 -36 -86q-36 -36 -86 -36t-86 36zM878 1658h-634v106h634v-106z" />
    <glyph glyph-name="uni0232" unicode="&#x232;" horiz-adv-x="1254" 
d="M536 0v621l-512 822h205l394 -648h6l394 648h205l-512 -822v-621h-180zM943 1642h-634v106h634v-106z" />
    <glyph glyph-name="uni0233" unicode="&#x233;" horiz-adv-x="1026" 
d="M133 -384v147q30 -6 71 -6q75 0 120 40q45 41 78 138l21 64l-399 1079h185l302 -901h4l302 901h183l-422 -1144q-69 -187 -147 -256q-79 -69 -222 -69q-39 0 -76 7zM830 1320h-634v106h634v-106z" />
    <glyph glyph-name="uni0237" unicode="&#x237;" horiz-adv-x="428" 
d="M300 -81q0 -165 -79 -241t-251 -76h-30v147h26q89 0 126 38q36 37 36 129v1162h172v-1159z" />
    <glyph glyph-name="circumflex" unicode="&#x2c6;" horiz-adv-x="1006" 
d="M841 1250h-163l-173 197h-6l-173 -197h-163l277 300h124z" />
    <glyph glyph-name="caron" unicode="&#x2c7;" horiz-adv-x="1006" 
d="M440 1250l-277 300h163l173 -197h6l173 197h163l-277 -300h-124z" />
    <glyph glyph-name="breve" unicode="&#x2d8;" horiz-adv-x="1000" 
d="M300 1550q0 -86 58 -144q57 -59 141 -59t142 59q57 58 57 144h123q0 -138 -89 -224q-90 -86 -233 -86t-233 86q-89 86 -89 224h123z" />
    <glyph glyph-name="dotaccent" unicode="&#x2d9;" horiz-adv-x="898" 
d="M361 1298q-37 36 -37 87t37 88q36 36 87 36t88 -36q36 -37 36 -88t-36 -87q-37 -37 -88 -37t-87 37z" />
    <glyph glyph-name="ring" unicode="&#x2da;" horiz-adv-x="1048" 
d="M383 1245q-59 58 -59 140t59 140q58 59 140 59t140 -59q59 -58 59 -140t-59 -140q-58 -59 -140 -59t-140 59zM605 1303q34 34 34 82t-34 82t-82 34t-82 -34t-34 -82t34 -82t82 -34t82 34z" />
    <glyph glyph-name="ogonek" unicode="&#x2db;" horiz-adv-x="1000" 
d="M668 -449q-51 -16 -118 -16q-96 0 -154 51q-58 50 -58 135q0 153 171 279h112q-139 -120 -139 -230q0 -48 31 -76q32 -29 85 -29q36 0 70 9v-123z" />
    <glyph glyph-name="tilde" unicode="&#x2dc;" horiz-adv-x="1006" 
d="M487 1334q-73 76 -106 76q-69 0 -69 -137h-114q0 118 47 184t131 66q77 0 151 -76t103 -76q62 0 62 138h114q0 -115 -48 -183t-128 -68q-71 0 -143 76z" />
    <glyph glyph-name="hungarumlaut" unicode="&#x2dd;" horiz-adv-x="1000" 
d="M665 1550h195l-255 -300h-136zM349 1550h195l-255 -300h-136z" />
    <glyph glyph-name="gravecomb" unicode="&#x300;" 
d="M-83 1250l-261 300h198l211 -300h-148z" />
    <glyph glyph-name="acutecomb" unicode="&#x301;" 
d="M-74 1250l211 300h198l-261 -300h-148z" />
    <glyph glyph-name="uni0302" unicode="&#x302;" 
d="M339 1250h-163l-173 197h-6l-173 -197h-163l277 300h124z" />
    <glyph glyph-name="tildecomb" unicode="&#x303;" 
d="M-11 1334q-73 76 -106 76q-69 0 -69 -137h-114q0 118 47 184t131 66q77 0 151 -76t103 -76q62 0 62 138h114q0 -115 -48 -183t-128 -68q-71 0 -143 76z" />
    <glyph glyph-name="uni0304" unicode="&#x304;" 
d="M317 1320h-634v106h634v-106z" />
    <glyph glyph-name="uni0306" unicode="&#x306;" 
d="M-200 1550q0 -86 58 -144q57 -59 141 -59t142 59q57 58 57 144h123q0 -138 -89 -224q-90 -86 -233 -86t-233 86q-89 86 -89 224h123z" />
    <glyph glyph-name="uni0307" unicode="&#x307;" 
d="M-87 1298q-37 36 -37 87t37 88q36 36 87 36t88 -36q36 -37 36 -88t-36 -87q-37 -37 -88 -37t-87 37z" />
    <glyph glyph-name="uni0308" unicode="&#x308;" 
d="M-276 1294q-33 33 -33 79t33 79t79 33q47 0 79 -33q33 -32 33 -79q0 -46 -33 -79t-79 -33t-79 33zM118 1294q-33 33 -33 79t33 79t79 33q47 0 79 -33q33 -32 33 -79q0 -46 -33 -79t-79 -33t-79 33z" />
    <glyph glyph-name="hookabovecomb" unicode="&#x309;" 
d="M-115 1535q60 25 134 25q85 0 137 -48q51 -47 51 -127q0 -63 -44 -116q-44 -54 -118 -80l-61 84q92 31 92 105q0 32 -26 54t-63 22q-46 0 -102 -24v105z" />
    <glyph glyph-name="uni030A" unicode="&#x30a;" 
d="M-140 1243q-59 58 -59 140t59 140q58 59 140 59t140 -59q59 -58 59 -140t-59 -140q-58 -59 -140 -59t-140 59zM82 1301q34 34 34 82t-34 82t-82 34t-82 -34t-34 -82t34 -82t82 -34t82 34z" />
    <glyph glyph-name="uni030B" unicode="&#x30b;" 
d="M286 1550h195l-255 -300h-136zM-30 1550h195l-255 -300h-136z" />
    <glyph glyph-name="uni030C" unicode="&#x30c;" 
d="M-62 1250l-277 300h163l173 -197h6l173 197h163l-277 -300h-124z" />
    <glyph glyph-name="uni030F" unicode="&#x30f;" 
d="M-226 1250l-255 300h195l196 -300h-136zM90 1250l-255 300h195l196 -300h-136z" />
    <glyph glyph-name="uni0311" unicode="&#x311;" 
d="M-322 1250q0 138 89 224q90 86 233 86t233 -86q89 -86 89 -224h-123q0 86 -57 144q-58 59 -142 59t-141 -59q-58 -58 -58 -144h-123z" />
    <glyph glyph-name="uni031B" unicode="&#x31b;" 
d="M0 1111q40 -43 103 -43q65 0 93 40q28 41 28 133v156h159v-204q0 -118 -68 -191q-69 -74 -179 -74q-81 0 -136 44v139z" />
    <glyph glyph-name="dotbelowcomb" unicode="&#x323;" 
d="M-86 -357q-35 36 -35 86t35 86q36 35 86 35t86 -35q35 -36 35 -86t-35 -86q-36 -35 -86 -35t-86 35z" />
    <glyph glyph-name="uni0324" unicode="&#x324;" 
d="M-276 -351q-33 33 -33 79t33 79t79 33q47 0 79 -33q33 -32 33 -79q0 -46 -33 -79t-79 -33t-79 33zM118 -351q-33 33 -33 79t33 79t79 33q47 0 79 -33q33 -32 33 -79q0 -46 -33 -79t-79 -33t-79 33z" />
    <glyph glyph-name="uni0325" unicode="&#x325;" 
d="M-140 -499q-59 58 -59 140t59 140q58 59 140 59t140 -59q59 -58 59 -140t-59 -140q-58 -59 -140 -59t-140 59zM82 -441q34 34 34 82t-34 82t-82 34t-82 -34t-34 -82t34 -82t82 -34t82 34z" />
    <glyph glyph-name="uni0326" unicode="&#x326;" 
d="M-141 -541l91 369h153l-118 -369h-126z" />
    <glyph glyph-name="uni0327" unicode="&#x327;" 
d="M-104 -156l63 164l109 -8l-52 -142q209 0 209 -150q0 -76 -62 -126t-157 -51q-83 -1 -147 17v98q38 -15 122 -15q120 0 120 73q0 66 -150 66h-55v74z" />
    <glyph glyph-name="uni0328" unicode="&#x328;" 
d="M115 -449q-51 -16 -118 -16q-96 0 -154 51q-58 50 -58 135q0 153 171 279h112q-139 -120 -139 -230q0 -48 31 -76q32 -29 85 -29q36 0 70 9v-123z" />
    <glyph glyph-name="uni032D" unicode="&#x32d;" 
d="M71 -166l292 -299h-168l-194 201h-2l-194 -201h-168l292 299h142z" />
    <glyph glyph-name="uni032E" unicode="&#x32e;" 
d="M-191 -196q0 -83 55 -139q55 -57 136 -57t136 57q55 56 55 139h119q0 -132 -86 -215q-87 -84 -224 -84t-224 84q-86 83 -86 215h119z" />
    <glyph glyph-name="uni0330" unicode="&#x330;" 
d="M-15 -339q-73 76 -106 76q-69 0 -69 -137h-114q0 118 47 184t131 66q77 0 151 -76t103 -76q62 0 62 138h114q0 -115 -48 -183t-128 -68q-71 0 -143 76z" />
    <glyph glyph-name="uni0331" unicode="&#x331;" 
d="M317 -326h-634v106h634v-106z" />
    <glyph glyph-name="uni037E" unicode="&#x37e;" horiz-adv-x="520" 
d="M178 759q-33 33 -33 81q0 49 33 81q33 33 81 33q49 0 81 -33q33 -32 33 -81q0 -48 -33 -81q-32 -33 -81 -33q-48 0 -81 33zM61 -257l98 459h187l-150 -459h-135z" />
    <glyph glyph-name="tonos" unicode="&#x384;" horiz-adv-x="895" 
d="M376 1560h221l-155 -310h-144z" />
    <glyph glyph-name="dieresistonos" unicode="&#x385;" horiz-adv-x="1210" 
d="M245 1294q-33 33 -33 79t33 79t79 33q47 0 79 -33q33 -32 33 -79q0 -46 -33 -79t-79 -33t-79 33zM805 1294q-33 33 -33 79t33 79t79 33q47 0 79 -33q33 -32 33 -79q0 -46 -33 -79t-79 -33t-79 33zM498 1250l31 310h211l-108 -310h-134z" />
    <glyph glyph-name="Alphatonos" unicode="&#x386;" horiz-adv-x="1292" 
d="M932 413h-574l-145 -413h-189l532 1443h178l532 -1443h-189zM411 566h468l-231 658h-6zM103 1133l78 310h221l-155 -310h-144z" />
    <glyph glyph-name="anoteleia" unicode="&#x387;" horiz-adv-x="520" 
d="M178 893q-33 33 -33 81q0 49 33 81q33 33 81 33q49 0 81 -33q33 -32 33 -81q0 -48 -33 -81q-32 -33 -81 -33q-48 0 -81 33z" />
    <glyph glyph-name="Epsilontonos" unicode="&#x388;" horiz-adv-x="1472" 
d="M1374 0h-894v1443h894v-162h-714v-463h677v-160h-677v-496h714v-162zM59 1133l78 310h221l-155 -310h-144z" />
    <glyph glyph-name="Etatonos" unicode="&#x389;" horiz-adv-x="1773" 
d="M1452 0v657h-792v-657h-180v1443h180v-624h792v624h180v-1443h-180zM59 1133l78 310h221l-155 -310h-144z" />
    <glyph glyph-name="Iotatonos" unicode="&#x38a;" horiz-adv-x="801" 
d="M480 0v1443h180v-1443h-180zM59 1133l78 310h221l-155 -310h-144z" />
    <glyph glyph-name="Omicrontonos" unicode="&#x38c;" horiz-adv-x="1679" 
d="M1415 1266q179 -201 179 -545t-179 -544q-179 -201 -486 -201t-486 201q-179 200 -179 544t179 545t486 201t486 -201zM578 1145q-129 -157 -129 -424q0 -266 129 -423q130 -156 351 -156t351 156q129 157 129 423q0 267 -129 424q-130 156 -351 156t-351 -156zM35 1133
l78 310h221l-155 -310h-144z" />
    <glyph glyph-name="Upsilontonos" unicode="&#x38e;" horiz-adv-x="1625" 
d="M907 0v621l-512 822h205l394 -648h6l394 648h205l-512 -822v-621h-180zM39 1133l78 310h221l-155 -310h-144z" />
    <glyph glyph-name="Omegatonos" unicode="&#x38f;" horiz-adv-x="1714" 
d="M1296 1164q-128 137 -348 137t-348 -137q-127 -137 -127 -371q0 -373 341 -600v-193h-526v162h311v7q-148 102 -229 266q-82 164 -82 362q0 298 182 484q183 186 478 186t478 -186q182 -186 182 -484q0 -198 -82 -362q-81 -164 -229 -266v-7h311v-162h-526v193
q341 227 341 600q0 234 -127 371zM35 1133l78 310h221l-155 -310h-144z" />
    <glyph glyph-name="iotadieresistonos" unicode="&#x390;" horiz-adv-x="578" 
d="M184 62q-71 69 -71 226v790h172v-748q0 -97 38 -142q39 -45 122 -45q44 0 83 8l10 -149q-44 -10 -116 -10q-166 0 -238 70zM-122 1294q-33 33 -33 79t33 79t79 33q47 0 79 -33q33 -32 33 -79q0 -46 -33 -79t-79 -33t-79 33zM438 1294q-33 33 -33 79t33 79t79 33
q47 0 79 -33q33 -32 33 -79q0 -46 -33 -79t-79 -33t-79 33zM131 1250l31 310h211l-108 -310h-134z" />
    <glyph glyph-name="Alpha" unicode="&#x391;" horiz-adv-x="1292" 
d="M932 413h-574l-145 -413h-189l532 1443h178l532 -1443h-189zM411 566h468l-231 658h-6z" />
    <glyph glyph-name="Beta" unicode="&#x392;" horiz-adv-x="1256" 
d="M139 0v1443h565q186 0 300 -99t114 -261q0 -113 -72 -204q-73 -92 -177 -111v-8q147 -19 235 -115q87 -96 87 -240q0 -191 -129 -298q-130 -107 -360 -107h-563zM319 821h288q160 0 244 62q85 62 85 179q0 107 -71 165q-71 57 -202 57h-344v-463zM675 159q331 0 331 255
q0 252 -348 252h-339v-507h356z" />
    <glyph glyph-name="Gamma" unicode="&#x393;" horiz-adv-x="1061" 
d="M139 0v1443h856v-162h-676v-1281h-180z" />
    <glyph glyph-name="uni0394" unicode="&#x394;" horiz-adv-x="1298" 
d="M54 0v127l505 1316h178l505 -1316v-127h-1188zM255 162h786v7l-390 1065h-6l-390 -1065v-7z" />
    <glyph glyph-name="Epsilon" unicode="&#x395;" horiz-adv-x="1131" 
d="M1033 0h-894v1443h894v-162h-714v-463h677v-160h-677v-496h714v-162z" />
    <glyph glyph-name="Zeta" unicode="&#x396;" horiz-adv-x="1263" 
d="M97 128l823 1146v7h-795v162h1022v-128l-819 -1146v-7h836v-162h-1067v128z" />
    <glyph glyph-name="Eta" unicode="&#x397;" horiz-adv-x="1432" 
d="M1111 0v657h-792v-657h-180v1443h180v-624h792v624h180v-1443h-180z" />
    <glyph glyph-name="Theta" unicode="&#x398;" horiz-adv-x="1508" 
d="M451 638v162h605v-162h-605zM1245 1266q178 -200 178 -545t-178 -544q-180 -201 -492 -201q-311 0 -491 201q-179 200 -179 544t179 545q180 201 491 201q312 0 492 -201zM398 1145q-130 -156 -130 -424q0 -267 130 -423t355 -156q226 0 356 156q129 156 129 423
q0 268 -128 424q-130 156 -357 156q-225 0 -355 -156z" />
    <glyph glyph-name="Iota" unicode="&#x399;" horiz-adv-x="460" 
d="M139 0v1443h180v-1443h-180z" />
    <glyph glyph-name="Kappa" unicode="&#x39a;" horiz-adv-x="1260" 
d="M139 0v1443h180v-704h10l637 704h227l-593 -639l646 -804h-230l-541 676l-156 -172v-504h-180z" />
    <glyph glyph-name="Lambda" unicode="&#x39b;" horiz-adv-x="1252" 
d="M628 1214h-6l-409 -1214h-189l512 1443h178l512 -1443h-189z" />
    <glyph glyph-name="Mu" unicode="&#x39c;" horiz-adv-x="1702" 
d="M1561 0h-168v1112h-7l-460 -1102h-152l-460 1102h-7v-1112h-168v1443h209l498 -1204h8l498 1204h209v-1443z" />
    <glyph glyph-name="Nu" unicode="&#x39d;" horiz-adv-x="1432" 
d="M139 0v1443h175l790 -1133h9v1133h178v-1443h-175l-790 1129h-9v-1129h-178z" />
    <glyph glyph-name="Xi" unicode="&#x39e;" horiz-adv-x="1253" 
d="M1155 1443v-164h-1059v164h1059zM183 654v162h885v-162h-885zM1155 164v-164h-1059v164h1059z" />
    <glyph glyph-name="Omicron" unicode="&#x39f;" horiz-adv-x="1498" 
d="M1234 1266q179 -201 179 -545t-179 -544q-179 -201 -486 -201t-486 201q-179 200 -179 544t179 545t486 201t486 -201zM397 1145q-129 -157 -129 -424q0 -266 129 -423q130 -156 351 -156t351 156q129 157 129 423q0 267 -129 424q-130 156 -351 156t-351 -156z" />
    <glyph glyph-name="Pi" unicode="&#x3a0;" horiz-adv-x="1412" 
d="M1091 0v1281h-772v-1281h-180v1443h1132v-1443h-180z" />
    <glyph glyph-name="Rho" unicode="&#x3a1;" horiz-adv-x="1213" 
d="M684 1443q204 0 333 -129t129 -334t-130 -335t-334 -130h-363v-515h-180v1443h545zM319 675h318q154 0 239 81q85 80 85 224t-84 223q-85 80 -240 80h-318v-608z" />
    <glyph glyph-name="Sigma" unicode="&#x3a3;" horiz-adv-x="1233" 
d="M315 162h819v-162h-1037v128l419 597l-402 576v142h992v-162h-769v-7l372 -533v-7l-394 -565v-7z" />
    <glyph glyph-name="Tau" unicode="&#x3a4;" horiz-adv-x="1210" 
d="M514 0v1281h-465v162h1110v-162h-465v-1281h-180z" />
    <glyph glyph-name="Upsilon" unicode="&#x3a5;" horiz-adv-x="1254" 
d="M536 0v621l-512 822h205l394 -648h6l394 648h205l-512 -822v-621h-180z" />
    <glyph glyph-name="Phi" unicode="&#x3a6;" horiz-adv-x="1608" 
d="M1235 1056q-124 126 -342 134v-944q218 8 342 134q124 125 124 338t-124 338zM371 380q124 -126 342 -134v944q-218 -8 -342 -134q-124 -125 -124 -338t124 -338zM713 -58v143q-298 13 -474 185q-176 171 -176 448t176 448q176 172 474 185v146h180v-146
q298 -13 474 -185q176 -171 176 -448t-176 -448q-176 -172 -474 -185v-143h-180z" />
    <glyph glyph-name="Chi" unicode="&#x3a7;" horiz-adv-x="1300" 
d="M535 723v7l-485 713h217l385 -580h7l390 580h205l-498 -722v-6l487 -715h-216l-383 575h-7l-389 -575h-204z" />
    <glyph glyph-name="Psi" unicode="&#x3a8;" horiz-adv-x="1538" 
d="M678 0v339q-261 1 -420 154q-159 154 -159 405v545h180v-539q0 -187 104 -291q103 -103 295 -108v938h180v-938q192 5 296 108q103 104 103 291v539h180v-545q0 -251 -159 -405q-160 -154 -420 -154v-339h-180z" />
    <glyph glyph-name="uni03A9" unicode="&#x3a9;" horiz-adv-x="1530" 
d="M1112 1164q-128 137 -348 137t-348 -137q-127 -137 -127 -371q0 -373 341 -600v-193h-526v162h311v7q-148 102 -229 266q-82 164 -82 362q0 298 182 484q183 186 478 186t478 -186q182 -186 182 -484q0 -198 -82 -362q-81 -164 -229 -266v-7h311v-162h-526v193
q341 227 341 600q0 234 -127 371z" />
    <glyph glyph-name="Iotadieresis" unicode="&#x3aa;" horiz-adv-x="460" 
d="M140 0v1443h180v-1443h-180zM-46 1618q-33 33 -33 79t33 79t79 33q47 0 79 -33q33 -32 33 -79q0 -46 -33 -79t-79 -33t-79 33zM348 1618q-33 33 -33 79t33 79t79 33q47 0 79 -33q33 -32 33 -79q0 -46 -33 -79t-79 -33t-79 33z" />
    <glyph glyph-name="Upsilondieresis" unicode="&#x3ab;" horiz-adv-x="1254" 
d="M536 0v621l-512 822h205l394 -648h6l394 648h205l-512 -822v-621h-180zM350 1618q-33 33 -33 79t33 79t79 33q47 0 79 -33q33 -32 33 -79q0 -46 -33 -79t-79 -33t-79 33zM744 1618q-33 33 -33 79t33 79t79 33q47 0 79 -33q33 -32 33 -79q0 -46 -33 -79t-79 -33t-79 33z
" />
    <glyph glyph-name="alphatonos" unicode="&#x3ac;" horiz-adv-x="1229" 
d="M762 255q88 108 88 285q0 174 -88 284q-87 110 -226 110q-132 0 -213 -108q-81 -109 -81 -286q0 -182 78 -288t211 -106q143 0 231 109zM189 143q-125 152 -125 397t126 397t329 152q107 0 197 -49q89 -50 139 -136h3v175h166v-795q0 -71 22 -103q22 -31 72 -31
q28 0 55 8l10 -149q-44 -10 -94 -10q-210 0 -239 177h-4q-44 -82 -135 -133q-92 -52 -193 -52q-203 0 -329 152zM554 1560h221l-155 -310h-144z" />
    <glyph glyph-name="epsilontonos" unicode="&#x3ad;" horiz-adv-x="1071" 
d="M199 73q-115 82 -115 220q0 186 195 243v4q-176 62 -176 237q0 138 121 225q120 86 313 86q211 0 330 -95q114 -91 129 -256h-174q-19 103 -78 147q-66 49 -207 49q-126 0 -196 -42q-71 -43 -71 -119q0 -71 67 -112q67 -42 182 -42h154v-149h-154q-120 0 -189 -43
q-68 -43 -68 -118q0 -163 266 -163q269 0 308 191h174q-25 -159 -155 -252q-133 -94 -338 -94q-202 0 -318 83zM546 1560h221l-155 -310h-144z" />
    <glyph glyph-name="etatonos" unicode="&#x3ae;" horiz-adv-x="1247" 
d="M959 -360v1004q0 289 -259 289q-127 0 -207 -85t-80 -220v-628h-174v794q0 135 -100 135q-33 0 -59 -8v149q55 10 102 10q169 0 212 -137q8 -31 9 -40h4q105 185 342 185q181 0 282 -106q102 -106 102 -294v-1048h-174zM546 1560h221l-155 -310h-144z" />
    <glyph glyph-name="iotatonos" unicode="&#x3af;" horiz-adv-x="578" 
d="M183 62q-71 69 -71 226v790h172v-748q0 -97 38 -142q39 -45 122 -45q44 0 83 8l10 -149q-44 -10 -116 -10q-166 0 -238 70zM208 1560h221l-155 -310h-144z" />
    <glyph glyph-name="upsilondieresistonos" unicode="&#x3b0;" horiz-adv-x="1107" 
d="M224 104q-112 114 -112 323v651h172v-642q0 -289 255 -289q147 0 222 107q72 103 72 297q0 285 -89 527h173q94 -225 94 -504q0 -275 -124 -430q-123 -154 -344 -154q-206 0 -319 114zM165 1294q-33 33 -33 79t33 79t79 33q47 0 79 -33q33 -32 33 -79q0 -46 -33 -79
t-79 -33t-79 33zM725 1294q-33 33 -33 79t33 79t79 33q47 0 79 -33q33 -32 33 -79q0 -46 -33 -79t-79 -33t-79 33zM418 1250l31 310h211l-108 -310h-134z" />
    <glyph glyph-name="alpha" unicode="&#x3b1;" horiz-adv-x="1229" 
d="M762 254q88 108 88 285q0 174 -88 284q-87 110 -226 110q-132 0 -213 -108q-81 -109 -81 -286q0 -182 78 -288t211 -106q143 0 231 109zM189 142q-125 152 -125 397t126 397t329 152q107 0 197 -49q89 -50 139 -136h3v175h166v-795q0 -71 22 -103q22 -31 72 -31
q28 0 55 8l10 -149q-44 -10 -94 -10q-210 0 -239 177h-4q-44 -82 -135 -133q-92 -52 -193 -52q-203 0 -329 152z" />
    <glyph glyph-name="beta" unicode="&#x3b2;" horiz-adv-x="1181" 
d="M477 887h87q278 0 278 246q0 104 -71 166q-70 62 -186 62q-296 0 -296 -351v-472q0 -184 94 -288q94 -105 260 -105q136 0 216 80q78 78 78 205q0 149 -96 228q-96 80 -280 80h-84v149zM117 1028q0 235 122 362q120 126 341 126q202 0 318 -99q117 -99 117 -273
q0 -228 -224 -316v-2q324 -76 324 -390q0 -196 -124 -320q-126 -126 -325 -126q-125 0 -223 48q-100 49 -148 137h-4v-535h-174v1388z" />
    <glyph glyph-name="gamma" unicode="&#x3b3;" horiz-adv-x="1095" 
d="M895 447q-85 -186 -298 -475v-322h-172v328l-376 1100h184l296 -934h4q304 425 304 766q0 77 -10 168h163q9 -71 9 -168q0 -236 -104 -463z" />
    <glyph glyph-name="delta" unicode="&#x3b4;" horiz-adv-x="1114" 
d="M202 129q-138 141 -138 372q0 205 115 338q112 128 294 145v2q-241 108 -241 266q0 125 103 196q99 68 267 68q202 0 343 -73l-10 -153q-185 75 -341 75q-190 0 -190 -112q0 -47 44 -84q43 -37 178 -105q216 -109 315 -233q107 -134 107 -321q0 -237 -137 -380
q-134 -140 -353 -140q-220 0 -356 139zM783 237q88 97 88 267q0 178 -90 275q-83 90 -224 90q-152 0 -236 -106q-80 -100 -80 -267q0 -161 86 -258q85 -97 226 -97q144 0 230 96z" />
    <glyph glyph-name="epsilon" unicode="&#x3b5;" horiz-adv-x="1071" 
d="M199 73q-115 82 -115 220q0 186 195 243v4q-176 62 -176 237q0 138 121 225q120 86 313 86q211 0 330 -95q114 -91 129 -256h-174q-19 103 -78 147q-66 49 -207 49q-126 0 -196 -42q-71 -43 -71 -119q0 -71 67 -112q67 -42 182 -42h154v-149h-154q-120 0 -189 -43
q-68 -43 -68 -118q0 -163 266 -163q269 0 308 191h174q-25 -159 -155 -252q-133 -94 -338 -94q-202 0 -318 83z" />
    <glyph glyph-name="zeta" unicode="&#x3b6;" horiz-adv-x="884" 
d="M679 -330q51 95 51 178q0 67 -42 105q-47 43 -183 86q-242 76 -342 195q-99 118 -99 328q0 217 147 424q142 200 400 361v5h-460v154h721v-153q-630 -365 -630 -783q0 -154 70 -234q71 -81 258 -142t260 -135q68 -69 68 -184q0 -113 -73 -235z" />
    <glyph glyph-name="eta" unicode="&#x3b7;" horiz-adv-x="1247" 
d="M959 -360v1004q0 289 -259 289q-127 0 -207 -85t-80 -220v-628h-174v794q0 135 -100 135q-33 0 -59 -8v149q55 10 102 10q169 0 212 -137q8 -31 9 -40h4q105 185 342 185q181 0 282 -106q102 -106 102 -294v-1048h-174z" />
    <glyph glyph-name="theta" unicode="&#x3b8;" horiz-adv-x="1190" 
d="M221 189q-127 197 -127 567t130 566q128 194 370 194t371 -197t129 -566q0 -368 -129 -566q-130 -197 -371 -197q-245 0 -373 199zM831 278q79 132 86 412h-646q7 -280 86 -412q79 -133 237 -133t237 133zM916 844q-22 517 -322 517t-322 -517h644z" />
    <glyph glyph-name="iota" unicode="&#x3b9;" horiz-adv-x="578" 
d="M183 62q-71 69 -71 226v790h172v-748q0 -97 38 -142q39 -45 122 -45q44 0 83 8l10 -149q-44 -10 -116 -10q-166 0 -238 70z" />
    <glyph glyph-name="kappa" unicode="&#x3ba;" horiz-adv-x="1109" 
d="M117 1078h172v-578h2l342 400q90 106 150 143t142 37q50 0 95 -10v-149q-24 8 -76 8q-48 0 -87 -26q-42 -29 -115 -115l-115 -136l431 -652h-195l-342 531l-232 -253v-278h-172v1078z" />
    <glyph glyph-name="lambda" unicode="&#x3bb;" horiz-adv-x="1118" 
d="M461 1018l-54 147q-47 128 -85 165q-35 35 -112 35q-30 0 -62 -9v149q55 11 93 11q128 0 195 -63q66 -63 130 -244l333 -949q23 -65 53 -88q28 -23 80 -23q29 0 55 8l10 -149q-45 -10 -92 -10q-106 0 -160 44q-59 48 -106 184l-202 585h-2l-318 -811h-178z" />
    <glyph glyph-name="uni03BC" unicode="&#x3bc;" horiz-adv-x="1226" 
d="M117 1078h174v-656q0 -134 64 -205q64 -70 185 -70q136 0 216 82q81 82 81 223v626h174v-796q0 -71 23 -102q21 -31 70 -31q32 0 56 8l10 -149q-38 -10 -97 -10q-183 0 -223 155q-3 12 -7 36h-2q-49 -93 -130 -146q-82 -53 -176 -53q-80 0 -146 37q-67 38 -96 100h-2
v-487h-174v1438z" />
    <glyph glyph-name="nu" unicode="&#x3bd;" horiz-adv-x="1075" 
d="M49 1078h184l296 -934h4q277 387 277 766q0 77 -10 168h170q9 -71 9 -168q0 -235 -82 -443q-83 -208 -279 -467h-200z" />
    <glyph glyph-name="xi" unicode="&#x3be;" horiz-adv-x="924" 
d="M679 -330q51 94 51 183q0 64 -45 103q-52 43 -195 88q-237 74 -337 177q-89 91 -89 227q0 128 78 218q80 92 227 124v2q-125 43 -182 110q-60 69 -60 178q0 204 235 269v3h-231v154h741v-137l-103 -11q-247 -26 -360 -91q-118 -67 -118 -190q0 -105 92 -152
q87 -44 281 -44h135v-154h-138q-420 0 -420 -257q0 -93 71 -154q73 -62 258 -122q183 -59 257 -132q71 -71 71 -187q0 -113 -73 -235z" />
    <glyph glyph-name="omicron" unicode="&#x3bf;" horiz-adv-x="1114" 
d="M199 140q-135 151 -135 399q0 252 133 401q133 148 359 148t359 -148q133 -149 133 -401q0 -248 -135 -399q-135 -150 -357 -150t-357 150zM788 248q82 104 82 291q0 184 -84 289t-230 105t-230 -105t-84 -289q0 -187 82 -291q83 -103 232 -103t232 103z" />
    <glyph glyph-name="pi" unicode="&#x3c0;" horiz-adv-x="1345" 
d="M256 929h-192v149h1195v-149h-215v-654q0 -126 95 -126q25 0 54 8l10 -149q-46 -10 -94 -10q-121 0 -176 61q-56 62 -56 199v671h-454v-929h-167v929z" />
    <glyph glyph-name="rho" unicode="&#x3c1;" horiz-adv-x="1133" 
d="M804 254q85 108 85 302q0 175 -85 276t-231 101q-145 0 -228 -104t-83 -286t82 -290q83 -108 222 -108q152 0 238 109zM89 533q0 253 131 404q132 151 353 151t357 -148q137 -148 137 -386q0 -259 -125 -412q-125 -152 -337 -152q-112 0 -204 50t-136 135h-4v-535h-172
v893z" />
    <glyph glyph-name="sigma1" unicode="&#x3c2;" horiz-adv-x="1042" 
d="M679 -330q51 95 51 178q0 67 -42 105q-47 43 -183 86q-242 76 -342 196q-99 119 -99 334q0 233 128 375q130 144 347 144q397 0 453 -360h-174q-42 206 -268 206q-144 0 -227 -102q-81 -99 -81 -263q0 -153 71 -234q70 -80 257 -141t260 -135q68 -69 68 -184
q0 -113 -73 -235z" />
    <glyph glyph-name="sigma" unicode="&#x3c3;" horiz-adv-x="1256" 
d="M199 141q-135 149 -135 392q0 250 145 397q145 148 390 148h591v-149h-325v-4q80 -55 127 -161q46 -105 46 -228q0 -244 -134 -395q-133 -150 -351 -150q-219 0 -354 150zM785 250q85 104 85 283q0 182 -80 286t-219 104q-151 0 -240 -106t-89 -285q0 -178 84 -282
q83 -104 226 -104q147 0 233 104z" />
    <glyph glyph-name="tau" unicode="&#x3c4;" horiz-adv-x="1033" 
d="M476 61q-74 67 -74 226v642h-343v149h918v-149h-403v-599q0 -100 42 -144q41 -43 136 -43q59 0 95 8l10 -149q-56 -10 -130 -10q-177 0 -251 69z" />
    <glyph glyph-name="upsilon" unicode="&#x3c5;" horiz-adv-x="1107" 
d="M224 104q-112 114 -112 323v651h172v-642q0 -289 255 -289q147 0 222 107q72 103 72 297q0 285 -89 527h173q94 -225 94 -504q0 -275 -124 -430q-123 -154 -344 -154q-206 0 -319 114z" />
    <glyph glyph-name="phi" unicode="&#x3c6;" horiz-adv-x="1434" 
d="M633 -9q-263 11 -419 161q-155 149 -155 387q0 243 152 391q155 153 422 157v301h166v-301q267 -4 422 -157q152 -148 152 -391q0 -238 -155 -387q-156 -150 -419 -161v-351h-166v351zM799 137q186 13 293 122q107 108 107 280q0 176 -103 284q-106 111 -297 118v-804z
M633 941q-191 -7 -297 -118q-103 -108 -103 -284q0 -172 107 -280q107 -109 293 -122v804z" />
    <glyph glyph-name="chi" unicode="&#x3c7;" horiz-adv-x="1139" 
d="M495 359l-227 458q-34 67 -67 91q-31 21 -89 21q-32 0 -58 -8v149q53 10 96 10q97 0 150 -40q56 -41 115 -160l183 -371h2l297 569h183l-405 -729l220 -440q37 -73 66 -96q30 -24 83 -24q30 0 54 8l10 -149q-38 -10 -85 -10q-104 0 -154 35q-53 36 -109 149l-189 377h-2
l-294 -559h-183z" />
    <glyph glyph-name="psi" unicode="&#x3c8;" horiz-adv-x="1414" 
d="M613 -10q-236 2 -368 117q-133 115 -133 320v651h172v-630q0 -146 85 -224q84 -77 244 -77v1241h167v-1241q360 3 360 403q0 300 -102 528h178q102 -204 102 -496q0 -279 -143 -436q-142 -156 -395 -156v-350h-167v350z" />
    <glyph glyph-name="omega" unicode="&#x3c9;" horiz-adv-x="1545" 
d="M190 123q-96 133 -96 383q0 334 157 572h188q-167 -265 -167 -570q0 -361 208 -361q94 0 149 77q56 77 56 207v338h172v-338q0 -130 56 -207q55 -77 150 -77q208 0 208 361q0 305 -167 570h188q157 -238 157 -572q0 -250 -96 -383t-276 -133q-217 0 -303 236h-6
q-86 -236 -303 -236q-180 0 -275 133z" />
    <glyph glyph-name="iotadieresis" unicode="&#x3ca;" horiz-adv-x="578" 
d="M184 62q-71 69 -71 226v790h172v-748q0 -97 38 -142q39 -45 122 -45q44 0 83 8l10 -149q-44 -10 -116 -10q-166 0 -238 70zM-62 1294q-33 33 -33 79t33 79t79 33q47 0 79 -33q33 -32 33 -79q0 -46 -33 -79t-79 -33t-79 33zM332 1294q-33 33 -33 79t33 79t79 33
q47 0 79 -33q33 -32 33 -79q0 -46 -33 -79t-79 -33t-79 33z" />
    <glyph glyph-name="upsilondieresis" unicode="&#x3cb;" horiz-adv-x="1107" 
d="M224 104q-112 114 -112 323v651h172v-642q0 -289 255 -289q147 0 222 107q72 103 72 297q0 285 -89 527h173q94 -225 94 -504q0 -275 -124 -430q-123 -154 -344 -154q-206 0 -319 114zM255 1294q-33 33 -33 79t33 79t79 33q47 0 79 -33q33 -32 33 -79q0 -46 -33 -79
t-79 -33t-79 33zM649 1294q-33 33 -33 79t33 79t79 33q47 0 79 -33q33 -32 33 -79q0 -46 -33 -79t-79 -33t-79 33z" />
    <glyph glyph-name="omicrontonos" unicode="&#x3cc;" horiz-adv-x="1114" 
d="M199 140q-135 151 -135 399q0 252 133 401q133 148 359 148t359 -148q133 -149 133 -401q0 -248 -135 -399q-135 -150 -357 -150t-357 150zM788 248q82 104 82 291q0 184 -84 289t-230 105t-230 -105t-84 -289q0 -187 82 -291q83 -103 232 -103t232 103zM569 1560h221
l-155 -310h-144z" />
    <glyph glyph-name="upsilontonos" unicode="&#x3cd;" horiz-adv-x="1107" 
d="M224 104q-112 114 -112 323v651h172v-642q0 -289 255 -289q147 0 222 107q72 103 72 297q0 285 -89 527h173q94 -225 94 -504q0 -275 -124 -430q-123 -154 -344 -154q-206 0 -319 114zM519 1560h221l-155 -310h-144z" />
    <glyph glyph-name="omegatonos" unicode="&#x3ce;" horiz-adv-x="1545" 
d="M190 123q-96 133 -96 383q0 334 157 572h188q-167 -265 -167 -570q0 -361 208 -361q94 0 149 77q56 77 56 207v338h172v-338q0 -130 56 -207q55 -77 150 -77q208 0 208 361q0 305 -167 570h188q157 -238 157 -572q0 -250 -96 -383t-276 -133q-217 0 -303 236h-6
q-86 -236 -303 -236q-180 0 -275 133zM780 1560h221l-155 -310h-144z" />
    <glyph glyph-name="uni0401" unicode="&#x401;" horiz-adv-x="1151" 
d="M1043 0h-894v1443h894v-162h-714v-463h677v-160h-677v-496h714v-162zM320 1618q-33 33 -33 79t33 79t79 33q47 0 79 -33q33 -32 33 -79q0 -46 -33 -79t-79 -33t-79 33zM714 1618q-33 33 -33 79t33 79t79 33q47 0 79 -33q33 -32 33 -79q0 -46 -33 -79t-79 -33t-79 33z" />
    <glyph glyph-name="uni0402" unicode="&#x402;" horiz-adv-x="1677" 
d="M984 2v161q44 -16 128 -16q123 0 194 78q70 78 70 215q0 138 -84 222q-85 83 -225 83q-115 0 -218 -60q-104 -60 -145 -150v-535h-180v1281h-465v162h1110v-162h-465v-520h8q135 146 366 146q215 0 346 -128q132 -128 132 -337q0 -208 -120 -333q-121 -125 -322 -125
q-87 0 -130 18z" />
    <glyph glyph-name="uni0403" unicode="&#x403;" horiz-adv-x="1071" 
d="M149 0v1443h856v-164h-675v-1279h-181zM511 1550l231 299h198l-281 -299h-148z" />
    <glyph glyph-name="uni0404" unicode="&#x404;" horiz-adv-x="1421" 
d="M1338 402q-53 -206 -207 -316t-388 -110q-299 0 -474 202q-176 201 -176 544q0 340 177 542q177 203 473 203q230 0 393 -126q162 -125 202 -333h-184q-39 134 -151 213q-112 80 -260 80q-192 0 -317 -130q-127 -132 -143 -352h640v-162h-643q9 -236 136 -376
q127 -139 328 -139q153 0 261 68q106 68 149 192h184z" />
    <glyph glyph-name="uni0405" unicode="&#x405;" horiz-adv-x="1235" 
d="M260 397q13 -117 115 -188q101 -71 256 -71q146 0 242 69q95 70 95 176q0 91 -67 151q-66 58 -212 96l-185 48q-200 51 -292 143q-92 91 -92 238q0 180 143 294q142 114 367 114q215 0 356 -115q141 -116 147 -297h-180q-12 116 -100 183t-229 67q-140 0 -229 -66
q-88 -66 -88 -172q0 -82 65 -134q64 -53 211 -91l151 -40q224 -56 322 -149t98 -248q0 -198 -145 -313q-146 -116 -395 -116q-230 0 -376 115t-159 306h181z" />
    <glyph glyph-name="uni0406" unicode="&#x406;" horiz-adv-x="480" 
d="M149 0v1443h180v-1443h-180z" />
    <glyph glyph-name="uni0407" unicode="&#x407;" horiz-adv-x="480" 
d="M150 0v1443h180v-1443h-180zM-36 1618q-33 33 -33 79t33 79t79 33q47 0 79 -33q33 -32 33 -79q0 -46 -33 -79t-79 -33t-79 33zM358 1618q-33 33 -33 79t33 79t79 33q47 0 79 -33q33 -32 33 -79q0 -46 -33 -79t-79 -33t-79 33z" />
    <glyph glyph-name="uni0408" unicode="&#x408;" horiz-adv-x="1034" 
d="M230 339q3 -92 66 -149q64 -58 162 -58q119 0 182 70q63 69 63 201v1040h180v-1041q0 -205 -112 -321q-112 -115 -312 -115q-180 0 -294 104q-114 105 -114 269h179z" />
    <glyph glyph-name="uni0409" unicode="&#x409;" horiz-adv-x="2153" 
d="M487 540q-17 -275 -97 -405q-88 -144 -271 -144q-42 0 -70 10v161q22 -6 54 -6q113 0 163 111q40 87 51 280l52 896h871v-535h353q204 0 334 -127t130 -328q0 -200 -129 -327q-130 -126 -333 -126h-535v1281h-527zM1548 162q155 0 240 76q84 76 84 215q0 140 -85 217
q-84 76 -239 76h-308v-584h308z" />
    <glyph glyph-name="uni040A" unicode="&#x40a;" horiz-adv-x="2154" 
d="M1569 162q155 0 240 67q84 67 84 189q0 115 -85 177q-84 62 -239 62h-308v-495h308zM329 0h-180v1443h180v-624h752v624h180v-624h353q204 0 334 -112t130 -289q0 -184 -129 -301q-130 -117 -333 -117h-535v657h-752v-657z" />
    <glyph glyph-name="uni040B" unicode="&#x40b;" horiz-adv-x="1697" 
d="M845 685q-100 -59 -141 -150v-535h-180v1281h-465v162h1110v-162h-465v-518h8q133 144 363 144q220 0 350 -136q131 -135 131 -364v-407h-180v395q0 167 -83 258q-84 92 -236 92q-112 0 -212 -60z" />
    <glyph glyph-name="uni040C" unicode="&#x40c;" horiz-adv-x="1267" 
d="M679 1550h-148l231 299h198zM1250 0h-247l-666 701h-8v-701h-180v1443h180v-665h8l620 665h226l-656 -690z" />
    <glyph glyph-name="uni040E" unicode="&#x40e;" horiz-adv-x="1220" 
d="M211 3v162q32 -8 80 -8q155 0 236 151l-493 1135h192l391 -935h8l382 935h187l-442 -1030q-103 -240 -202 -331q-100 -92 -259 -92q-54 0 -80 13zM434 1850q0 -85 53 -142q53 -58 134 -58t134 58q53 57 53 142h123q0 -132 -86 -215q-87 -84 -224 -84t-224 84
q-86 83 -86 215h123z" />
    <glyph glyph-name="uni040F" unicode="&#x40f;" horiz-adv-x="1431" 
d="M149 0v1443h180v-1281h771v1281h180v-1443h-482v-285h-167v285h-482z" />
    <glyph glyph-name="uni0410" unicode="&#x410;" horiz-adv-x="1312" 
d="M942 413h-574l-145 -413h-189l532 1443h178l532 -1443h-189zM421 566h468l-231 658h-6z" />
    <glyph glyph-name="uni0411" unicode="&#x411;" horiz-adv-x="1257" 
d="M1007 121q-130 -121 -333 -121h-525v1443h843v-162h-663v-413h343q204 0 334 -121q130 -122 130 -314q0 -191 -129 -312zM627 162q155 0 240 70q84 71 84 201q0 131 -85 202q-84 71 -239 71h-298v-544h298z" />
    <glyph glyph-name="uni0412" unicode="&#x412;" horiz-adv-x="1276" 
d="M149 0v1443h565q186 0 300 -99t114 -261q0 -113 -72 -204q-73 -92 -177 -111v-8q147 -19 235 -115q87 -96 87 -240q0 -191 -129 -298q-130 -107 -360 -107h-563zM329 821h288q160 0 244 62q85 62 85 179q0 107 -71 165q-71 57 -202 57h-344v-463zM685 159q331 0 331 255
q0 252 -348 252h-339v-507h356z" />
    <glyph glyph-name="uni0413" unicode="&#x413;" horiz-adv-x="1071" 
d="M149 0v1443h856v-164h-675v-1279h-181z" />
    <glyph glyph-name="uni0414" unicode="&#x414;" horiz-adv-x="1480" 
d="M460 531q-16 -258 -101 -361v-8h700v1119h-552zM196 -285h-167v447h107q138 73 155 373l55 908h893v-1281h180v-447h-167v285h-1056v-285z" />
    <glyph glyph-name="uni0415" unicode="&#x415;" horiz-adv-x="1151" 
d="M1043 0h-894v1443h894v-162h-714v-463h677v-160h-677v-496h714v-162z" />
    <glyph glyph-name="uni0416" unicode="&#x416;" horiz-adv-x="1967" 
d="M1946 0h-242l-626 701h-8v-701h-180v701h-8l-631 -701h-232l675 750l-618 693h228l578 -665h8v665h180v-665h8l580 665h223l-616 -691z" />
    <glyph glyph-name="uni0417" unicode="&#x417;" horiz-adv-x="1186" 
d="M390 817h195q132 0 216 72q84 73 84 186q0 112 -77 177t-210 65q-134 0 -216 -65q-83 -65 -94 -179h-175q14 188 145 296q132 108 347 108q202 0 333 -109q130 -108 130 -277q0 -120 -74 -213q-75 -93 -194 -122v-8q144 -19 227 -115q83 -97 83 -244q0 -178 -147 -301
q-147 -122 -361 -122q-228 0 -373 113q-145 112 -155 297h174q12 -114 108 -182q95 -68 244 -68q145 0 235 74q90 75 90 194q0 124 -88 193q-88 70 -244 70h-203v160z" />
    <glyph glyph-name="uni0418" unicode="&#x418;" horiz-adv-x="1452" 
d="M1123 1148h-16l-780 -1148h-178v1443h178v-1152h16l780 1152h178v-1443h-178v1148z" />
    <glyph glyph-name="uni0419" unicode="&#x419;" horiz-adv-x="1452" 
d="M1123 1148h-16l-780 -1148h-178v1443h178v-1152h16l780 1152h178v-1443h-178v1148zM537 1850q0 -85 53 -142q53 -58 134 -58t134 58q53 57 53 142h123q0 -132 -86 -215q-87 -84 -224 -84t-224 84q-86 83 -86 215h123z" />
    <glyph glyph-name="uni041A" unicode="&#x41a;" horiz-adv-x="1278" 
d="M1250 0h-247l-666 701h-8v-701h-180v1443h180v-665h8l620 665h226l-656 -690z" />
    <glyph glyph-name="uni041B" unicode="&#x41b;" horiz-adv-x="1391" 
d="M1060 0v1281h-527l-46 -741q-18 -288 -106 -418q-87 -131 -262 -131q-40 0 -70 10v161q22 -6 54 -6q103 0 152 91q50 91 62 300l52 896h871v-1443h-180z" />
    <glyph glyph-name="uni041C" unicode="&#x41c;" horiz-adv-x="1722" 
d="M1571 0h-168v1112h-7l-460 -1102h-152l-460 1102h-7v-1112h-168v1443h209l498 -1204h8l498 1204h209v-1443z" />
    <glyph glyph-name="uni041D" unicode="&#x41d;" horiz-adv-x="1452" 
d="M1121 0v657h-792v-657h-180v1443h180v-624h792v624h180v-1443h-180z" />
    <glyph glyph-name="uni041E" unicode="&#x41e;" horiz-adv-x="1518" 
d="M1244 1266q179 -201 179 -545t-179 -544q-179 -201 -486 -201t-486 201q-179 200 -179 544t179 545t486 201t486 -201zM407 1145q-129 -157 -129 -424q0 -266 129 -423q130 -156 351 -156t351 156q129 157 129 423q0 267 -129 424q-130 156 -351 156t-351 -156z" />
    <glyph glyph-name="uni041F" unicode="&#x41f;" horiz-adv-x="1431" 
d="M1102 0v1279h-772v-1279h-181v1443h1131v-1443h-178z" />
    <glyph glyph-name="uni0420" unicode="&#x420;" horiz-adv-x="1232" 
d="M694 1443q204 0 333 -129t129 -334t-130 -335t-334 -130h-363v-515h-180v1443h545zM329 675h318q154 0 239 81q85 80 85 224t-84 223q-85 80 -240 80h-318v-608z" />
    <glyph glyph-name="uni0421" unicode="&#x421;" horiz-adv-x="1421" 
d="M269 178q-176 201 -176 544q0 340 177 542q177 203 473 203q230 0 393 -126q162 -125 202 -333h-184q-39 134 -151 213q-112 80 -260 80q-211 0 -338 -158t-127 -421q0 -266 126 -423t340 -157q153 0 261 68q106 68 149 192h184q-53 -206 -207 -316t-388 -110
q-299 0 -474 202z" />
    <glyph glyph-name="uni0422" unicode="&#x422;" horiz-adv-x="1230" 
d="M524 0v1281h-465v162h1110v-162h-465v-1281h-180z" />
    <glyph glyph-name="uni0423" unicode="&#x423;" horiz-adv-x="1220" 
d="M211 3v162q32 -8 80 -8q155 0 236 151l-493 1135h192l391 -935h8l382 935h187l-442 -1030q-103 -240 -202 -331q-100 -92 -259 -92q-54 0 -80 13z" />
    <glyph glyph-name="uni0424" unicode="&#x424;" horiz-adv-x="1623" 
d="M722 1161q-211 -8 -334 -125q-122 -116 -122 -309q0 -195 122 -312q123 -116 334 -123v869zM1233 1037q-122 117 -333 124v-869q211 8 333 125q122 116 122 309q0 194 -122 311zM722 131q-293 7 -466 168q-172 161 -172 428q0 266 172 426q172 161 466 169v141h178v-141
q293 -7 465 -168t172 -428q0 -266 -172 -426q-172 -161 -465 -169v-151h-178v151z" />
    <glyph glyph-name="uni0425" unicode="&#x425;" horiz-adv-x="1320" 
d="M545 723v7l-485 713h217l385 -580h7l390 580h205l-498 -722v-6l487 -715h-216l-383 575h-7l-389 -575h-204z" />
    <glyph glyph-name="uni0426" unicode="&#x426;" horiz-adv-x="1522" 
d="M1294 -285v285h-1145v1443h180v-1281h772v1281h180v-1281h180v-447h-167z" />
    <glyph glyph-name="uni0427" unicode="&#x427;" horiz-adv-x="1367" 
d="M1036 0v684h-8q-143 -148 -376 -148q-238 0 -383 145q-145 146 -145 385v377h180v-365q0 -173 94 -275q93 -101 253 -101q130 0 235 59t150 157v525h180v-1443h-180z" />
    <glyph glyph-name="uni0428" unicode="&#x428;" horiz-adv-x="1884" 
d="M149 1443h180v-1281h522v1281h180v-1281h522v1281h180v-1443h-1584v1443z" />
    <glyph glyph-name="uni0429" unicode="&#x429;" horiz-adv-x="1974" 
d="M1746 -285v285h-1597v1443h180v-1281h522v1281h180v-1281h522v1281h180v-1281h180v-447h-167z" />
    <glyph glyph-name="uni042A" unicode="&#x42a;" horiz-adv-x="1502" 
d="M429 0v1281h-330v162h510v-535h353q204 0 334 -127t130 -328q0 -200 -129 -327q-130 -126 -333 -126h-535zM917 162q155 0 240 76q84 76 84 215q0 140 -85 217q-84 76 -239 76h-308v-584h308z" />
    <glyph glyph-name="uni042B" unicode="&#x42b;" horiz-adv-x="1670" 
d="M149 1443h180v-535h353q204 0 334 -127q130 -128 130 -328t-129 -326q-129 -127 -333 -127h-535v1443zM637 162q155 0 240 76q84 76 84 215q0 140 -85 217q-84 76 -239 76h-308v-584h308zM1339 0v1443h180v-1443h-180z" />
    <glyph glyph-name="uni042C" unicode="&#x42c;" horiz-adv-x="1222" 
d="M149 1443h180v-535h353q204 0 334 -127q130 -128 130 -328t-129 -326q-129 -127 -333 -127h-535v1443zM637 162q155 0 240 76q84 76 84 215q0 140 -85 217q-84 76 -239 76h-308v-584h308z" />
    <glyph glyph-name="uni042D" unicode="&#x42d;" horiz-adv-x="1421" 
d="M291 86q-157 111 -210 316h184q43 -124 152 -192t263 -68q201 0 325 139q125 140 134 376h-643v162h640q-16 221 -140 352q-123 130 -315 130q-149 0 -263 -80t-153 -213h-184q40 207 205 333q164 126 395 126q296 0 471 -203q174 -202 174 -542q0 -343 -173 -544
q-174 -202 -472 -202q-235 0 -390 110z" />
    <glyph glyph-name="uni042E" unicode="&#x42e;" horiz-adv-x="1991" 
d="M783 153q-171 184 -188 504h-266v-657h-180v1443h180v-624h268q25 306 197 482q173 176 452 176q302 0 477 -204q173 -203 173 -551t-173 -551q-174 -205 -477 -205q-290 0 -463 187zM904 1152q-126 -159 -126 -430t124 -429q125 -161 344 -161q216 0 341 161
q124 159 124 429q0 272 -124 430q-125 159 -341 159t-342 -159z" />
    <glyph glyph-name="uni042F" unicode="&#x42f;" horiz-adv-x="1287" 
d="M956 1281h-318q-155 0 -240 -73q-84 -73 -84 -208q0 -136 85 -209q84 -74 239 -74h318v564zM268 0h-214l414 577q-154 36 -246 149q-93 114 -93 274q0 196 129 319q130 124 333 124h545v-1443h-180v555h-290z" />
    <glyph glyph-name="uni0430" unicode="&#x430;" horiz-adv-x="1076" 
d="M698 217q86 77 86 193v87l-282 -18q-246 -15 -246 -173q0 -75 61 -120q60 -45 162 -45q132 0 219 76zM178 77q-100 87 -100 230q0 139 104 218q104 80 300 92l302 18v90q0 100 -64 154t-183 54q-94 0 -158 -45q-65 -45 -81 -121h-167q4 136 121 229q117 92 287 92
q191 0 305 -94q114 -95 114 -254v-740h-165v187h-4q-46 -90 -140 -143q-94 -54 -207 -54q-164 0 -264 87z" />
    <glyph glyph-name="uni0431" unicode="&#x431;" horiz-adv-x="1164" 
d="M211 146q-127 165 -127 486q0 455 130 654q132 203 445 215l77 3q188 9 281 58v-153q-61 -55 -273 -64l-78 -3q-219 -9 -313 -119q-86 -102 -121 -360h8q108 193 372 193q218 0 347 -143q129 -142 129 -384q0 -254 -134 -401q-135 -147 -368 -147q-248 0 -375 165z
M825 239q85 103 85 290q0 178 -85 276q-84 97 -239 97t-239 -97q-85 -98 -85 -276q0 -187 85 -290q84 -103 239 -103t239 103z" />
    <glyph glyph-name="uni0432" unicode="&#x432;" horiz-adv-x="1041" 
d="M299 934v-304h240q203 0 203 154q0 150 -175 150h-268zM299 486v-342h288q202 0 202 169q0 173 -235 173h-255zM127 1078h462q150 0 237 -74q86 -74 86 -202q0 -82 -51 -149t-125 -83v-8q101 -14 163 -83q61 -69 61 -169q0 -143 -99 -227q-99 -83 -270 -83h-464v1078z
" />
    <glyph glyph-name="uni0433" unicode="&#x433;" horiz-adv-x="888" 
d="M299 934v-934h-172v1078h690v-144h-518z" />
    <glyph glyph-name="uni0434" unicode="&#x434;" horiz-adv-x="1222" 
d="M842 934h-409l-34 -461q-17 -227 -89 -321v-8h532v790zM19 -285v429h90q110 72 128 333l42 601h735v-934h172v-429h-162v285h-843v-285h-162z" />
    <glyph glyph-name="uni0435" unicode="&#x435;" horiz-adv-x="1104" 
d="M347 851q-84 -84 -93 -221h593q-3 137 -83 221q-79 84 -207 84q-127 0 -210 -84zM1015 308q-22 -139 -148 -228q-126 -90 -299 -90q-227 0 -361 147q-133 147 -133 398t133 402t353 151q216 0 342 -142q126 -143 126 -387v-68h-774v-10q0 -154 87 -246t231 -92
q101 0 175 45q73 44 96 120h172z" />
    <glyph glyph-name="uni0436" unicode="&#x436;" horiz-adv-x="1566" 
d="M1540 0h-225l-441 521h-8v-521h-172v521h-8l-441 -521h-221l489 565l-478 513h215l436 -479h8v479h172v-479h8l436 479h214l-476 -510z" />
    <glyph glyph-name="uni0437" unicode="&#x437;" horiz-adv-x="981" 
d="M190 62q-117 80 -131 214h177q16 -71 80 -110q65 -39 166 -39q117 0 183 51q64 49 64 131q0 179 -247 179h-163v144h163q211 0 211 161q0 72 -50 113q-54 45 -156 45q-97 0 -160 -39t-74 -104h-170q17 133 126 211t278 78q179 0 279 -81q97 -78 97 -210q0 -84 -49 -148
q-50 -66 -131 -85v-8q217 -47 217 -247q0 -150 -115 -243t-303 -93q-176 0 -292 80z" />
    <glyph glyph-name="uni0438" unicode="&#x438;" horiz-adv-x="1163" 
d="M127 0v1078h172v-809h8l555 809h172v-1078h-172v809h-8l-555 -809h-172z" />
    <glyph glyph-name="uni0439" unicode="&#x439;" horiz-adv-x="1163" 
d="M127 0v1078h172v-809h8l555 809h172v-1078h-172v809h-8l-555 -809h-172zM390 1550q0 -89 52 -147q55 -60 142 -60t142 60q52 58 52 147h128q0 -138 -89 -224q-90 -86 -233 -86t-233 86q-89 86 -89 224h128z" />
    <glyph glyph-name="uni043A" unicode="&#x43a;" horiz-adv-x="1029" 
d="M1003 0h-225l-471 521h-8v-521h-172v1078h172v-479h8l466 479h216l-507 -511z" />
    <glyph glyph-name="uni043B" unicode="&#x43b;" horiz-adv-x="1121" 
d="M409 473q-18 -240 -83 -352q-75 -130 -234 -130q-37 0 -63 11v158q24 -8 54 -8q76 0 116 88q35 77 46 237l42 601h705v-1078h-172v934h-377z" />
    <glyph glyph-name="uni043C" unicode="&#x43c;" horiz-adv-x="1455" 
d="M127 0v1078h209l390 -847h8l391 847h201v-1078h-173v767h-8l-352 -737h-134l-352 737h-8v-767h-172z" />
    <glyph glyph-name="uni043D" unicode="&#x43d;" horiz-adv-x="1148" 
d="M847 488h-548v-488h-172v1078h172v-446h548v446h172v-1078h-172v488z" />
    <glyph glyph-name="uni043E" unicode="&#x43e;" horiz-adv-x="1144" 
d="M209 139q-135 149 -135 400t135 400t362 149t362 -149t135 -400t-135 -400t-362 -149t-362 149zM806 249q85 105 85 290q0 186 -85 290q-84 104 -235 104t-235 -104q-85 -105 -85 -290t85 -290q85 -104 235 -104q151 0 235 104z" />
    <glyph glyph-name="uni043F" unicode="&#x43f;" horiz-adv-x="1138" 
d="M837 934h-538v-934h-172v1078h882v-1078h-172v934z" />
    <glyph glyph-name="uni0440" unicode="&#x440;" horiz-adv-x="1183" 
d="M979 937q128 -152 128 -398t-127 -398q-127 -151 -331 -151q-237 0 -344 185h-4v-535h-174v1438h165v-175h4q47 84 142 135q95 50 207 50q207 0 334 -151zM842 252q87 108 87 287q0 178 -87 286q-86 108 -229 108q-139 0 -226 -109t-87 -285t87 -285q86 -109 226 -109
q143 0 229 107z" />
    <glyph glyph-name="uni0441" unicode="&#x441;" horiz-adv-x="1078" 
d="M842 748q-23 83 -91 132q-74 53 -184 53q-142 0 -228 -108q-88 -108 -88 -286q0 -182 89 -289q86 -105 229 -105q221 0 275 182h173q-27 -151 -148 -243q-123 -94 -301 -94q-224 0 -358 147q-136 150 -136 402q0 248 135 399q135 150 357 150q184 0 309 -102
q115 -94 140 -238h-173z" />
    <glyph glyph-name="uni0442" unicode="&#x442;" horiz-adv-x="952" 
d="M911 934h-350v-934h-172v934h-350v144h872v-144z" />
    <glyph glyph-name="uni0443" unicode="&#x443;" horiz-adv-x="1046" 
d="M143 -384v147q30 -6 71 -6q75 0 120 40q45 41 78 138l21 64l-399 1079h185l302 -901h4l302 901h183l-422 -1144q-69 -187 -147 -256q-79 -69 -222 -69q-39 0 -76 7z" />
    <glyph glyph-name="uni0444" unicode="&#x444;" horiz-adv-x="1429" 
d="M630 942q-176 -4 -278 -111q-103 -108 -103 -292q0 -183 103 -291q102 -107 278 -112v806zM1075 830q-102 107 -277 112v-806q175 4 277 111q103 108 103 292q0 183 -103 291zM630 -13q-252 5 -403 154q-153 150 -153 398q0 249 153 399q151 149 403 153v352h168v-352
q251 -5 402 -154q153 -150 153 -398q0 -249 -153 -399q-151 -149 -402 -153v-347h-168v347z" />
    <glyph glyph-name="uni0445" unicode="&#x445;" horiz-adv-x="1011" 
d="M501 413l-263 -413h-194l369 539l-363 539h194l263 -407h4l260 407h194l-365 -532l360 -546h-194l-261 413h-4z" />
    <glyph glyph-name="uni0446" unicode="&#x446;" horiz-adv-x="1207" 
d="M1009 -285v285h-882v1078h172v-934h528v934h172v-934h172v-429h-162z" />
    <glyph glyph-name="uni0447" unicode="&#x447;" horiz-adv-x="1070" 
d="M769 0v491h-8q-121 -107 -290 -107q-175 0 -275 107q-97 104 -97 279v308h172v-308q0 -108 55 -170q57 -63 158 -63q189 0 285 136v405h172v-1078h-172z" />
    <glyph glyph-name="uni0448" unicode="&#x448;" horiz-adv-x="1588" 
d="M127 1078h172v-934h408v934h172v-934h408v934h172v-1078h-1332v1078z" />
    <glyph glyph-name="uni0449" unicode="&#x449;" horiz-adv-x="1667" 
d="M1469 -285v285h-1342v1078h172v-934h408v934h172v-934h408v934h172v-934h172v-429h-162z" />
    <glyph glyph-name="uni044A" unicode="&#x44a;" horiz-adv-x="1180" 
d="M329 0v934h-290v144h462v-346h203q185 0 295 -99t110 -267t-110 -267t-295 -99h-375zM501 588v-444h203q106 0 170 61q63 60 63 161t-64 162q-63 60 -169 60h-203z" />
    <glyph glyph-name="uni044B" unicode="&#x44b;" horiz-adv-x="1344" 
d="M1043 1078h172v-1078h-172v1078zM299 588v-444h203q106 0 170 61q63 60 63 161t-64 162q-63 60 -169 60h-203zM127 1078h172v-346h203q185 0 295 -99t110 -267t-110 -267t-295 -99h-375v1078z" />
    <glyph glyph-name="uni044C" unicode="&#x44c;" horiz-adv-x="978" 
d="M299 588v-444h203q106 0 170 61q63 60 63 161t-64 162q-63 60 -169 60h-203zM127 1078h172v-346h203q185 0 295 -99t110 -267t-110 -267t-295 -99h-375v1078z" />
    <glyph glyph-name="uni044D" unicode="&#x44d;" horiz-adv-x="1078" 
d="M232 326q54 -181 275 -181q133 0 219 91q88 93 97 252h-494v144h489q-18 138 -103 220q-84 81 -206 81q-110 0 -184 -53q-68 -49 -91 -132h-173q25 143 140 238q125 102 309 102q222 0 357 -150q135 -151 135 -399q0 -252 -136 -402q-134 -147 -358 -147q-178 0 -300 93
q-121 92 -149 243h173z" />
    <glyph glyph-name="uni044E" unicode="&#x44e;" horiz-adv-x="1544" 
d="M638 116q-129 135 -143 372h-196v-488h-172v1078h172v-446h200q23 219 150 342q128 123 332 123q226 0 356 -149q131 -149 131 -409q0 -259 -131 -409q-130 -149 -356 -149q-214 0 -343 135zM1210 242q80 105 80 297t-80 298q-81 105 -229 105t-229 -105
q-80 -106 -80 -298t80 -297q81 -106 229 -106t229 106z" />
    <glyph glyph-name="uni044F" unicode="&#x44f;" horiz-adv-x="1020" 
d="M719 530v404h-208q-107 0 -170 -55q-63 -56 -63 -154q0 -86 64 -140q64 -55 169 -55h208zM719 386h-195l-275 -386h-200l301 418q-114 32 -179 112t-65 191q0 166 110 262q109 95 295 95h380v-1078h-172v386z" />
    <glyph glyph-name="uni0451" unicode="&#x451;" horiz-adv-x="1104" 
d="M347 851q-84 -84 -93 -221h593q-3 137 -83 221q-79 84 -207 84q-127 0 -210 -84zM1015 308q-22 -139 -148 -228q-126 -90 -299 -90q-227 0 -361 147q-133 147 -133 398t133 402t353 151q216 0 342 -142q126 -143 126 -387v-68h-774v-10q0 -154 87 -246t231 -92
q101 0 175 45q73 44 96 120h172zM284 1294q-33 33 -33 79t33 79t79 33q47 0 79 -33q33 -32 33 -79q0 -46 -33 -79t-79 -33t-79 33zM678 1294q-33 33 -33 79t33 79t79 33q47 0 79 -33q33 -32 33 -79q0 -46 -33 -79t-79 -33t-79 33z" />
    <glyph glyph-name="uni0452" unicode="&#x452;" horiz-adv-x="1204" 
d="M1080 -84q0 -164 -81 -239t-252 -75h-30v147h26q91 0 128 39q35 37 35 128v741q0 129 -72 203q-73 73 -201 73q-137 0 -220 -86q-84 -86 -84 -227v-620h-174v1247h-122v124h122v185h174v-185h260v-124h-260v-344h4q102 185 352 185q177 0 286 -110t109 -290v-772z" />
    <glyph glyph-name="uni0453" unicode="&#x453;" horiz-adv-x="897" 
d="M299 934v-934h-172v1078h690v-144h-518zM377 1250l211 300h198l-261 -300h-148z" />
    <glyph glyph-name="uni0454" unicode="&#x454;" horiz-adv-x="1078" 
d="M1017 326q-28 -151 -149 -243q-122 -93 -300 -93q-224 0 -358 147q-136 150 -136 402q0 248 135 399q135 150 357 150q184 0 309 -102q115 -95 140 -238h-173q-23 83 -91 132q-74 53 -184 53q-122 0 -206 -81q-85 -82 -103 -220h489v-144h-494q9 -159 97 -252
q86 -91 219 -91q221 0 275 181h173z" />
    <glyph glyph-name="uni0455" unicode="&#x455;" horiz-adv-x="1003" 
d="M221 1000q111 87 287 87q164 0 276 -88q111 -87 116 -220h-167q-8 76 -70 120t-161 44q-100 0 -161 -43t-61 -114q0 -107 182 -153l164 -41q163 -41 230 -106q66 -64 66 -182q0 -138 -120 -226q-119 -88 -306 -88q-174 0 -289 86q-115 87 -128 227h175q28 -169 254 -169
q110 0 175 43q64 42 64 115q0 57 -38 91q-38 33 -130 57l-189 49q-281 73 -281 288q0 136 112 223z" />
    <glyph glyph-name="uni0456" unicode="&#x456;" horiz-adv-x="450" 
d="M137 1078h174v-1078h-174v1078zM147 1285q-33 32 -33 77q0 46 33 78q32 32 77 32q46 0 78 -32t32 -78q0 -45 -32 -77q-32 -33 -78 -33q-45 0 -77 33z" />
    <glyph glyph-name="uni0457" unicode="&#x457;" horiz-adv-x="450" 
d="M138 1078h174v-1078h-174v1078zM-51 1294q-33 33 -33 79t33 79t79 33q47 0 79 -33q33 -32 33 -79q0 -46 -33 -79t-79 -33t-79 33zM343 1294q-33 33 -33 79t33 79t79 33q47 0 79 -33q33 -32 33 -79q0 -46 -33 -79t-79 -33t-79 33z" />
    <glyph glyph-name="uni0458" unicode="&#x458;" horiz-adv-x="463" 
d="M312 -81q0 -164 -80 -241q-79 -76 -251 -76h-31v147h27q88 0 125 38q36 37 36 129v1162h174v-1159zM148 1285q-33 32 -33 77q0 46 33 78q32 32 77 32q46 0 78 -32t32 -78q0 -45 -32 -77q-32 -33 -78 -33q-45 0 -77 33z" />
    <glyph glyph-name="uni0459" unicode="&#x459;" horiz-adv-x="1671" 
d="M409 473q-18 -240 -83 -352q-75 -130 -234 -130q-37 0 -63 11v158q24 -8 54 -8q76 0 116 88q35 77 46 237l42 601h705v-346h203q185 0 295 -99t110 -267t-110 -267t-295 -99h-375v934h-377zM992 588v-444h203q106 0 170 61q63 60 63 161t-64 162q-63 60 -169 60h-203z
" />
    <glyph glyph-name="uni045A" unicode="&#x45a;" horiz-adv-x="1678" 
d="M999 518v-374h213q102 0 163 51q60 51 60 136t-61 136t-162 51h-213zM827 518h-528v-518h-172v1078h172v-416h528v416h172v-416h213q181 0 288 -89q107 -90 107 -242t-107 -242q-107 -89 -288 -89h-385v518z" />
    <glyph glyph-name="uni045B" unicode="&#x45b;" horiz-adv-x="1204" 
d="M333 903q102 185 352 185q177 0 286 -110t109 -290v-688h-174v657q0 129 -72 203q-73 73 -201 73q-137 0 -220 -86q-84 -86 -84 -227v-620h-174v1247h-122v124h122v185h174v-185h260v-124h-260v-344h4z" />
    <glyph glyph-name="uni045C" unicode="&#x45c;" horiz-adv-x="1029" 
d="M585 1250h-148l211 300h198zM1003 0h-225l-471 521h-8v-521h-172v1078h172v-479h8l466 479h216l-507 -511z" />
    <glyph glyph-name="uni045E" unicode="&#x45e;" horiz-adv-x="1046" 
d="M143 -384v147q30 -6 71 -6q75 0 120 40q45 41 78 138l21 64l-399 1079h185l302 -901h4l302 901h183l-422 -1144q-69 -187 -147 -256q-79 -69 -222 -69q-39 0 -76 7zM328 1550q0 -89 52 -147q55 -60 142 -60t142 60q52 58 52 147h128q0 -138 -89 -224q-90 -86 -233 -86
t-233 86q-89 86 -89 224h128z" />
    <glyph glyph-name="uni045F" unicode="&#x45f;" horiz-adv-x="1138" 
d="M649 0v-285h-162v285h-360v1078h172v-934h538v934h172v-1078h-360z" />
    <glyph glyph-name="uni0490" unicode="&#x490;" horiz-adv-x="1071" 
d="M330 0h-181v1443h689v285h167v-449h-675v-1279z" />
    <glyph glyph-name="uni0491" unicode="&#x491;" horiz-adv-x="888" 
d="M299 934v-934h-172v1078h528v285h162v-429h-518z" />
    <glyph glyph-name="uni0E3F" unicode="&#xe3f;" horiz-adv-x="1239" 
d="M619 159q310 9 310 255q0 237 -310 251v-506zM485 159v507h-182v-507h182zM303 821h182v463h-182v-463zM619 826q240 29 240 226q0 101 -63 161q-62 59 -177 69v-456zM792 756q148 -19 235 -113q87 -95 87 -238q0 -191 -129 -298q-130 -107 -360 -107h-6v-137h-134v137
h-362v1443h362v157h134v-157q196 -1 309 -98t113 -262q0 -112 -72 -202q-73 -90 -177 -109v-16z" />
    <glyph glyph-name="uni1E00" unicode="&#x1e00;" horiz-adv-x="1292" 
d="M932 413h-574l-145 -413h-189l532 1443h178l532 -1443h-189zM411 566h468l-231 658h-6zM505 -499q-59 58 -59 140t59 140q58 59 140 59t140 -59q59 -58 59 -140t-59 -140q-58 -59 -140 -59t-140 59zM727 -441q34 34 34 82t-34 82t-82 34t-82 -34t-34 -82t34 -82t82 -34
t82 34z" />
    <glyph glyph-name="uni1E01" unicode="&#x1e01;" horiz-adv-x="1062" 
d="M688 217q86 77 86 193v87l-282 -18q-246 -15 -246 -173q0 -75 61 -120q60 -45 162 -45q132 0 219 76zM168 77q-100 87 -100 230q0 139 104 218q104 80 300 92l302 18v90q0 100 -64 154t-183 54q-94 0 -158 -45q-65 -45 -81 -121h-167q4 136 121 229q117 92 287 92
q191 0 305 -94q114 -95 114 -254v-740h-165v187h-4q-46 -90 -140 -143q-94 -54 -207 -54q-164 0 -264 87zM371 -499q-59 58 -59 140t59 140q58 59 140 59t140 -59q59 -58 59 -140t-59 -140q-58 -59 -140 -59t-140 59zM593 -441q34 34 34 82t-34 82t-82 34t-82 -34t-34 -82
t34 -82t82 -34t82 34z" />
    <glyph glyph-name="uni1E02" unicode="&#x1e02;" horiz-adv-x="1256" 
d="M139 0v1443h565q186 0 300 -99t114 -261q0 -113 -72 -204q-73 -92 -177 -111v-8q147 -19 235 -115q87 -96 87 -240q0 -191 -129 -298q-130 -107 -360 -107h-563zM319 821h288q160 0 244 62q85 62 85 179q0 107 -71 165q-71 57 -202 57h-344v-463zM675 159q331 0 331 255
q0 252 -348 252h-339v-507h356zM474 1620q-35 36 -35 86t35 86q36 35 86 35t86 -35q35 -36 35 -86t-35 -86q-36 -35 -86 -35t-86 35z" />
    <glyph glyph-name="uni1E03" unicode="&#x1e03;" horiz-adv-x="1173" 
d="M296 182h-4v-182h-165v1506h174v-603h4q107 185 346 185q204 0 330 -151q126 -152 126 -398q0 -247 -127 -398q-126 -151 -333 -151q-243 0 -351 192zM388 823q-88 -109 -88 -284q0 -176 88 -285q87 -109 228 -109q142 0 227 107q86 107 86 287q0 179 -86 287
q-85 107 -227 107q-141 0 -228 -110zM128 1683q-35 36 -35 86t35 86q36 35 86 35t86 -35q35 -36 35 -86t-35 -86q-36 -35 -86 -35t-86 35z" />
    <glyph glyph-name="uni1E04" unicode="&#x1e04;" horiz-adv-x="1256" 
d="M139 0v1443h565q186 0 300 -99t114 -261q0 -113 -72 -204q-73 -92 -177 -111v-8q147 -19 235 -115q87 -96 87 -240q0 -191 -129 -298q-130 -107 -360 -107h-563zM319 821h288q160 0 244 62q85 62 85 179q0 107 -71 165q-71 57 -202 57h-344v-463zM675 159q331 0 331 255
q0 252 -348 252h-339v-507h356zM474 -357q-35 36 -35 86t35 86q36 35 86 35t86 -35q35 -36 35 -86t-35 -86q-36 -35 -86 -35t-86 35z" />
    <glyph glyph-name="uni1E05" unicode="&#x1e05;" horiz-adv-x="1173" 
d="M296 182h-4v-182h-165v1506h174v-603h4q107 185 346 185q204 0 330 -151q126 -152 126 -398q0 -247 -127 -398q-126 -151 -333 -151q-243 0 -351 192zM388 823q-88 -109 -88 -284q0 -176 88 -285q87 -109 228 -109q142 0 227 107q86 107 86 287q0 179 -86 287
q-85 107 -227 107q-141 0 -228 -110zM531 -357q-35 36 -35 86t35 86q36 35 86 35t86 -35q35 -36 35 -86t-35 -86q-36 -35 -86 -35t-86 35z" />
    <glyph glyph-name="uni1E06" unicode="&#x1e06;" horiz-adv-x="1256" 
d="M139 0v1443h565q186 0 300 -99t114 -261q0 -113 -72 -204q-73 -92 -177 -111v-8q147 -19 235 -115q87 -96 87 -240q0 -191 -129 -298q-130 -107 -360 -107h-563zM319 821h288q160 0 244 62q85 62 85 179q0 107 -71 165q-71 57 -202 57h-344v-463zM675 159q331 0 331 255
q0 252 -348 252h-339v-507h356zM877 -326h-634v106h634v-106z" />
    <glyph glyph-name="uni1E07" unicode="&#x1e07;" horiz-adv-x="1173" 
d="M296 182h-4v-182h-165v1506h174v-603h4q107 185 346 185q204 0 330 -151q126 -152 126 -398q0 -247 -127 -398q-126 -151 -333 -151q-243 0 -351 192zM388 823q-88 -109 -88 -284q0 -176 88 -285q87 -109 228 -109q142 0 227 107q86 107 86 287q0 179 -86 287
q-85 107 -227 107q-141 0 -228 -110zM934 -326h-634v106h634v-106z" />
    <glyph glyph-name="uni1E08" unicode="&#x1e08;" horiz-adv-x="1405" 
d="M810 1552h-148l231 299h198zM1150 988q-35 142 -148 227q-115 86 -269 86q-211 0 -338 -158t-127 -421q0 -266 126 -423t340 -157q159 0 268 73t148 205h182q-46 -200 -185 -314t-354 -128l-44 -120q209 0 209 -150q0 -76 -62 -126t-157 -51q-83 -1 -147 17v98
q38 -15 122 -15q120 0 120 73q0 66 -150 66h-55v74l51 134q-276 18 -436 217q-161 200 -161 527q0 340 177 542q177 203 473 203q236 0 400 -131q165 -132 199 -348h-182z" />
    <glyph glyph-name="uni1E09" unicode="&#x1e09;" horiz-adv-x="1060" 
d="M630 1250h-148l211 300h198zM1010 345q-20 -144 -124 -238q-104 -96 -262 -113l-50 -136q209 0 209 -150q0 -76 -62 -126t-157 -51q-83 -1 -147 17v98q38 -15 122 -15q120 0 120 73q0 66 -150 66h-55v74l57 148q-204 16 -325 161q-122 147 -122 386q0 248 135 399
q135 150 357 150q191 0 318 -110q117 -101 134 -251h-171q-17 91 -87 146q-76 60 -193 60q-142 0 -228 -108q-88 -108 -88 -286q0 -182 89 -289q86 -105 229 -105q234 0 280 200h171z" />
    <glyph glyph-name="uni1E0A" unicode="&#x1e0a;" horiz-adv-x="1399" 
d="M634 1443q321 0 501 -190q180 -191 180 -531q0 -341 -180 -532q-179 -190 -501 -190h-495v1443h495zM319 162h303q245 0 377 145q132 144 132 413q0 271 -131 416q-132 145 -378 145h-303v-1119zM463 1620q-35 36 -35 86t35 86q36 35 86 35t86 -35q35 -36 35 -86t-35 -86
q-36 -35 -86 -35t-86 35z" />
    <glyph glyph-name="uni1E0B" unicode="&#x1e0b;" horiz-adv-x="1173" 
d="M193 141q-129 152 -129 398q0 245 129 398q127 151 329 151q241 0 344 -185h4v603h174v-1506h-166v182h-3q-108 -192 -349 -192q-204 0 -333 151zM329 825q-87 -108 -87 -286q0 -179 87 -287q86 -107 228 -107q140 0 227 109t87 285t-87 285t-227 109q-142 0 -228 -108z
M871 1683q-35 36 -35 86t35 86q36 35 86 35t86 -35q35 -36 35 -86t-35 -86q-36 -35 -86 -35t-86 35z" />
    <glyph glyph-name="uni1E0C" unicode="&#x1e0c;" horiz-adv-x="1399" 
d="M634 1443q321 0 501 -190q180 -191 180 -531q0 -341 -180 -532q-179 -190 -501 -190h-495v1443h495zM319 162h303q245 0 377 145q132 144 132 413q0 271 -131 416q-132 145 -378 145h-303v-1119zM463 -357q-35 36 -35 86t35 86q36 35 86 35t86 -35q35 -36 35 -86t-35 -86
q-36 -35 -86 -35t-86 35z" />
    <glyph glyph-name="uni1E0D" unicode="&#x1e0d;" horiz-adv-x="1173" 
d="M193 141q-129 152 -129 398q0 245 129 398q127 151 329 151q241 0 344 -185h4v603h174v-1506h-166v182h-3q-108 -192 -349 -192q-204 0 -333 151zM329 825q-87 -108 -87 -286q0 -179 87 -287q86 -107 228 -107q140 0 227 109t87 285t-87 285t-227 109q-142 0 -228 -108z
M440 -357q-35 36 -35 86t35 86q36 35 86 35t86 -35q35 -36 35 -86t-35 -86q-36 -35 -86 -35t-86 35z" />
    <glyph glyph-name="uni1E0E" unicode="&#x1e0e;" horiz-adv-x="1399" 
d="M634 1443q321 0 501 -190q180 -191 180 -531q0 -341 -180 -532q-179 -190 -501 -190h-495v1443h495zM319 162h303q245 0 377 145q132 144 132 413q0 271 -131 416q-132 145 -378 145h-303v-1119zM866 -326h-634v106h634v-106z" />
    <glyph glyph-name="uni1E0F" unicode="&#x1e0f;" horiz-adv-x="1173" 
d="M193 141q-129 152 -129 398q0 245 129 398q127 151 329 151q241 0 344 -185h4v603h174v-1506h-166v182h-3q-108 -192 -349 -192q-204 0 -333 151zM329 825q-87 -108 -87 -286q0 -179 87 -287q86 -107 228 -107q140 0 227 109t87 285t-87 285t-227 109q-142 0 -228 -108z
M843 -326h-634v106h634v-106z" />
    <glyph glyph-name="uni1E10" unicode="&#x1e10;" horiz-adv-x="1399" 
d="M634 1443q321 0 501 -190q180 -191 180 -531q0 -341 -180 -532q-179 -190 -501 -190h-495v1443h495zM319 162h303q245 0 377 145q132 144 132 413q0 271 -131 416q-132 145 -378 145h-303v-1119zM408 -541l91 369h153l-118 -369h-126z" />
    <glyph glyph-name="uni1E11" unicode="&#x1e11;" horiz-adv-x="1173" 
d="M193 141q-129 152 -129 398q0 245 129 398q127 151 329 151q241 0 344 -185h4v603h174v-1506h-166v182h-3q-108 -192 -349 -192q-204 0 -333 151zM329 825q-87 -108 -87 -286q0 -179 87 -287q86 -107 228 -107q140 0 227 109t87 285t-87 285t-227 109q-142 0 -228 -108z
M385 -541l91 369h153l-118 -369h-126z" />
    <glyph glyph-name="uni1E12" unicode="&#x1e12;" horiz-adv-x="1399" 
d="M634 1443q321 0 501 -190q180 -191 180 -531q0 -341 -180 -532q-179 -190 -501 -190h-495v1443h495zM319 162h303q245 0 377 145q132 144 132 413q0 271 -131 416q-132 145 -378 145h-303v-1119zM620 -166l292 -299h-168l-194 201h-2l-194 -201h-168l292 299h142z" />
    <glyph glyph-name="uni1E13" unicode="&#x1e13;" horiz-adv-x="1173" 
d="M193 141q-129 152 -129 398q0 245 129 398q127 151 329 151q241 0 344 -185h4v603h174v-1506h-166v182h-3q-108 -192 -349 -192q-204 0 -333 151zM329 825q-87 -108 -87 -286q0 -179 87 -287q86 -107 228 -107q140 0 227 109t87 285t-87 285t-227 109q-142 0 -228 -108z
M597 -166l292 -299h-168l-194 201h-2l-194 -201h-168l292 299h142z" />
    <glyph glyph-name="uni1E14" unicode="&#x1e14;" horiz-adv-x="1131" 
d="M1033 0h-894v1443h894v-162h-714v-463h677v-160h-677v-496h714v-162zM269 1748h634v-106h-634v106zM518 1849l-236 204h187l185 -204h-136z" />
    <glyph glyph-name="uni1E15" unicode="&#x1e15;" horiz-adv-x="1084" 
d="M337 851q-84 -84 -93 -221h593q-3 137 -83 221q-79 84 -207 84q-127 0 -210 -84zM1005 308q-22 -139 -148 -228q-126 -90 -299 -90q-227 0 -361 147q-133 147 -133 398t133 402t353 151q216 0 342 -142q126 -143 126 -387v-68h-774v-10q0 -154 87 -246t231 -92
q101 0 175 45q73 44 96 120h172zM475 1592l-199 257h188l161 -257h-150zM867 1320h-634v106h634v-106z" />
    <glyph glyph-name="uni1E16" unicode="&#x1e16;" horiz-adv-x="1131" 
d="M1033 0h-894v1443h894v-162h-714v-463h677v-160h-677v-496h714v-162zM269 1642v106h634v-106h-634zM703 2053h187l-236 -204h-136z" />
    <glyph glyph-name="uni1E17" unicode="&#x1e17;" horiz-adv-x="1084" 
d="M337 851q-84 -84 -93 -221h593q-3 137 -83 221q-79 84 -207 84q-127 0 -210 -84zM1005 308q-22 -139 -148 -228q-126 -90 -299 -90q-227 0 -361 147q-133 147 -133 398t133 402t353 151q216 0 342 -142q126 -143 126 -387v-68h-774v-10q0 -154 87 -246t231 -92
q101 0 175 45q73 44 96 120h172zM636 1849h188l-199 -257h-150zM867 1320h-634v106h634v-106z" />
    <glyph glyph-name="uni1E18" unicode="&#x1e18;" horiz-adv-x="1131" 
d="M1033 0h-894v1443h894v-162h-714v-463h677v-160h-677v-496h714v-162zM657 -166l292 -299h-168l-194 201h-2l-194 -201h-168l292 299h142z" />
    <glyph glyph-name="uni1E19" unicode="&#x1e19;" horiz-adv-x="1084" 
d="M337 851q-84 -84 -93 -221h593q-3 137 -83 221q-79 84 -207 84q-127 0 -210 -84zM1005 308q-22 -139 -148 -228q-126 -90 -299 -90q-227 0 -361 147q-133 147 -133 398t133 402t353 151q216 0 342 -142q126 -143 126 -387v-68h-774v-10q0 -154 87 -246t231 -92
q101 0 175 45q73 44 96 120h172zM629 -166l292 -299h-168l-194 201h-2l-194 -201h-168l292 299h142z" />
    <glyph glyph-name="uni1E1A" unicode="&#x1e1a;" horiz-adv-x="1131" 
d="M1033 0h-894v1443h894v-162h-714v-463h677v-160h-677v-496h714v-162zM571 -339q-73 76 -106 76q-69 0 -69 -137h-114q0 118 47 184t131 66q77 0 151 -76t103 -76q62 0 62 138h114q0 -115 -48 -183t-128 -68q-71 0 -143 76z" />
    <glyph glyph-name="uni1E1B" unicode="&#x1e1b;" horiz-adv-x="1084" 
d="M337 851q-84 -84 -93 -221h593q-3 137 -83 221q-79 84 -207 84q-127 0 -210 -84zM1005 308q-22 -139 -148 -228q-126 -90 -299 -90q-227 0 -361 147q-133 147 -133 398t133 402t353 151q216 0 342 -142q126 -143 126 -387v-68h-774v-10q0 -154 87 -246t231 -92
q101 0 175 45q73 44 96 120h172zM543 -339q-73 76 -106 76q-69 0 -69 -137h-114q0 118 47 184t131 66q77 0 151 -76t103 -76q62 0 62 138h114q0 -115 -48 -183t-128 -68q-71 0 -143 76z" />
    <glyph glyph-name="uni1E1C" unicode="&#x1e1c;" horiz-adv-x="1131" 
d="M896 1849q0 -132 -86 -215q-87 -84 -224 -84t-224 84q-86 83 -86 215h119q0 -83 55 -139q55 -57 136 -57t136 57q55 56 55 139h119zM319 1281v-463h677v-160h-677v-496h714v-162h-379l-52 -142q209 0 209 -150q0 -76 -62 -126t-157 -51q-83 -1 -147 17v98q38 -15 122 -15
q120 0 120 73q0 66 -150 66h-55v74l60 156h-403v1443h894v-162h-714z" />
    <glyph glyph-name="uni1E1D" unicode="&#x1e1d;" horiz-adv-x="1084" 
d="M871 1550q0 -138 -89 -224q-90 -86 -233 -86t-233 86q-89 86 -89 224h123q0 -86 58 -144q57 -59 141 -59t142 59q57 58 57 144h123zM837 630q-3 137 -83 221q-79 84 -207 84q-127 0 -210 -84q-84 -84 -93 -221h593zM244 491v-10q0 -154 87 -246t231 -92q101 0 175 45
q73 44 96 120h172q-20 -125 -126 -211q-105 -86 -255 -103l-50 -136q209 0 209 -150q0 -76 -62 -126t-157 -51q-83 -1 -147 17v98q38 -15 122 -15q120 0 120 73q0 66 -150 66h-55v74l57 148q-207 16 -327 161t-120 382q0 251 133 402t353 151q216 0 342 -142
q126 -143 126 -387v-68h-774z" />
    <glyph glyph-name="uni1E1E" unicode="&#x1e1e;" horiz-adv-x="1081" 
d="M139 0v1443h876v-162h-696v-496h639v-160h-639v-625h-180zM491 1620q-35 36 -35 86t35 86q36 35 86 35t86 -35q35 -36 35 -86t-35 -86q-36 -35 -86 -35t-86 35z" />
    <glyph glyph-name="uni1E1F" unicode="&#x1e1f;" horiz-adv-x="629" 
d="M174 934h-150v144h150v100q0 150 69 219q68 69 218 69q48 0 97 -9v-144q-37 8 -81 8q-68 0 -98 -34q-30 -33 -31 -109v-100h210v-144h-210v-934h-174v934zM280 1640q-35 36 -35 86t35 86q36 35 86 35t86 -35q35 -36 35 -86t-35 -86q-36 -35 -86 -35t-86 35z" />
    <glyph glyph-name="uni1E20" unicode="&#x1e20;" horiz-adv-x="1447" 
d="M1356 597q0 -293 -162 -457q-161 -164 -450 -164q-302 0 -482 204q-179 205 -179 549q0 338 179 538t482 200q234 0 398 -128q165 -129 205 -344h-189q-45 146 -153 226q-109 80 -261 80q-223 0 -349 -152q-127 -151 -127 -419q0 -272 128 -430t348 -158q192 0 312 113
q120 114 120 295v26h-407v158h587v-137zM1061 1642h-634v106h634v-106z" />
    <glyph glyph-name="uni1E21" unicode="&#x1e21;" horiz-adv-x="1163" 
d="M782 262q88 108 88 281q0 174 -88 282q-87 108 -229 108q-141 0 -226 -106q-85 -107 -85 -284q0 -176 85 -282t226 -106q142 0 229 107zM251 -304q-122 82 -141 216h181q19 -67 94 -107q74 -39 181 -39q140 0 222 68q82 67 82 182v169h-4q-108 -185 -346 -185
q-205 0 -330 149q-126 150 -126 394q0 247 126 396t334 149q238 0 351 -185h3v175h166v-1048q0 -193 -130 -304q-131 -111 -358 -111q-183 0 -305 81zM871 1320h-634v106h634v-106z" />
    <glyph glyph-name="uni1E22" unicode="&#x1e22;" horiz-adv-x="1432" 
d="M1111 0v657h-792v-657h-180v1443h180v-624h792v624h180v-1443h-180zM629 1620q-35 36 -35 86t35 86q36 35 86 35t86 -35q35 -36 35 -86t-35 -86q-36 -35 -86 -35t-86 35z" />
    <glyph glyph-name="uni1E23" unicode="&#x1e23;" horiz-adv-x="1166" 
d="M127 1506h174v-603h4q102 185 352 185q177 0 286 -110t109 -290v-688h-174v657q0 129 -72 203q-73 73 -201 73q-137 0 -220 -86q-84 -86 -84 -227v-620h-174v1506zM129 1683q-35 36 -35 86t35 86q36 35 86 35t86 -35q35 -36 35 -86t-35 -86q-36 -35 -86 -35t-86 35z" />
    <glyph glyph-name="uni1E24" unicode="&#x1e24;" horiz-adv-x="1432" 
d="M1111 0v657h-792v-657h-180v1443h180v-624h792v624h180v-1443h-180zM629 -357q-35 36 -35 86t35 86q36 35 86 35t86 -35q35 -36 35 -86t-35 -86q-36 -35 -86 -35t-86 35z" />
    <glyph glyph-name="uni1E25" unicode="&#x1e25;" horiz-adv-x="1166" 
d="M127 1506h174v-603h4q102 185 352 185q177 0 286 -110t109 -290v-688h-174v657q0 129 -72 203q-73 73 -201 73q-137 0 -220 -86q-84 -86 -84 -227v-620h-174v1506zM504 -357q-35 36 -35 86t35 86q36 35 86 35t86 -35q35 -36 35 -86t-35 -86q-36 -35 -86 -35t-86 35z" />
    <glyph glyph-name="uni1E26" unicode="&#x1e26;" horiz-adv-x="1432" 
d="M1111 0v657h-792v-657h-180v1443h180v-624h792v624h180v-1443h-180zM439 1618q-33 33 -33 79t33 79t79 33q47 0 79 -33q33 -32 33 -79q0 -46 -33 -79t-79 -33t-79 33zM833 1618q-33 33 -33 79t33 79t79 33q47 0 79 -33q33 -32 33 -79q0 -46 -33 -79t-79 -33t-79 33z" />
    <glyph glyph-name="uni1E27" unicode="&#x1e27;" horiz-adv-x="1166" 
d="M128 1506h174v-603h4q102 185 352 185q177 0 286 -110t109 -290v-688h-174v657q0 129 -72 203q-73 73 -201 73q-137 0 -220 -86q-84 -86 -84 -227v-620h-174v1506zM-60 1681q-33 33 -33 79t33 79t79 33q47 0 79 -33q33 -32 33 -79q0 -46 -33 -79t-79 -33t-79 33z
M334 1681q-33 33 -33 79t33 79t79 33q47 0 79 -33q33 -32 33 -79q0 -46 -33 -79t-79 -33t-79 33z" />
    <glyph glyph-name="uni1E28" unicode="&#x1e28;" horiz-adv-x="1432" 
d="M1291 1443v-1443h-180v657h-792v-657h-22l-52 -142q209 0 209 -150q0 -76 -62 -126t-157 -51q-83 -1 -147 17v98q38 -15 122 -15q120 0 120 73q0 66 -150 66h-55v74l60 156h-46v1443h180v-624h792v624h180z" />
    <glyph glyph-name="uni1E29" unicode="&#x1e29;" horiz-adv-x="1166" 
d="M305 903q102 185 352 185q177 0 286 -110t109 -290v-688h-174v657q0 129 -72 203q-73 73 -201 73q-137 0 -220 -86q-84 -86 -84 -227v-620h-18l-52 -142q209 0 209 -150q0 -76 -62 -126t-157 -51q-83 -1 -147 17v98q38 -15 122 -15q120 0 120 73q0 66 -150 66h-55v74
l60 156h-44v1506h174v-603h4z" />
    <glyph glyph-name="uni1E2A" unicode="&#x1e2a;" horiz-adv-x="1432" 
d="M1111 0v657h-792v-657h-180v1443h180v-624h792v624h180v-1443h-180zM524 -196q0 -83 55 -139q55 -57 136 -57t136 57q55 56 55 139h119q0 -132 -86 -215q-87 -84 -224 -84t-224 84q-86 83 -86 215h119z" />
    <glyph glyph-name="uni1E2B" unicode="&#x1e2b;" horiz-adv-x="1166" 
d="M127 1506h174v-603h4q102 185 352 185q177 0 286 -110t109 -290v-688h-174v657q0 129 -72 203q-73 73 -201 73q-137 0 -220 -86q-84 -86 -84 -227v-620h-174v1506zM399 -196q0 -83 55 -139q55 -57 136 -57t136 57q55 56 55 139h119q0 -132 -86 -215q-87 -84 -224 -84
t-224 84q-86 83 -86 215h119z" />
    <glyph glyph-name="uni1E2C" unicode="&#x1e2c;" horiz-adv-x="460" 
d="M140 0v1443h180v-1443h-180zM215 -339q-73 76 -106 76q-69 0 -69 -137h-114q0 118 47 184t131 66q77 0 151 -76t103 -76q62 0 62 138h114q0 -115 -48 -183t-128 -68q-71 0 -143 76z" />
    <glyph glyph-name="uni1E2D" unicode="&#x1e2d;" horiz-adv-x="430" 
d="M128 1078h174v-1078h-174v1078zM138 1285q-33 32 -33 77q0 46 33 78q32 32 77 32q46 0 78 -32t32 -78q0 -45 -32 -77q-32 -33 -78 -33q-45 0 -77 33zM200 -339q-73 76 -106 76q-69 0 -69 -137h-114q0 118 47 184t131 66q77 0 151 -76t103 -76q62 0 62 138h114
q0 -115 -48 -183t-128 -68q-71 0 -143 76z" />
    <glyph glyph-name="uni1E2E" unicode="&#x1e2e;" horiz-adv-x="460" 
d="M140 0v1443h180v-1443h-180zM347 2053h187l-236 -204h-136zM-26 1621q-29 29 -29 70t29 70t70 29q40 0 69 -29q29 -30 29 -70q0 -41 -29 -70t-69 -29q-41 0 -70 29zM347 1621q-29 29 -29 70q0 40 29 70q29 29 69 29q41 0 70 -29t29 -70t-29 -70t-70 -29q-40 0 -69 29z
" />
    <glyph glyph-name="uni1E2F" unicode="&#x1e2f;" horiz-adv-x="430" 
d="M128 1078h174v-1078h-174v1078zM301 1849h188l-199 -257h-150zM-61 1294q-33 33 -33 79t33 79t79 33q47 0 79 -33q33 -32 33 -79q0 -46 -33 -79t-79 -33t-79 33zM333 1294q-33 33 -33 79t33 79t79 33q47 0 79 -33q33 -32 33 -79q0 -46 -33 -79t-79 -33t-79 33z" />
    <glyph glyph-name="uni1E30" unicode="&#x1e30;" horiz-adv-x="1260" 
d="M139 0v1443h180v-704h10l637 704h227l-593 -639l646 -804h-230l-541 676l-156 -172v-504h-180zM537 1550l231 299h198l-281 -299h-148z" />
    <glyph glyph-name="uni1E31" unicode="&#x1e31;" horiz-adv-x="1026" 
d="M784 1078h212l-471 -466l485 -612h-202l-405 505l-102 -96v-409h-174v1506h174v-910zM143 1613l231 299h198l-281 -299h-148z" />
    <glyph glyph-name="uni1E32" unicode="&#x1e32;" horiz-adv-x="1260" 
d="M139 0v1443h180v-704h10l637 704h227l-593 -639l646 -804h-230l-541 676l-156 -172v-504h-180zM522 -357q-35 36 -35 86t35 86q36 35 86 35t86 -35q35 -36 35 -86t-35 -86q-36 -35 -86 -35t-86 35z" />
    <glyph glyph-name="uni1E33" unicode="&#x1e33;" horiz-adv-x="1026" 
d="M784 1078h212l-471 -466l485 -612h-202l-405 505l-102 -96v-409h-174v1506h174v-910zM469 -357q-35 36 -35 86t35 86q36 35 86 35t86 -35q35 -36 35 -86t-35 -86q-36 -35 -86 -35t-86 35z" />
    <glyph glyph-name="uni1E34" unicode="&#x1e34;" horiz-adv-x="1260" 
d="M139 0v1443h180v-704h10l637 704h227l-593 -639l646 -804h-230l-541 676l-156 -172v-504h-180zM925 -326h-634v106h634v-106z" />
    <glyph glyph-name="uni1E35" unicode="&#x1e35;" horiz-adv-x="1026" 
d="M784 1078h212l-471 -466l485 -612h-202l-405 505l-102 -96v-409h-174v1506h174v-910zM872 -326h-634v106h634v-106z" />
    <glyph glyph-name="uni1E36" unicode="&#x1e36;" horiz-adv-x="1074" 
d="M1015 0h-876v1443h180v-1281h696v-162zM491 -357q-35 36 -35 86t35 86q36 35 86 35t86 -35q35 -36 35 -86t-35 -86q-36 -35 -86 -35t-86 35z" />
    <glyph glyph-name="uni1E37" unicode="&#x1e37;" horiz-adv-x="430" 
d="M127 1506h174v-1506h-174v1506zM128 -357q-35 36 -35 86t35 86q36 35 86 35t86 -35q35 -36 35 -86t-35 -86q-36 -35 -86 -35t-86 35z" />
    <glyph glyph-name="uni1E38" unicode="&#x1e38;" horiz-adv-x="1074" 
d="M1016 0h-876v1443h180v-1281h696v-162zM492 -357q-35 36 -35 86t35 86q36 35 86 35t86 -35q35 -36 35 -86t-35 -86q-36 -35 -86 -35t-86 35zM547 1642h-634v106h634v-106z" />
    <glyph glyph-name="uni1E39" unicode="&#x1e39;" horiz-adv-x="430" 
d="M128 1506h174v-1506h-174v1506zM129 -357q-35 36 -35 86t35 86q36 35 86 35t86 -35q35 -36 35 -86t-35 -86q-36 -35 -86 -35t-86 35zM532 1705h-634v106h634v-106z" />
    <glyph glyph-name="uni1E3A" unicode="&#x1e3a;" horiz-adv-x="1074" 
d="M1015 0h-876v1443h180v-1281h696v-162zM894 -326h-634v106h634v-106z" />
    <glyph glyph-name="uni1E3B" unicode="&#x1e3b;" horiz-adv-x="430" 
d="M128 1506h174v-1506h-174v1506zM532 -326h-634v106h634v-106z" />
    </font>
</defs>
</svg>
